<svg version="1.1" xmlns="http://www.w3.org/2000/svg" viewBox="0 0 1328.7015626515977 911.7196663894551" width="3986.104687954793" height="2735.1589991683654">
  <!-- svg-source:excalidraw -->
  
  <defs>
    <style class="style-fonts">
      @font-face {
        font-family: "Virgil";
        src: url("https://excalidraw.com/Virgil.woff2");
      }
      @font-face {
        font-family: "Cascadia";
        src: url("https://excalidraw.com/Cascadia.woff2");
      }
    </style>
  </defs>
  <rect x="0" y="0" width="1328.7015626515977" height="911.7196663894551" fill="#ffffff"></rect><g stroke-linecap="round" transform="translate(225.48561613945003 382.92928681744525) rotate(0 30 30)"><path d="M60 30 C60 31.74, 59.85 33.5, 59.54 35.21 C59.24 36.92, 58.78 38.63, 58.19 40.26 C57.6 41.89, 56.85 43.5, 55.98 45 C55.11 46.5, 54.1 47.95, 52.98 49.28 C51.87 50.61, 50.61 51.87, 49.28 52.98 C47.95 54.1, 46.5 55.11, 45 55.98 C43.5 56.85, 41.89 57.6, 40.26 58.19 C38.63 58.78, 36.92 59.24, 35.21 59.54 C33.5 59.85, 31.74 60, 30 60 C28.26 60, 26.5 59.85, 24.79 59.54 C23.08 59.24, 21.37 58.78, 19.74 58.19 C18.11 57.6, 16.5 56.85, 15 55.98 C13.5 55.11, 12.05 54.1, 10.72 52.98 C9.39 51.87, 8.13 50.61, 7.02 49.28 C5.9 47.95, 4.89 46.5, 4.02 45 C3.15 43.5, 2.4 41.89, 1.81 40.26 C1.22 38.63, 0.76 36.92, 0.46 35.21 C0.15 33.5, 0 31.74, 0 30 C0 28.26, 0.15 26.5, 0.46 24.79 C0.76 23.08, 1.22 21.37, 1.81 19.74 C2.4 18.11, 3.15 16.5, 4.02 15 C4.89 13.5, 5.9 12.05, 7.02 10.72 C8.13 9.39, 9.39 8.13, 10.72 7.02 C12.05 5.9, 13.5 4.89, 15 4.02 C16.5 3.15, 18.11 2.4, 19.74 1.81 C21.37 1.22, 23.08 0.76, 24.79 0.46 C26.5 0.15, 28.26 0, 30 0 C31.74 0, 33.5 0.15, 35.21 0.46 C36.92 0.76, 38.63 1.22, 40.26 1.81 C41.89 2.4, 43.5 3.15, 45 4.02 C46.5 4.89, 47.95 5.9, 49.28 7.02 C50.61 8.13, 51.87 9.39, 52.98 10.72 C54.1 12.05, 55.11 13.5, 55.98 15 C56.85 16.5, 57.6 18.11, 58.19 19.74 C58.78 21.37, 59.24 23.08, 59.54 24.79 C59.85 26.5, 59.92 29.13, 60 30 C60.08 30.87, 60.08 29.13, 60 30" stroke="none" stroke-width="0" fill="#ffffff"></path><path d="M60 30 C60 31.74, 59.85 33.5, 59.54 35.21 C59.24 36.92, 58.78 38.63, 58.19 40.26 C57.6 41.89, 56.85 43.5, 55.98 45 C55.11 46.5, 54.1 47.95, 52.98 49.28 C51.87 50.61, 50.61 51.87, 49.28 52.98 C47.95 54.1, 46.5 55.11, 45 55.98 C43.5 56.85, 41.89 57.6, 40.26 58.19 C38.63 58.78, 36.92 59.24, 35.21 59.54 C33.5 59.85, 31.74 60, 30 60 C28.26 60, 26.5 59.85, 24.79 59.54 C23.08 59.24, 21.37 58.78, 19.74 58.19 C18.11 57.6, 16.5 56.85, 15 55.98 C13.5 55.11, 12.05 54.1, 10.72 52.98 C9.39 51.87, 8.13 50.61, 7.02 49.28 C5.9 47.95, 4.89 46.5, 4.02 45 C3.15 43.5, 2.4 41.89, 1.81 40.26 C1.22 38.63, 0.76 36.92, 0.46 35.21 C0.15 33.5, 0 31.74, 0 30 C0 28.26, 0.15 26.5, 0.46 24.79 C0.76 23.08, 1.22 21.37, 1.81 19.74 C2.4 18.11, 3.15 16.5, 4.02 15 C4.89 13.5, 5.9 12.05, 7.02 10.72 C8.13 9.39, 9.39 8.13, 10.72 7.02 C12.05 5.9, 13.5 4.89, 15 4.02 C16.5 3.15, 18.11 2.4, 19.74 1.81 C21.37 1.22, 23.08 0.76, 24.79 0.46 C26.5 0.15, 28.26 0, 30 0 C31.74 0, 33.5 0.15, 35.21 0.46 C36.92 0.76, 38.63 1.22, 40.26 1.81 C41.89 2.4, 43.5 3.15, 45 4.02 C46.5 4.89, 47.95 5.9, 49.28 7.02 C50.61 8.13, 51.87 9.39, 52.98 10.72 C54.1 12.05, 55.11 13.5, 55.98 15 C56.85 16.5, 57.6 18.11, 58.19 19.74 C58.78 21.37, 59.24 23.08, 59.54 24.79 C59.85 26.5, 59.92 29.13, 60 30 C60.08 30.87, 60.08 29.13, 60 30" stroke="#000000" stroke-width="2" fill="none"></path></g><g stroke-linecap="round" transform="translate(402.56768028340184 364.9220054822026) rotate(0 100 50)"><path d="M25 0 L175 0 L180.86 0.39 L190.23 3.52 L193.75 6.25 L196.48 9.77 L199.61 19.14 L200 75 L199.61 80.86 L196.48 90.23 L193.75 93.75 L190.23 96.48 L185.94 98.44 L175 100 L25 100 L14.06 98.44 L9.77 96.48 L6.25 93.75 L3.52 90.23 L0.39 80.86 L0.39 19.14 L3.52 9.77 L6.25 6.25 L9.77 3.52 L14.06 1.56 L25 0" stroke="none" stroke-width="0" fill="#ffffff"></path><path d="M25 0 M25 0 C66.11 0, 107.23 0, 175 0 M25 0 C70.27 0, 115.53 0, 175 0 M175 0 C191.67 0, 200 8.33, 200 25 M175 0 C191.67 0, 200 8.33, 200 25 M200 25 C200 35.75, 200 46.51, 200 75 M200 25 C200 36.21, 200 47.42, 200 75 M200 75 C200 91.67, 191.67 100, 175 100 M200 75 C200 91.67, 191.67 100, 175 100 M175 100 C136.44 100, 97.87 100, 25 100 M175 100 C125.01 100, 75.01 100, 25 100 M25 100 C8.33 100, 0 91.67, 0 75 M25 100 C8.33 100, 0 91.67, 0 75 M0 75 C0 56.07, 0 37.13, 0 25 M0 75 C0 62.44, 0 49.87, 0 25 M0 25 C0 8.33, 8.33 0, 25 0 M0 25 C0 8.33, 8.33 0, 25 0" stroke="#000000" stroke-width="2" fill="none"></path></g><g stroke-linecap="round" transform="translate(720.6460277481847 383.9257221613698) rotate(0 30 30)"><path d="M60 30 C60 31.74, 59.85 33.5, 59.54 35.21 C59.24 36.92, 58.78 38.63, 58.19 40.26 C57.6 41.89, 56.85 43.5, 55.98 45 C55.11 46.5, 54.1 47.95, 52.98 49.28 C51.87 50.61, 50.61 51.87, 49.28 52.98 C47.95 54.1, 46.5 55.11, 45 55.98 C43.5 56.85, 41.89 57.6, 40.26 58.19 C38.63 58.78, 36.92 59.24, 35.21 59.54 C33.5 59.85, 31.74 60, 30 60 C28.26 60, 26.5 59.85, 24.79 59.54 C23.08 59.24, 21.37 58.78, 19.74 58.19 C18.11 57.6, 16.5 56.85, 15 55.98 C13.5 55.11, 12.05 54.1, 10.72 52.98 C9.39 51.87, 8.13 50.61, 7.02 49.28 C5.9 47.95, 4.89 46.5, 4.02 45 C3.15 43.5, 2.4 41.89, 1.81 40.26 C1.22 38.63, 0.76 36.92, 0.46 35.21 C0.15 33.5, 0 31.74, 0 30 C0 28.26, 0.15 26.5, 0.46 24.79 C0.76 23.08, 1.22 21.37, 1.81 19.74 C2.4 18.11, 3.15 16.5, 4.02 15 C4.89 13.5, 5.9 12.05, 7.02 10.72 C8.13 9.39, 9.39 8.13, 10.72 7.02 C12.05 5.9, 13.5 4.89, 15 4.02 C16.5 3.15, 18.11 2.4, 19.74 1.81 C21.37 1.22, 23.08 0.76, 24.79 0.46 C26.5 0.15, 28.26 0, 30 0 C31.74 0, 33.5 0.15, 35.21 0.46 C36.92 0.76, 38.63 1.22, 40.26 1.81 C41.89 2.4, 43.5 3.15, 45 4.02 C46.5 4.89, 47.95 5.9, 49.28 7.02 C50.61 8.13, 51.87 9.39, 52.98 10.72 C54.1 12.05, 55.11 13.5, 55.98 15 C56.85 16.5, 57.6 18.11, 58.19 19.74 C58.78 21.37, 59.24 23.08, 59.54 24.79 C59.85 26.5, 59.92 29.13, 60 30 C60.08 30.87, 60.08 29.13, 60 30" stroke="none" stroke-width="0" fill="#ffffff"></path><path d="M60 30 C60 31.74, 59.85 33.5, 59.54 35.21 C59.24 36.92, 58.78 38.63, 58.19 40.26 C57.6 41.89, 56.85 43.5, 55.98 45 C55.11 46.5, 54.1 47.95, 52.98 49.28 C51.87 50.61, 50.61 51.87, 49.28 52.98 C47.95 54.1, 46.5 55.11, 45 55.98 C43.5 56.85, 41.89 57.6, 40.26 58.19 C38.63 58.78, 36.92 59.24, 35.21 59.54 C33.5 59.85, 31.74 60, 30 60 C28.26 60, 26.5 59.85, 24.79 59.54 C23.08 59.24, 21.37 58.78, 19.74 58.19 C18.11 57.6, 16.5 56.85, 15 55.98 C13.5 55.11, 12.05 54.1, 10.72 52.98 C9.39 51.87, 8.13 50.61, 7.02 49.28 C5.9 47.95, 4.89 46.5, 4.02 45 C3.15 43.5, 2.4 41.89, 1.81 40.26 C1.22 38.63, 0.76 36.92, 0.46 35.21 C0.15 33.5, 0 31.74, 0 30 C0 28.26, 0.15 26.5, 0.46 24.79 C0.76 23.08, 1.22 21.37, 1.81 19.74 C2.4 18.11, 3.15 16.5, 4.02 15 C4.89 13.5, 5.9 12.05, 7.02 10.72 C8.13 9.39, 9.39 8.13, 10.72 7.02 C12.05 5.9, 13.5 4.89, 15 4.02 C16.5 3.15, 18.11 2.4, 19.74 1.81 C21.37 1.22, 23.08 0.76, 24.79 0.46 C26.5 0.15, 28.26 0, 30 0 C31.74 0, 33.5 0.15, 35.21 0.46 C36.92 0.76, 38.63 1.22, 40.26 1.81 C41.89 2.4, 43.5 3.15, 45 4.02 C46.5 4.89, 47.95 5.9, 49.28 7.02 C50.61 8.13, 51.87 9.39, 52.98 10.72 C54.1 12.05, 55.11 13.5, 55.98 15 C56.85 16.5, 57.6 18.11, 58.19 19.74 C58.78 21.37, 59.24 23.08, 59.54 24.79 C59.85 26.5, 59.92 29.13, 60 30 C60.08 30.87, 60.08 29.13, 60 30" stroke="#000000" stroke-width="2" fill="none"></path></g><g stroke-linecap="round" transform="translate(725.6460277481847 388.9257221613698) rotate(0 25 25)"><path d="M50 25 C50 26.45, 49.87 27.92, 49.62 29.34 C49.37 30.77, 48.99 32.19, 48.49 33.55 C48 34.91, 47.37 36.25, 46.65 37.5 C45.93 38.75, 45.08 39.96, 44.15 41.07 C43.22 42.18, 42.18 43.22, 41.07 44.15 C39.96 45.08, 38.75 45.93, 37.5 46.65 C36.25 47.37, 34.91 48, 33.55 48.49 C32.19 48.99, 30.77 49.37, 29.34 49.62 C27.92 49.87, 26.45 50, 25 50 C23.55 50, 22.08 49.87, 20.66 49.62 C19.23 49.37, 17.81 48.99, 16.45 48.49 C15.09 48, 13.75 47.37, 12.5 46.65 C11.25 45.93, 10.04 45.08, 8.93 44.15 C7.82 43.22, 6.78 42.18, 5.85 41.07 C4.92 39.96, 4.07 38.75, 3.35 37.5 C2.63 36.25, 2 34.91, 1.51 33.55 C1.01 32.19, 0.63 30.77, 0.38 29.34 C0.13 27.92, 0 26.45, 0 25 C0 23.55, 0.13 22.08, 0.38 20.66 C0.63 19.23, 1.01 17.81, 1.51 16.45 C2 15.09, 2.63 13.75, 3.35 12.5 C4.07 11.25, 4.92 10.04, 5.85 8.93 C6.78 7.82, 7.82 6.78, 8.93 5.85 C10.04 4.92, 11.25 4.07, 12.5 3.35 C13.75 2.63, 15.09 2, 16.45 1.51 C17.81 1.01, 19.23 0.63, 20.66 0.38 C22.08 0.13, 23.55 0, 25 0 C26.45 0, 27.92 0.13, 29.34 0.38 C30.77 0.63, 32.19 1.01, 33.55 1.51 C34.91 2, 36.25 2.63, 37.5 3.35 C38.75 4.07, 39.96 4.92, 41.07 5.85 C42.18 6.78, 43.22 7.82, 44.15 8.93 C45.08 10.04, 45.93 11.25, 46.65 12.5 C47.37 13.75, 48 15.09, 48.49 16.45 C48.99 17.81, 49.37 19.23, 49.62 20.66 C49.87 22.08, 49.94 24.28, 50 25 C50.06 25.72, 50.06 24.28, 50 25" stroke="none" stroke-width="0" fill="#ffffff"></path><path d="M50 25 C50 26.45, 49.87 27.92, 49.62 29.34 C49.37 30.77, 48.99 32.19, 48.49 33.55 C48 34.91, 47.37 36.25, 46.65 37.5 C45.93 38.75, 45.08 39.96, 44.15 41.07 C43.22 42.18, 42.18 43.22, 41.07 44.15 C39.96 45.08, 38.75 45.93, 37.5 46.65 C36.25 47.37, 34.91 48, 33.55 48.49 C32.19 48.99, 30.77 49.37, 29.34 49.62 C27.92 49.87, 26.45 50, 25 50 C23.55 50, 22.08 49.87, 20.66 49.62 C19.23 49.37, 17.81 48.99, 16.45 48.49 C15.09 48, 13.75 47.37, 12.5 46.65 C11.25 45.93, 10.04 45.08, 8.93 44.15 C7.82 43.22, 6.78 42.18, 5.85 41.07 C4.92 39.96, 4.07 38.75, 3.35 37.5 C2.63 36.25, 2 34.91, 1.51 33.55 C1.01 32.19, 0.63 30.77, 0.38 29.34 C0.13 27.92, 0 26.45, 0 25 C0 23.55, 0.13 22.08, 0.38 20.66 C0.63 19.23, 1.01 17.81, 1.51 16.45 C2 15.09, 2.63 13.75, 3.35 12.5 C4.07 11.25, 4.92 10.04, 5.85 8.93 C6.78 7.82, 7.82 6.78, 8.93 5.85 C10.04 4.92, 11.25 4.07, 12.5 3.35 C13.75 2.63, 15.09 2, 16.45 1.51 C17.81 1.01, 19.23 0.63, 20.66 0.38 C22.08 0.13, 23.55 0, 25 0 C26.45 0, 27.92 0.13, 29.34 0.38 C30.77 0.63, 32.19 1.01, 33.55 1.51 C34.91 2, 36.25 2.63, 37.5 3.35 C38.75 4.07, 39.96 4.92, 41.07 5.85 C42.18 6.78, 43.22 7.82, 44.15 8.93 C45.08 10.04, 45.93 11.25, 46.65 12.5 C47.37 13.75, 48 15.09, 48.49 16.45 C48.99 17.81, 49.37 19.23, 49.62 20.66 C49.87 22.08, 49.94 24.28, 50 25 C50.06 25.72, 50.06 24.28, 50 25" stroke="#000000" stroke-width="2" fill="none"></path></g><g stroke-linecap="round" transform="translate(735.6460277481849 403.9257221613698) rotate(0 15 10)"><path d="M0 0 L30 0 L30 20 L0 20" stroke="none" stroke-width="0" fill="#ffffff"></path><path d="M0 0 C8.97 0, 17.94 0, 30 0 M0 0 C9.41 0, 18.82 0, 30 0 M30 0 C30 5.05, 30 10.09, 30 20 M30 0 C30 5.92, 30 11.84, 30 20 M30 20 C22.18 20, 14.36 20, 0 20 M30 20 C18.06 20, 6.12 20, 0 20 M0 20 C0 13.34, 0 6.68, 0 0 M0 20 C0 12.27, 0 4.53, 0 0" stroke="#000000" stroke-width="2" fill="none"></path></g><g stroke-linecap="round"><g transform="translate(735.6460277481849 403.9257221613698) rotate(0 7.5 5)"><path d="M0 0 C2.5 1.67, 12.5 8.33, 15 10 M0 0 C2.5 1.67, 12.5 8.33, 15 10" stroke="#000000" stroke-width="2" fill="none"></path></g></g><mask></mask><g stroke-linecap="round"><g transform="translate(750.6460277481849 413.9257221613698) rotate(0 7.5 -5)"><path d="M0 0 C2.5 -1.67, 12.5 -8.33, 15 -10 M0 0 C2.5 -1.67, 12.5 -8.33, 15 -10" stroke="#000000" stroke-width="2" fill="none"></path></g></g><mask></mask><g stroke-linecap="round" transform="translate(1205.3452744593096 386.41639245768056) rotate(0 30 30)"><path d="M60 30 C60 31.74, 59.85 33.5, 59.54 35.21 C59.24 36.92, 58.78 38.63, 58.19 40.26 C57.6 41.89, 56.85 43.5, 55.98 45 C55.11 46.5, 54.1 47.95, 52.98 49.28 C51.87 50.61, 50.61 51.87, 49.28 52.98 C47.95 54.1, 46.5 55.11, 45 55.98 C43.5 56.85, 41.89 57.6, 40.26 58.19 C38.63 58.78, 36.92 59.24, 35.21 59.54 C33.5 59.85, 31.74 60, 30 60 C28.26 60, 26.5 59.85, 24.79 59.54 C23.08 59.24, 21.37 58.78, 19.74 58.19 C18.11 57.6, 16.5 56.85, 15 55.98 C13.5 55.11, 12.05 54.1, 10.72 52.98 C9.39 51.87, 8.13 50.61, 7.02 49.28 C5.9 47.95, 4.89 46.5, 4.02 45 C3.15 43.5, 2.4 41.89, 1.81 40.26 C1.22 38.63, 0.76 36.92, 0.46 35.21 C0.15 33.5, 0 31.74, 0 30 C0 28.26, 0.15 26.5, 0.46 24.79 C0.76 23.08, 1.22 21.37, 1.81 19.74 C2.4 18.11, 3.15 16.5, 4.02 15 C4.89 13.5, 5.9 12.05, 7.02 10.72 C8.13 9.39, 9.39 8.13, 10.72 7.02 C12.05 5.9, 13.5 4.89, 15 4.02 C16.5 3.15, 18.11 2.4, 19.74 1.81 C21.37 1.22, 23.08 0.76, 24.79 0.46 C26.5 0.15, 28.26 0, 30 0 C31.74 0, 33.5 0.15, 35.21 0.46 C36.92 0.76, 38.63 1.22, 40.26 1.81 C41.89 2.4, 43.5 3.15, 45 4.02 C46.5 4.89, 47.95 5.9, 49.28 7.02 C50.61 8.13, 51.87 9.39, 52.98 10.72 C54.1 12.05, 55.11 13.5, 55.98 15 C56.85 16.5, 57.6 18.11, 58.19 19.74 C58.78 21.37, 59.24 23.08, 59.54 24.79 C59.85 26.5, 59.92 29.13, 60 30 C60.08 30.87, 60.08 29.13, 60 30" stroke="none" stroke-width="0" fill="#ffffff"></path><path d="M60 30 C60 31.74, 59.85 33.5, 59.54 35.21 C59.24 36.92, 58.78 38.63, 58.19 40.26 C57.6 41.89, 56.85 43.5, 55.98 45 C55.11 46.5, 54.1 47.95, 52.98 49.28 C51.87 50.61, 50.61 51.87, 49.28 52.98 C47.95 54.1, 46.5 55.11, 45 55.98 C43.5 56.85, 41.89 57.6, 40.26 58.19 C38.63 58.78, 36.92 59.24, 35.21 59.54 C33.5 59.85, 31.74 60, 30 60 C28.26 60, 26.5 59.85, 24.79 59.54 C23.08 59.24, 21.37 58.78, 19.74 58.19 C18.11 57.6, 16.5 56.85, 15 55.98 C13.5 55.11, 12.05 54.1, 10.72 52.98 C9.39 51.87, 8.13 50.61, 7.02 49.28 C5.9 47.95, 4.89 46.5, 4.02 45 C3.15 43.5, 2.4 41.89, 1.81 40.26 C1.22 38.63, 0.76 36.92, 0.46 35.21 C0.15 33.5, 0 31.74, 0 30 C0 28.26, 0.15 26.5, 0.46 24.79 C0.76 23.08, 1.22 21.37, 1.81 19.74 C2.4 18.11, 3.15 16.5, 4.02 15 C4.89 13.5, 5.9 12.05, 7.02 10.72 C8.13 9.39, 9.39 8.13, 10.72 7.02 C12.05 5.9, 13.5 4.89, 15 4.02 C16.5 3.15, 18.11 2.4, 19.74 1.81 C21.37 1.22, 23.08 0.76, 24.79 0.46 C26.5 0.15, 28.26 0, 30 0 C31.74 0, 33.5 0.15, 35.21 0.46 C36.92 0.76, 38.63 1.22, 40.26 1.81 C41.89 2.4, 43.5 3.15, 45 4.02 C46.5 4.89, 47.95 5.9, 49.28 7.02 C50.61 8.13, 51.87 9.39, 52.98 10.72 C54.1 12.05, 55.11 13.5, 55.98 15 C56.85 16.5, 57.6 18.11, 58.19 19.74 C58.78 21.37, 59.24 23.08, 59.54 24.79 C59.85 26.5, 59.92 29.13, 60 30 C60.08 30.87, 60.08 29.13, 60 30" stroke="#000000" stroke-width="6" fill="none"></path></g><g stroke-linecap="round"><g transform="translate(289.2521052014499 416.2839693481228) rotate(0 57.341003044268746 0.3153013878732054)"><path d="M0 0 C19.11 0.11, 95.57 0.53, 114.68 0.63 M0 0 C19.11 0.11, 95.57 0.53, 114.68 0.63" stroke="#000000" stroke-width="2" fill="none"></path></g><g transform="translate(289.2521052014499 416.2839693481228) rotate(0 57.341003044268746 0.3153013878732054)"><path d="M114.68 0.63 L101.05 6.9 L101.12 -5.78 L114.68 0.63" stroke="none" stroke-width="0" fill="#000000" fill-rule="evenodd"></path><path d="M114.68 0.63 C109.52 3.01, 104.35 5.38, 101.05 6.9 M114.68 0.63 C110.39 2.6, 106.09 4.58, 101.05 6.9 M101.05 6.9 C101.07 3, 101.1 -0.89, 101.12 -5.78 M101.05 6.9 C101.08 2.42, 101.1 -2.06, 101.12 -5.78 M101.12 -5.78 C105.95 -3.5, 110.79 -1.21, 114.68 0.63 M101.12 -5.78 C104.15 -4.35, 107.18 -2.92, 114.68 0.63 M114.68 0.63 C114.68 0.63, 114.68 0.63, 114.68 0.63 M114.68 0.63 C114.68 0.63, 114.68 0.63, 114.68 0.63" stroke="#000000" stroke-width="2" fill="none"></path></g></g><mask></mask><g stroke-linecap="round"><g transform="translate(606.1827418925279 413.8085895749755) rotate(0 57.78530674110857 0.3906101443658372)"><path d="M0 0 C19.26 0.13, 96.31 0.65, 115.57 0.78 M0 0 C19.26 0.13, 96.31 0.65, 115.57 0.78" stroke="#000000" stroke-width="2" fill="none"></path></g><g transform="translate(606.1827418925279 413.8085895749755) rotate(0 57.78530674110857 0.3906101443658372)"><path d="M115.57 0.78 L101.93 7.03 L102.02 -5.65 L115.57 0.78" stroke="none" stroke-width="0" fill="#000000" fill-rule="evenodd"></path><path d="M115.57 0.78 C111.15 2.81, 106.72 4.84, 101.93 7.03 M115.57 0.78 C110.68 3.02, 105.79 5.26, 101.93 7.03 M101.93 7.03 C101.96 3.19, 101.99 -0.66, 102.02 -5.65 M101.93 7.03 C101.96 2.56, 101.99 -1.91, 102.02 -5.65 M102.02 -5.65 C105.73 -3.89, 109.45 -2.12, 115.57 0.78 M102.02 -5.65 C107.3 -3.15, 112.57 -0.64, 115.57 0.78 M115.57 0.78 C115.57 0.78, 115.57 0.78, 115.57 0.78 M115.57 0.78 C115.57 0.78, 115.57 0.78, 115.57 0.78" stroke="#000000" stroke-width="2" fill="none"></path></g></g><mask></mask><g stroke-linecap="round"><g transform="translate(783.6140093495876 415.7089657763663) rotate(0 51.26433917760494 0.10495757540934392)"><path d="M0 0 C17.09 0.03, 85.44 0.17, 102.53 0.21 M0 0 C17.09 0.03, 85.44 0.17, 102.53 0.21" stroke="#000000" stroke-width="2" fill="none"></path></g><g transform="translate(783.6140093495876 415.7089657763663) rotate(0 51.26433917760494 0.10495757540934392)"><path d="M102.53 0.21 L88.92 6.52 L88.95 -6.16 L102.53 0.21" stroke="none" stroke-width="0" fill="#000000" fill-rule="evenodd"></path><path d="M102.53 0.21 C99.11 1.8, 95.68 3.38, 88.92 6.52 M102.53 0.21 C98.3 2.17, 94.08 4.13, 88.92 6.52 M88.92 6.52 C88.93 2.55, 88.94 -1.41, 88.95 -6.16 M88.92 6.52 C88.93 2.58, 88.94 -1.35, 88.95 -6.16 M88.95 -6.16 C93.73 -3.92, 98.51 -1.67, 102.53 0.21 M88.95 -6.16 C93.3 -4.12, 97.66 -2.07, 102.53 0.21 M102.53 0.21 C102.53 0.21, 102.53 0.21, 102.53 0.21 M102.53 0.21 C102.53 0.21, 102.53 0.21, 102.53 0.21" stroke="#000000" stroke-width="2" fill="none"></path></g></g><mask></mask><g stroke-linecap="round" transform="translate(890.5048667901183 361.9330795081569) rotate(0 100 50)"><path d="M25 0 L175 0 L180.86 0.39 L190.23 3.52 L193.75 6.25 L196.48 9.77 L199.61 19.14 L200 75 L199.61 80.86 L196.48 90.23 L193.75 93.75 L190.23 96.48 L185.94 98.44 L175 100 L25 100 L14.06 98.44 L9.77 96.48 L6.25 93.75 L3.52 90.23 L0.39 80.86 L0.39 19.14 L3.52 9.77 L6.25 6.25 L9.77 3.52 L14.06 1.56 L25 0" stroke="none" stroke-width="0" fill="#ffffff"></path><path d="M25 0 M25 0 C58.49 0, 91.98 0, 175 0 M25 0 C74.95 0, 124.91 0, 175 0 M175 0 C191.67 0, 200 8.33, 200 25 M175 0 C191.67 0, 200 8.33, 200 25 M200 25 C200 43.53, 200 62.07, 200 75 M200 25 C200 35.15, 200 45.29, 200 75 M200 75 C200 91.67, 191.67 100, 175 100 M200 75 C200 91.67, 191.67 100, 175 100 M175 100 C144.86 100, 114.71 100, 25 100 M175 100 C124.83 100, 74.66 100, 25 100 M25 100 C8.33 100, 0 91.67, 0 75 M25 100 C8.33 100, 0 91.67, 0 75 M0 75 C0 56.33, 0 37.66, 0 25 M0 75 C0 58.57, 0 42.13, 0 25 M0 25 C0 8.33, 8.33 0, 25 0 M0 25 C0 8.33, 8.33 0, 25 0" stroke="#000000" stroke-width="2" fill="none"></path></g><g stroke-linecap="round"><g transform="translate(1092.3765276022195 415.9181937332414) rotate(0 54.298239272262435 0.000036106649531575385)"><path d="M0 0 C18.1 0, 90.5 0, 108.6 0 M0 0 C18.1 0, 90.5 0, 108.6 0" stroke="#000000" stroke-width="2" fill="none"></path></g><g transform="translate(1092.3765276022195 415.9181937332414) rotate(0 54.298239272262435 0.000036106649531575385)"><path d="M108.6 0 L95 6.34 L95 -6.34 L108.6 0" stroke="none" stroke-width="0" fill="#000000" fill-rule="evenodd"></path><path d="M108.6 0 C104.86 1.74, 101.13 3.48, 95 6.34 M108.6 0 C104.51 1.9, 100.43 3.81, 95 6.34 M95 6.34 C95 3.15, 95 -0.05, 95 -6.34 M95 6.34 C95 3.54, 95 0.74, 95 -6.34 M95 -6.34 C100.04 -3.99, 105.08 -1.64, 108.6 0 M95 -6.34 C99.34 -4.32, 103.68 -2.29, 108.6 0 M108.6 0 C108.6 0, 108.6 0, 108.6 0 M108.6 0 C108.6 0, 108.6 0, 108.6 0" stroke="#000000" stroke-width="2" fill="none"></path></g></g><mask></mask><g stroke-linecap="round" transform="translate(239.54041115451946 418.47547668317384) rotate(0 30 30)"><path d="M60 30 C60 31.74, 59.85 33.5, 59.54 35.21 C59.24 36.92, 58.78 38.63, 58.19 40.26 C57.6 41.89, 56.85 43.5, 55.98 45 C55.11 46.5, 54.1 47.95, 52.98 49.28 C51.87 50.61, 50.61 51.87, 49.28 52.98 C47.95 54.1, 46.5 55.11, 45 55.98 C43.5 56.85, 41.89 57.6, 40.26 58.19 C38.63 58.78, 36.92 59.24, 35.21 59.54 C33.5 59.85, 31.74 60, 30 60 C28.26 60, 26.5 59.85, 24.79 59.54 C23.08 59.24, 21.37 58.78, 19.74 58.19 C18.11 57.6, 16.5 56.85, 15 55.98 C13.5 55.11, 12.05 54.1, 10.72 52.98 C9.39 51.87, 8.13 50.61, 7.02 49.28 C5.9 47.95, 4.89 46.5, 4.02 45 C3.15 43.5, 2.4 41.89, 1.81 40.26 C1.22 38.63, 0.76 36.92, 0.46 35.21 C0.15 33.5, 0 31.74, 0 30 C0 28.26, 0.15 26.5, 0.46 24.79 C0.76 23.08, 1.22 21.37, 1.81 19.74 C2.4 18.11, 3.15 16.5, 4.02 15 C4.89 13.5, 5.9 12.05, 7.02 10.72 C8.13 9.39, 9.39 8.13, 10.72 7.02 C12.05 5.9, 13.5 4.89, 15 4.02 C16.5 3.15, 18.11 2.4, 19.74 1.81 C21.37 1.22, 23.08 0.76, 24.79 0.46 C26.5 0.15, 28.26 0, 30 0 C31.74 0, 33.5 0.15, 35.21 0.46 C36.92 0.76, 38.63 1.22, 40.26 1.81 C41.89 2.4, 43.5 3.15, 45 4.02 C46.5 4.89, 47.95 5.9, 49.28 7.02 C50.61 8.13, 51.87 9.39, 52.98 10.72 C54.1 12.05, 55.11 13.5, 55.98 15 C56.85 16.5, 57.6 18.11, 58.19 19.74 C58.78 21.37, 59.24 23.08, 59.54 24.79 C59.85 26.5, 59.92 29.13, 60 30 C60.08 30.87, 60.08 29.13, 60 30" stroke="none" stroke-width="0" fill="#ffffff"></path><path d="M60 30 C60 31.74, 59.85 33.5, 59.54 35.21 C59.24 36.92, 58.78 38.63, 58.19 40.26 C57.6 41.89, 56.85 43.5, 55.98 45 C55.11 46.5, 54.1 47.95, 52.98 49.28 C51.87 50.61, 50.61 51.87, 49.28 52.98 C47.95 54.1, 46.5 55.11, 45 55.98 C43.5 56.85, 41.89 57.6, 40.26 58.19 C38.63 58.78, 36.92 59.24, 35.21 59.54 C33.5 59.85, 31.74 60, 30 60 C28.26 60, 26.5 59.85, 24.79 59.54 C23.08 59.24, 21.37 58.78, 19.74 58.19 C18.11 57.6, 16.5 56.85, 15 55.98 C13.5 55.11, 12.05 54.1, 10.72 52.98 C9.39 51.87, 8.13 50.61, 7.02 49.28 C5.9 47.95, 4.89 46.5, 4.02 45 C3.15 43.5, 2.4 41.89, 1.81 40.26 C1.22 38.63, 0.76 36.92, 0.46 35.21 C0.15 33.5, 0 31.74, 0 30 C0 28.26, 0.15 26.5, 0.46 24.79 C0.76 23.08, 1.22 21.37, 1.81 19.74 C2.4 18.11, 3.15 16.5, 4.02 15 C4.89 13.5, 5.9 12.05, 7.02 10.72 C8.13 9.39, 9.39 8.13, 10.72 7.02 C12.05 5.9, 13.5 4.89, 15 4.02 C16.5 3.15, 18.11 2.4, 19.74 1.81 C21.37 1.22, 23.08 0.76, 24.79 0.46 C26.5 0.15, 28.26 0, 30 0 C31.74 0, 33.5 0.15, 35.21 0.46 C36.92 0.76, 38.63 1.22, 40.26 1.81 C41.89 2.4, 43.5 3.15, 45 4.02 C46.5 4.89, 47.95 5.9, 49.28 7.02 C50.61 8.13, 51.87 9.39, 52.98 10.72 C54.1 12.05, 55.11 13.5, 55.98 15 C56.85 16.5, 57.6 18.11, 58.19 19.74 C58.78 21.37, 59.24 23.08, 59.54 24.79 C59.85 26.5, 59.92 29.13, 60 30 C60.08 30.87, 60.08 29.13, 60 30" stroke="#000000" stroke-width="2" fill="none"></path></g><g stroke-linecap="round" transform="translate(416.62247529847036 400.4681953479312) rotate(0 100 50)"><path d="M25 0 L175 0 L180.86 0.39 L190.23 3.52 L193.75 6.25 L196.48 9.77 L199.61 19.14 L200 75 L199.61 80.86 L196.48 90.23 L193.75 93.75 L190.23 96.48 L185.94 98.44 L175 100 L25 100 L14.06 98.44 L9.77 96.48 L6.25 93.75 L3.52 90.23 L0.39 80.86 L0.39 19.14 L3.52 9.77 L6.25 6.25 L9.77 3.52 L14.06 1.56 L25 0" stroke="none" stroke-width="0" fill="#ffffff"></path><path d="M25 0 M25 0 C84.57 0, 144.13 0, 175 0 M25 0 C83.97 0, 142.95 0, 175 0 M175 0 C191.67 0, 200 8.33, 200 25 M175 0 C191.67 0, 200 8.33, 200 25 M200 25 C200 40.55, 200 56.1, 200 75 M200 25 C200 35.15, 200 45.3, 200 75 M200 75 C200 91.67, 191.67 100, 175 100 M200 75 C200 91.67, 191.67 100, 175 100 M175 100 C125.7 100, 76.4 100, 25 100 M175 100 C126.22 100, 77.45 100, 25 100 M25 100 C8.33 100, 0 91.67, 0 75 M25 100 C8.33 100, 0 91.67, 0 75 M0 75 C0 64.46, 0 53.92, 0 25 M0 75 C0 55.34, 0 35.68, 0 25 M0 25 C0 8.33, 8.33 0, 25 0 M0 25 C0 8.33, 8.33 0, 25 0" stroke="#000000" stroke-width="2" fill="none"></path></g><g transform="translate(447.0925070367516 440.4681953479312) rotate(0 63.719940185546875 12.5)"><text x="63.719940185546875" y="0" font-family="Virgil, Segoe UI Emoji" font-size="20px" fill="#000000" text-anchor="middle" style="white-space: pre;" direction="ltr" dominant-baseline="text-before-edge">send request</text></g><g stroke-linecap="round" transform="translate(733.3482871727749 417.34650843294185) rotate(0 30 30)"><path d="M60 30 C60 31.74, 59.85 33.5, 59.54 35.21 C59.24 36.92, 58.78 38.63, 58.19 40.26 C57.6 41.89, 56.85 43.5, 55.98 45 C55.11 46.5, 54.1 47.95, 52.98 49.28 C51.87 50.61, 50.61 51.87, 49.28 52.98 C47.95 54.1, 46.5 55.11, 45 55.98 C43.5 56.85, 41.89 57.6, 40.26 58.19 C38.63 58.78, 36.92 59.24, 35.21 59.54 C33.5 59.85, 31.74 60, 30 60 C28.26 60, 26.5 59.85, 24.79 59.54 C23.08 59.24, 21.37 58.78, 19.74 58.19 C18.11 57.6, 16.5 56.85, 15 55.98 C13.5 55.11, 12.05 54.1, 10.72 52.98 C9.39 51.87, 8.13 50.61, 7.02 49.28 C5.9 47.95, 4.89 46.5, 4.02 45 C3.15 43.5, 2.4 41.89, 1.81 40.26 C1.22 38.63, 0.76 36.92, 0.46 35.21 C0.15 33.5, 0 31.74, 0 30 C0 28.26, 0.15 26.5, 0.46 24.79 C0.76 23.08, 1.22 21.37, 1.81 19.74 C2.4 18.11, 3.15 16.5, 4.02 15 C4.89 13.5, 5.9 12.05, 7.02 10.72 C8.13 9.39, 9.39 8.13, 10.72 7.02 C12.05 5.9, 13.5 4.89, 15 4.02 C16.5 3.15, 18.11 2.4, 19.74 1.81 C21.37 1.22, 23.08 0.76, 24.79 0.46 C26.5 0.15, 28.26 0, 30 0 C31.74 0, 33.5 0.15, 35.21 0.46 C36.92 0.76, 38.63 1.22, 40.26 1.81 C41.89 2.4, 43.5 3.15, 45 4.02 C46.5 4.89, 47.95 5.9, 49.28 7.02 C50.61 8.13, 51.87 9.39, 52.98 10.72 C54.1 12.05, 55.11 13.5, 55.98 15 C56.85 16.5, 57.6 18.11, 58.19 19.74 C58.78 21.37, 59.24 23.08, 59.54 24.79 C59.85 26.5, 59.92 29.13, 60 30 C60.08 30.87, 60.08 29.13, 60 30" stroke="none" stroke-width="0" fill="#ffffff"></path><path d="M60 30 C60 31.74, 59.85 33.5, 59.54 35.21 C59.24 36.92, 58.78 38.63, 58.19 40.26 C57.6 41.89, 56.85 43.5, 55.98 45 C55.11 46.5, 54.1 47.95, 52.98 49.28 C51.87 50.61, 50.61 51.87, 49.28 52.98 C47.95 54.1, 46.5 55.11, 45 55.98 C43.5 56.85, 41.89 57.6, 40.26 58.19 C38.63 58.78, 36.92 59.24, 35.21 59.54 C33.5 59.85, 31.74 60, 30 60 C28.26 60, 26.5 59.85, 24.79 59.54 C23.08 59.24, 21.37 58.78, 19.74 58.19 C18.11 57.6, 16.5 56.85, 15 55.98 C13.5 55.11, 12.05 54.1, 10.72 52.98 C9.39 51.87, 8.13 50.61, 7.02 49.28 C5.9 47.95, 4.89 46.5, 4.02 45 C3.15 43.5, 2.4 41.89, 1.81 40.26 C1.22 38.63, 0.76 36.92, 0.46 35.21 C0.15 33.5, 0 31.74, 0 30 C0 28.26, 0.15 26.5, 0.46 24.79 C0.76 23.08, 1.22 21.37, 1.81 19.74 C2.4 18.11, 3.15 16.5, 4.02 15 C4.89 13.5, 5.9 12.05, 7.02 10.72 C8.13 9.39, 9.39 8.13, 10.72 7.02 C12.05 5.9, 13.5 4.89, 15 4.02 C16.5 3.15, 18.11 2.4, 19.74 1.81 C21.37 1.22, 23.08 0.76, 24.79 0.46 C26.5 0.15, 28.26 0, 30 0 C31.74 0, 33.5 0.15, 35.21 0.46 C36.92 0.76, 38.63 1.22, 40.26 1.81 C41.89 2.4, 43.5 3.15, 45 4.02 C46.5 4.89, 47.95 5.9, 49.28 7.02 C50.61 8.13, 51.87 9.39, 52.98 10.72 C54.1 12.05, 55.11 13.5, 55.98 15 C56.85 16.5, 57.6 18.11, 58.19 19.74 C58.78 21.37, 59.24 23.08, 59.54 24.79 C59.85 26.5, 59.92 29.13, 60 30 C60.08 30.87, 60.08 29.13, 60 30" stroke="#000000" stroke-width="2" fill="none"></path></g><g stroke-linecap="round" transform="translate(738.3482871727749 422.34650843294185) rotate(0 25 25)"><path d="M50 25 C50 26.45, 49.87 27.92, 49.62 29.34 C49.37 30.77, 48.99 32.19, 48.49 33.55 C48 34.91, 47.37 36.25, 46.65 37.5 C45.93 38.75, 45.08 39.96, 44.15 41.07 C43.22 42.18, 42.18 43.22, 41.07 44.15 C39.96 45.08, 38.75 45.93, 37.5 46.65 C36.25 47.37, 34.91 48, 33.55 48.49 C32.19 48.99, 30.77 49.37, 29.34 49.62 C27.92 49.87, 26.45 50, 25 50 C23.55 50, 22.08 49.87, 20.66 49.62 C19.23 49.37, 17.81 48.99, 16.45 48.49 C15.09 48, 13.75 47.37, 12.5 46.65 C11.25 45.93, 10.04 45.08, 8.93 44.15 C7.82 43.22, 6.78 42.18, 5.85 41.07 C4.92 39.96, 4.07 38.75, 3.35 37.5 C2.63 36.25, 2 34.91, 1.51 33.55 C1.01 32.19, 0.63 30.77, 0.38 29.34 C0.13 27.92, 0 26.45, 0 25 C0 23.55, 0.13 22.08, 0.38 20.66 C0.63 19.23, 1.01 17.81, 1.51 16.45 C2 15.09, 2.63 13.75, 3.35 12.5 C4.07 11.25, 4.92 10.04, 5.85 8.93 C6.78 7.82, 7.82 6.78, 8.93 5.85 C10.04 4.92, 11.25 4.07, 12.5 3.35 C13.75 2.63, 15.09 2, 16.45 1.51 C17.81 1.01, 19.23 0.63, 20.66 0.38 C22.08 0.13, 23.55 0, 25 0 C26.45 0, 27.92 0.13, 29.34 0.38 C30.77 0.63, 32.19 1.01, 33.55 1.51 C34.91 2, 36.25 2.63, 37.5 3.35 C38.75 4.07, 39.96 4.92, 41.07 5.85 C42.18 6.78, 43.22 7.82, 44.15 8.93 C45.08 10.04, 45.93 11.25, 46.65 12.5 C47.37 13.75, 48 15.09, 48.49 16.45 C48.99 17.81, 49.37 19.23, 49.62 20.66 C49.87 22.08, 49.94 24.28, 50 25 C50.06 25.72, 50.06 24.28, 50 25" stroke="none" stroke-width="0" fill="#ffffff"></path><path d="M50 25 C50 26.45, 49.87 27.92, 49.62 29.34 C49.37 30.77, 48.99 32.19, 48.49 33.55 C48 34.91, 47.37 36.25, 46.65 37.5 C45.93 38.75, 45.08 39.96, 44.15 41.07 C43.22 42.18, 42.18 43.22, 41.07 44.15 C39.96 45.08, 38.75 45.93, 37.5 46.65 C36.25 47.37, 34.91 48, 33.55 48.49 C32.19 48.99, 30.77 49.37, 29.34 49.62 C27.92 49.87, 26.45 50, 25 50 C23.55 50, 22.08 49.87, 20.66 49.62 C19.23 49.37, 17.81 48.99, 16.45 48.49 C15.09 48, 13.75 47.37, 12.5 46.65 C11.25 45.93, 10.04 45.08, 8.93 44.15 C7.82 43.22, 6.78 42.18, 5.85 41.07 C4.92 39.96, 4.07 38.75, 3.35 37.5 C2.63 36.25, 2 34.91, 1.51 33.55 C1.01 32.19, 0.63 30.77, 0.38 29.34 C0.13 27.92, 0 26.45, 0 25 C0 23.55, 0.13 22.08, 0.38 20.66 C0.63 19.23, 1.01 17.81, 1.51 16.45 C2 15.09, 2.63 13.75, 3.35 12.5 C4.07 11.25, 4.92 10.04, 5.85 8.93 C6.78 7.82, 7.82 6.78, 8.93 5.85 C10.04 4.92, 11.25 4.07, 12.5 3.35 C13.75 2.63, 15.09 2, 16.45 1.51 C17.81 1.01, 19.23 0.63, 20.66 0.38 C22.08 0.13, 23.55 0, 25 0 C26.45 0, 27.92 0.13, 29.34 0.38 C30.77 0.63, 32.19 1.01, 33.55 1.51 C34.91 2, 36.25 2.63, 37.5 3.35 C38.75 4.07, 39.96 4.92, 41.07 5.85 C42.18 6.78, 43.22 7.82, 44.15 8.93 C45.08 10.04, 45.93 11.25, 46.65 12.5 C47.37 13.75, 48 15.09, 48.49 16.45 C48.99 17.81, 49.37 19.23, 49.62 20.66 C49.87 22.08, 49.94 24.28, 50 25 C50.06 25.72, 50.06 24.28, 50 25" stroke="#000000" stroke-width="2" fill="none"></path></g><g stroke-linecap="round" transform="translate(748.3482871727749 437.34650843294185) rotate(0 15 10)"><path d="M0 0 L30 0 L30 20 L0 20" stroke="none" stroke-width="0" fill="#ffffff"></path><path d="M0 0 C9.45 0, 18.9 0, 30 0 M0 0 C11.45 0, 22.9 0, 30 0 M30 0 C30 4.67, 30 9.34, 30 20 M30 0 C30 6.44, 30 12.87, 30 20 M30 20 C20.55 20, 11.1 20, 0 20 M30 20 C18.21 20, 6.41 20, 0 20 M0 20 C0 12.25, 0 4.5, 0 0 M0 20 C0 15.94, 0 11.88, 0 0" stroke="#000000" stroke-width="2" fill="none"></path></g><g stroke-linecap="round"><g transform="translate(748.3482871727749 437.34650843294185) rotate(0 7.5 5)"><path d="M0 0 C2.5 1.67, 12.5 8.33, 15 10 M0 0 C2.5 1.67, 12.5 8.33, 15 10" stroke="#000000" stroke-width="2" fill="none"></path></g></g><mask></mask><g stroke-linecap="round"><g transform="translate(763.3482871727751 447.34650843294185) rotate(0 7.5 -5)"><path d="M0 0 C2.5 -1.67, 12.5 -8.33, 15 -10 M0 0 C2.5 -1.67, 12.5 -8.33, 15 -10" stroke="#000000" stroke-width="2" fill="none"></path></g></g><mask></mask><g stroke-linecap="round" transform="translate(1216.9809488545607 417.40774143034287) rotate(0 30 30)"><path d="M60 30 C60 31.74, 59.85 33.5, 59.54 35.21 C59.24 36.92, 58.78 38.63, 58.19 40.26 C57.6 41.89, 56.85 43.5, 55.98 45 C55.11 46.5, 54.1 47.95, 52.98 49.28 C51.87 50.61, 50.61 51.87, 49.28 52.98 C47.95 54.1, 46.5 55.11, 45 55.98 C43.5 56.85, 41.89 57.6, 40.26 58.19 C38.63 58.78, 36.92 59.24, 35.21 59.54 C33.5 59.85, 31.74 60, 30 60 C28.26 60, 26.5 59.85, 24.79 59.54 C23.08 59.24, 21.37 58.78, 19.74 58.19 C18.11 57.6, 16.5 56.85, 15 55.98 C13.5 55.11, 12.05 54.1, 10.72 52.98 C9.39 51.87, 8.13 50.61, 7.02 49.28 C5.9 47.95, 4.89 46.5, 4.02 45 C3.15 43.5, 2.4 41.89, 1.81 40.26 C1.22 38.63, 0.76 36.92, 0.46 35.21 C0.15 33.5, 0 31.74, 0 30 C0 28.26, 0.15 26.5, 0.46 24.79 C0.76 23.08, 1.22 21.37, 1.81 19.74 C2.4 18.11, 3.15 16.5, 4.02 15 C4.89 13.5, 5.9 12.05, 7.02 10.72 C8.13 9.39, 9.39 8.13, 10.72 7.02 C12.05 5.9, 13.5 4.89, 15 4.02 C16.5 3.15, 18.11 2.4, 19.74 1.81 C21.37 1.22, 23.08 0.76, 24.79 0.46 C26.5 0.15, 28.26 0, 30 0 C31.74 0, 33.5 0.15, 35.21 0.46 C36.92 0.76, 38.63 1.22, 40.26 1.81 C41.89 2.4, 43.5 3.15, 45 4.02 C46.5 4.89, 47.95 5.9, 49.28 7.02 C50.61 8.13, 51.87 9.39, 52.98 10.72 C54.1 12.05, 55.11 13.5, 55.98 15 C56.85 16.5, 57.6 18.11, 58.19 19.74 C58.78 21.37, 59.24 23.08, 59.54 24.79 C59.85 26.5, 59.92 29.13, 60 30 C60.08 30.87, 60.08 29.13, 60 30" stroke="none" stroke-width="0" fill="#ffffff"></path><path d="M60 30 C60 31.74, 59.85 33.5, 59.54 35.21 C59.24 36.92, 58.78 38.63, 58.19 40.26 C57.6 41.89, 56.85 43.5, 55.98 45 C55.11 46.5, 54.1 47.95, 52.98 49.28 C51.87 50.61, 50.61 51.87, 49.28 52.98 C47.95 54.1, 46.5 55.11, 45 55.98 C43.5 56.85, 41.89 57.6, 40.26 58.19 C38.63 58.78, 36.92 59.24, 35.21 59.54 C33.5 59.85, 31.74 60, 30 60 C28.26 60, 26.5 59.85, 24.79 59.54 C23.08 59.24, 21.37 58.78, 19.74 58.19 C18.11 57.6, 16.5 56.85, 15 55.98 C13.5 55.11, 12.05 54.1, 10.72 52.98 C9.39 51.87, 8.13 50.61, 7.02 49.28 C5.9 47.95, 4.89 46.5, 4.02 45 C3.15 43.5, 2.4 41.89, 1.81 40.26 C1.22 38.63, 0.76 36.92, 0.46 35.21 C0.15 33.5, 0 31.74, 0 30 C0 28.26, 0.15 26.5, 0.46 24.79 C0.76 23.08, 1.22 21.37, 1.81 19.74 C2.4 18.11, 3.15 16.5, 4.02 15 C4.89 13.5, 5.9 12.05, 7.02 10.72 C8.13 9.39, 9.39 8.13, 10.72 7.02 C12.05 5.9, 13.5 4.89, 15 4.02 C16.5 3.15, 18.11 2.4, 19.74 1.81 C21.37 1.22, 23.08 0.76, 24.79 0.46 C26.5 0.15, 28.26 0, 30 0 C31.74 0, 33.5 0.15, 35.21 0.46 C36.92 0.76, 38.63 1.22, 40.26 1.81 C41.89 2.4, 43.5 3.15, 45 4.02 C46.5 4.89, 47.95 5.9, 49.28 7.02 C50.61 8.13, 51.87 9.39, 52.98 10.72 C54.1 12.05, 55.11 13.5, 55.98 15 C56.85 16.5, 57.6 18.11, 58.19 19.74 C58.78 21.37, 59.24 23.08, 59.54 24.79 C59.85 26.5, 59.92 29.13, 60 30 C60.08 30.87, 60.08 29.13, 60 30" stroke="#000000" stroke-width="6" fill="none"></path></g><g stroke-linecap="round"><g transform="translate(303.346004707636 451.41001633654787) rotate(0 55.06727297280463 0.3286023406401455)"><path d="M0 0 C18.36 0.11, 91.78 0.55, 110.13 0.66 M0 0 C18.36 0.11, 91.78 0.55, 110.13 0.66" stroke="#000000" stroke-width="2" fill="none"></path></g><g transform="translate(303.346004707636 451.41001633654787) rotate(0 55.06727297280463 0.3286023406401455)"><path d="M110.13 0.66 L96.5 6.92 L96.58 -5.76 L110.13 0.66" stroke="none" stroke-width="0" fill="#000000" fill-rule="evenodd"></path><path d="M110.13 0.66 C105.66 2.71, 101.19 4.76, 96.5 6.92 M110.13 0.66 C106.88 2.15, 103.62 3.65, 96.5 6.92 M96.5 6.92 C96.53 2.79, 96.55 -1.34, 96.58 -5.76 M96.5 6.92 C96.53 3.03, 96.55 -0.86, 96.58 -5.76 M96.58 -5.76 C101.96 -3.21, 107.34 -0.66, 110.13 0.66 M96.58 -5.76 C99.68 -4.29, 102.78 -2.83, 110.13 0.66 M110.13 0.66 C110.13 0.66, 110.13 0.66, 110.13 0.66 M110.13 0.66 C110.13 0.66, 110.13 0.66, 110.13 0.66" stroke="#000000" stroke-width="2" fill="none"></path></g></g><mask></mask><g stroke-linecap="round"><g transform="translate(620.2375369075964 448.5649010799225) rotate(0 57.109038945869315 -0.1454063608305205)"><path d="M0 0 C19.04 -0.05, 95.18 -0.24, 114.22 -0.29 M0 0 C19.04 -0.05, 95.18 -0.24, 114.22 -0.29" stroke="#000000" stroke-width="2" fill="none"></path></g><g transform="translate(620.2375369075964 448.5649010799225) rotate(0 57.109038945869315 -0.1454063608305205)"><path d="M114.22 -0.29 L100.64 6.08 L100.61 -6.6 L114.22 -0.29" stroke="none" stroke-width="0" fill="#000000" fill-rule="evenodd"></path><path d="M114.22 -0.29 C110.14 1.62, 106.06 3.54, 100.64 6.08 M114.22 -0.29 C110.8 1.31, 107.38 2.92, 100.64 6.08 M100.64 6.08 C100.63 3.28, 100.63 0.48, 100.61 -6.6 M100.64 6.08 C100.63 1.39, 100.62 -3.31, 100.61 -6.6 M100.61 -6.6 C104.95 -4.58, 109.29 -2.57, 114.22 -0.29 M100.61 -6.6 C105.64 -4.26, 110.68 -1.93, 114.22 -0.29 M114.22 -0.29 C114.22 -0.29, 114.22 -0.29, 114.22 -0.29 M114.22 -0.29 C114.22 -0.29, 114.22 -0.29, 114.22 -0.29" stroke="#000000" stroke-width="2" fill="none"></path></g></g><mask></mask><g stroke-linecap="round"><g transform="translate(796.2972371280891 449.4523254960086) rotate(0 51.950122795888774 0.5741576570189864)"><path d="M0 0 C17.32 0.19, 86.58 0.96, 103.9 1.15 M0 0 C17.32 0.19, 86.58 0.96, 103.9 1.15" stroke="#000000" stroke-width="2" fill="none"></path></g><g transform="translate(796.2972371280891 449.4523254960086) rotate(0 51.950122795888774 0.5741576570189864)"><path d="M103.9 1.15 L90.24 7.34 L90.38 -5.34 L103.9 1.15" stroke="none" stroke-width="0" fill="#000000" fill-rule="evenodd"></path><path d="M103.9 1.15 C98.81 3.46, 93.71 5.76, 90.24 7.34 M103.9 1.15 C99.33 3.22, 94.77 5.28, 90.24 7.34 M90.24 7.34 C90.28 3.15, 90.33 -1.04, 90.38 -5.34 M90.24 7.34 C90.28 3.2, 90.33 -0.94, 90.38 -5.34 M90.38 -5.34 C94.61 -3.31, 98.84 -1.28, 103.9 1.15 M90.38 -5.34 C93.56 -3.81, 96.74 -2.29, 103.9 1.15 M103.9 1.15 C103.9 1.15, 103.9 1.15, 103.9 1.15 M103.9 1.15 C103.9 1.15, 103.9 1.15, 103.9 1.15" stroke="#000000" stroke-width="2" fill="none"></path></g></g><mask></mask><g stroke-linecap="round" transform="translate(904.559661805187 397.4792693738855) rotate(0 99.99999999999989 50)"><path d="M25 0 L175 0 L180.86 0.39 L190.23 3.52 L193.75 6.25 L196.48 9.77 L199.61 19.14 L200 75 L199.61 80.86 L196.48 90.23 L193.75 93.75 L190.23 96.48 L185.94 98.44 L175 100 L25 100 L14.06 98.44 L9.77 96.48 L6.25 93.75 L3.52 90.23 L0.39 80.86 L0.39 19.14 L3.52 9.77 L6.25 6.25 L9.77 3.52 L14.06 1.56 L25 0" stroke="none" stroke-width="0" fill="#ffffff"></path><path d="M25 0 M25 0 C59.32 0, 93.63 0, 175 0 M25 0 C83.11 0, 141.22 0, 175 0 M175 0 C191.67 0, 200 8.33, 200 25 M175 0 C191.67 0, 200 8.33, 200 25 M200 25 C200 40.2, 200 55.41, 200 75 M200 25 C200 41.72, 200 58.45, 200 75 M200 75 C200 91.67, 191.67 100, 175 100 M200 75 C200 91.67, 191.67 100, 175 100 M175 100 C121.05 100, 67.1 100, 25 100 M175 100 C129.73 100, 84.46 100, 25 100 M25 100 C8.33 100, 0 91.67, 0 75 M25 100 C8.33 100, 0 91.67, 0 75 M0 75 C0 62.74, 0 50.48, 0 25 M0 75 C0 59.85, 0 44.7, 0 25 M0 25 C0 8.33, 8.33 0, 25 0 M0 25 C0 8.33, 8.33 0, 25 0" stroke="#000000" stroke-width="2" fill="none"></path></g><g transform="translate(957.5096816416124 424.9792693738855) rotate(0 41.23995208740246 25)"><text x="41.239952087402344" y="0" font-family="Virgil, Segoe UI Emoji" font-size="20px" fill="#000000" text-anchor="middle" style="white-space: pre;" direction="ltr" dominant-baseline="text-before-edge">process </text><text x="41.239952087402344" y="25" font-family="Virgil, Segoe UI Emoji" font-size="20px" fill="#000000" text-anchor="middle" style="white-space: pre;" direction="ltr" dominant-baseline="text-before-edge">response</text></g><g stroke-linecap="round"><g transform="translate(1106.4313226172862 449.67796429928694) rotate(0 53.0871070831829 -1.045663226904253)"><path d="M0 0 C17.7 -0.35, 88.48 -1.74, 106.17 -2.09 M0 0 C17.7 -0.35, 88.48 -1.74, 106.17 -2.09" stroke="#000000" stroke-width="2" fill="none"></path></g><g transform="translate(1106.4313226172862 449.67796429928694) rotate(0 53.0871070831829 -1.045663226904253)"><path d="M106.17 -2.09 L92.71 4.51 L92.46 -8.16 L106.17 -2.09" stroke="none" stroke-width="0" fill="#000000" fill-rule="evenodd"></path><path d="M106.17 -2.09 C101.97 -0.03, 97.76 2.03, 92.71 4.51 M106.17 -2.09 C100.97 0.46, 95.76 3.02, 92.71 4.51 M92.71 4.51 C92.63 0.48, 92.55 -3.55, 92.46 -8.16 M92.71 4.51 C92.63 0.69, 92.56 -3.14, 92.46 -8.16 M92.46 -8.16 C97 -6.15, 101.54 -4.14, 106.17 -2.09 M92.46 -8.16 C95.53 -6.8, 98.61 -5.44, 106.17 -2.09 M106.17 -2.09 C106.17 -2.09, 106.17 -2.09, 106.17 -2.09 M106.17 -2.09 C106.17 -2.09, 106.17 -2.09, 106.17 -2.09" stroke="#000000" stroke-width="2" fill="none"></path></g></g><mask></mask><g transform="translate(217.73288034995585 498.3089102245849) rotate(0 57.239967346191406 20)"><text x="0" y="0" font-family="Virgil, Segoe UI Emoji" font-size="16px" fill="#000000" text-anchor="start" style="white-space: pre;" direction="ltr" dominant-baseline="text-before-edge">message to be</text><text x="0" y="20" font-family="Virgil, Segoe UI Emoji" font-size="16px" fill="#000000" text-anchor="start" style="white-space: pre;" direction="ltr" dominant-baseline="text-before-edge"> processed</text></g><g transform="translate(1214.0312894751114 491.33492697875045) rotate(0 37.82396697998047 20)"><text x="0" y="0" font-family="Virgil, Segoe UI Emoji" font-size="16px" fill="#000000" text-anchor="start" style="white-space: pre;" direction="ltr" dominant-baseline="text-before-edge">message</text><text x="0" y="20" font-family="Virgil, Segoe UI Emoji" font-size="16px" fill="#000000" text-anchor="start" style="white-space: pre;" direction="ltr" dominant-baseline="text-before-edge">processed</text></g><g transform="translate(698.9450594266159 497.8015908835696) rotate(0 66.91996002197266 10)"><text x="0" y="0" font-family="Virgil, Segoe UI Emoji" font-size="16px" fill="#000000" text-anchor="start" style="white-space: pre;" direction="ltr" dominant-baseline="text-before-edge">message received</text></g><g transform="translate(26.05155042180195 267.0320456233271) rotate(0 86.32794189453125 10)"><text x="0" y="0" font-family="Virgil, Segoe UI Emoji" font-size="16px" fill="#000000" text-anchor="start" style="white-space: pre;" direction="ltr" dominant-baseline="text-before-edge">BPMN Process ID = 1</text></g><g transform="translate(43.559929499771215 408.0846450991903) rotate(0 72.22396087646484 10)"><text x="0" y="0" font-family="Virgil, Segoe UI Emoji" font-size="16px" fill="#000000" text-anchor="start" style="white-space: pre;" direction="ltr" dominant-baseline="text-before-edge">Process instance 1</text></g><g transform="translate(42.11985778960411 443.56567283687446) rotate(0 75.75196075439453 10)"><text x="0" y="0" font-family="Virgil, Segoe UI Emoji" font-size="16px" fill="#000000" text-anchor="start" style="white-space: pre;" direction="ltr" dominant-baseline="text-before-edge">Process instance 2</text></g><g stroke-opacity="0.8" fill-opacity="0.8" stroke-linecap="round" transform="translate(22.018999743831046 305.5571921973251) rotate(0 640.8867291609906 142.72368841926414)"><path d="M32 0 M32 0 C338.75 0, 645.5 0, 1249.77 0 M1249.77 0 C1271.11 0, 1281.77 10.67, 1281.77 32 M1281.77 32 C1281.77 80.92, 1281.77 129.84, 1281.77 253.45 M1281.77 253.45 C1281.77 274.78, 1271.11 285.45, 1249.77 285.45 M1249.77 285.45 C798.57 285.45, 347.36 285.45, 32 285.45 M32 285.45 C10.67 285.45, 0 274.78, 0 253.45 M0 253.45 C0 182.8, 0 112.15, 0 32 M0 32 C0 10.67, 10.67 0, 32 0" stroke="#5c940d" stroke-width="1.5" fill="none" stroke-dasharray="8 9"></path></g><g stroke-linecap="round" transform="translate(709.1217592832611 67.15402100692063) rotate(0 23.00722921624265 15.338152810828433)"><path d="M0 0 L46.01 0 L46.01 30.68 L0 30.68" stroke="none" stroke-width="0" fill="#ffffff"></path><path d="M0 0 C15.37 0, 30.75 0, 46.01 0 M0 0 C15.21 0, 30.41 0, 46.01 0 M46.01 0 C46.01 10.02, 46.01 20.03, 46.01 30.68 M46.01 0 C46.01 9.6, 46.01 19.2, 46.01 30.68 M46.01 30.68 C35.18 30.68, 24.35 30.68, 0 30.68 M46.01 30.68 C30.23 30.68, 14.44 30.68, 0 30.68 M0 30.68 C0 19.32, 0 7.95, 0 0 M0 30.68 C0 19.78, 0 8.88, 0 0" stroke="#000000" stroke-width="2" fill="none"></path></g><g stroke-linecap="round"><g transform="translate(709.1217592832611 67.15402100692063) rotate(0 11.503614608121325 7.669076405414216)"><path d="M0 0 C3.83 2.56, 19.17 12.78, 23.01 15.34 M0 0 C3.83 2.56, 19.17 12.78, 23.01 15.34" stroke="#000000" stroke-width="2" fill="none"></path></g></g><mask></mask><g stroke-linecap="round"><g transform="translate(732.1289884995033 82.49217381774906) rotate(0 11.503614608121325 -7.669076405414216)"><path d="M0 0 C3.83 -2.56, 19.17 -12.78, 23.01 -15.34 M0 0 C3.83 -2.56, 19.17 -12.78, 23.01 -15.34" stroke="#000000" stroke-width="2" fill="none"></path></g></g><mask></mask><g stroke-linecap="round"><g transform="translate(730.5492666898444 376.1720549636116) rotate(0 -1.6387282401996117 -122.87168454636662)"><path d="M0 0 C-0.55 -40.96, -2.73 -204.79, -3.28 -245.74" stroke="#000000" stroke-width="1.5" fill="none" stroke-dasharray="8 9"></path></g><g transform="translate(730.5492666898444 376.1720549636116) rotate(0 -1.6387282401996117 -122.87168454636662)"><path d="M7.36 -217.69 C3.24 -228.54, -0.87 -239.39, -3.28 -245.74" stroke="#000000" stroke-width="1.5" fill="none"></path></g><g transform="translate(730.5492666898444 376.1720549636116) rotate(0 -1.6387282401996117 -122.87168454636662)"><path d="M-13.16 -217.42 C-9.34 -228.37, -5.52 -239.33, -3.28 -245.74" stroke="#000000" stroke-width="1.5" fill="none"></path></g></g><mask></mask><g transform="translate(585.9170514320615 198.9706705936378) rotate(0 57.60797119140625 20)"><text x="0" y="0" font-family="Virgil, Segoe UI Emoji" font-size="16px" fill="#000000" text-anchor="start" style="white-space: pre;" direction="ltr" dominant-baseline="text-before-edge">subscribe with</text><text x="0" y="20" font-family="Virgil, Segoe UI Emoji" font-size="16px" fill="#000000" text-anchor="start" style="white-space: pre;" direction="ltr" dominant-baseline="text-before-edge">correlation key</text></g><g stroke-opacity="0.2" fill-opacity="0.2" stroke-linecap="round" transform="translate(617.3053019896845 36.90430727186276) rotate(0 129.3968534578305 44.84048361095893)"><path d="M22.42 0 M22.42 0 C72.38 0, 122.34 0, 236.37 0 M236.37 0 C251.32 0, 258.79 7.47, 258.79 22.42 M258.79 22.42 C258.79 36.85, 258.79 51.29, 258.79 67.26 M258.79 67.26 C258.79 82.21, 251.32 89.68, 236.37 89.68 M236.37 89.68 C168.99 89.68, 101.6 89.68, 22.42 89.68 M22.42 89.68 C7.47 89.68, 0 82.21, 0 67.26 M0 67.26 C0 49.63, 0 32, 0 22.42 M0 22.42 C0 7.47, 7.47 0, 22.42 0" stroke="#000000" stroke-width="1.5" fill="none" stroke-dasharray="8 9"></path></g><g transform="translate(632.0386232964704 10) rotate(0 60.047950744628906 10)"><text x="0" y="0" font-family="Virgil, Segoe UI Emoji" font-size="16px" fill="#000000" text-anchor="start" style="white-space: pre;" direction="ltr" dominant-baseline="text-before-edge">message buffer</text></g><g stroke-linecap="round"><g stroke-opacity="0.4" fill-opacity="0.4" transform="translate(441.61006323414176 82.48631880086668) rotate(0 86.23658820913022 -0.49404995346822034)"><path d="M0 0 C28.75 -0.16, 143.73 -0.82, 172.47 -0.99 M0 0 C28.75 -0.16, 143.73 -0.82, 172.47 -0.99" stroke="#000000" stroke-width="1" fill="none"></path></g><g stroke-opacity="0.4" fill-opacity="0.4" transform="translate(441.61006323414176 82.48631880086668) rotate(0 86.23658820913022 -0.49404995346822034)"><path d="M144.34 9.43 C154.26 5.76, 164.17 2.09, 172.47 -0.99 M144.34 9.43 C152.05 6.58, 159.76 3.72, 172.47 -0.99" stroke="#000000" stroke-width="1" fill="none"></path></g><g stroke-opacity="0.4" fill-opacity="0.4" transform="translate(441.61006323414176 82.48631880086668) rotate(0 86.23658820913022 -0.49404995346822034)"><path d="M144.22 -11.09 C154.18 -7.53, 164.14 -3.97, 172.47 -0.99 M144.22 -11.09 C151.97 -8.32, 159.71 -5.55, 172.47 -0.99" stroke="#000000" stroke-width="1" fill="none"></path></g></g><mask></mask><g stroke-opacity="0.4" fill-opacity="0.4" transform="translate(447.5520426053413 55.64121875064575) rotate(0 63.19995880126953 10)"><text x="0" y="0" font-family="Virgil, Segoe UI Emoji" font-size="16px" fill="#000000" text-anchor="start" style="white-space: pre;" direction="ltr" dominant-baseline="text-before-edge">coming messages</text></g><g stroke-linecap="round"><g transform="translate(741.6740393708135 393.96925005436424) rotate(0 -0.5602362699407877 -110.17110485482272)"><path d="M0 0 C-0.19 -36.72, -0.93 -183.62, -1.12 -220.34" stroke="#000000" stroke-width="1.5" fill="none" stroke-dasharray="8 9"></path></g><g transform="translate(741.6740393708135 393.96925005436424) rotate(0 -0.5602362699407877 -110.17110485482272)"><path d="M9.28 -192.2 C5.9 -201.36, 2.51 -210.52, -1.12 -220.34" stroke="#000000" stroke-width="1.5" fill="none"></path></g><g transform="translate(741.6740393708135 393.96925005436424) rotate(0 -0.5602362699407877 -110.17110485482272)"><path d="M-11.24 -192.1 C-7.94 -201.29, -4.65 -210.48, -1.12 -220.34" stroke="#000000" stroke-width="1.5" fill="none"></path></g></g><mask></mask><g transform="translate(823.9941957323188 171.8009872951675) rotate(0 187.87188720703136 30)"><text x="0" y="0" font-family="Virgil, Segoe UI Emoji" font-size="16px" fill="#000000" text-anchor="start" style="white-space: pre;" direction="ltr" dominant-baseline="text-before-edge">correlate with only </text><text x="0" y="20" font-family="Virgil, Segoe UI Emoji" font-size="16px" fill="#000000" text-anchor="start" style="white-space: pre;" direction="ltr" dominant-baseline="text-before-edge">one process instance among the versions within </text><text x="0" y="40" font-family="Virgil, Segoe UI Emoji" font-size="16px" fill="#000000" text-anchor="start" style="white-space: pre;" direction="ltr" dominant-baseline="text-before-edge">the same BPMN Process ID</text></g><g stroke-linecap="round" transform="translate(232.7530599744514 734.6319111834146) rotate(0 30 30)"><path d="M60 30 C60 31.74, 59.85 33.5, 59.54 35.21 C59.24 36.92, 58.78 38.63, 58.19 40.26 C57.6 41.89, 56.85 43.5, 55.98 45 C55.11 46.5, 54.1 47.95, 52.98 49.28 C51.87 50.61, 50.61 51.87, 49.28 52.98 C47.95 54.1, 46.5 55.11, 45 55.98 C43.5 56.85, 41.89 57.6, 40.26 58.19 C38.63 58.78, 36.92 59.24, 35.21 59.54 C33.5 59.85, 31.74 60, 30 60 C28.26 60, 26.5 59.85, 24.79 59.54 C23.08 59.24, 21.37 58.78, 19.74 58.19 C18.11 57.6, 16.5 56.85, 15 55.98 C13.5 55.11, 12.05 54.1, 10.72 52.98 C9.39 51.87, 8.13 50.61, 7.02 49.28 C5.9 47.95, 4.89 46.5, 4.02 45 C3.15 43.5, 2.4 41.89, 1.81 40.26 C1.22 38.63, 0.76 36.92, 0.46 35.21 C0.15 33.5, 0 31.74, 0 30 C0 28.26, 0.15 26.5, 0.46 24.79 C0.76 23.08, 1.22 21.37, 1.81 19.74 C2.4 18.11, 3.15 16.5, 4.02 15 C4.89 13.5, 5.9 12.05, 7.02 10.72 C8.13 9.39, 9.39 8.13, 10.72 7.02 C12.05 5.9, 13.5 4.89, 15 4.02 C16.5 3.15, 18.11 2.4, 19.74 1.81 C21.37 1.22, 23.08 0.76, 24.79 0.46 C26.5 0.15, 28.26 0, 30 0 C31.74 0, 33.5 0.15, 35.21 0.46 C36.92 0.76, 38.63 1.22, 40.26 1.81 C41.89 2.4, 43.5 3.15, 45 4.02 C46.5 4.89, 47.95 5.9, 49.28 7.02 C50.61 8.13, 51.87 9.39, 52.98 10.72 C54.1 12.05, 55.11 13.5, 55.98 15 C56.85 16.5, 57.6 18.11, 58.19 19.74 C58.78 21.37, 59.24 23.08, 59.54 24.79 C59.85 26.5, 59.92 29.13, 60 30 C60.08 30.87, 60.08 29.13, 60 30" stroke="none" stroke-width="0" fill="#ffffff"></path><path d="M60 30 C60 31.74, 59.85 33.5, 59.54 35.21 C59.24 36.92, 58.78 38.63, 58.19 40.26 C57.6 41.89, 56.85 43.5, 55.98 45 C55.11 46.5, 54.1 47.95, 52.98 49.28 C51.87 50.61, 50.61 51.87, 49.28 52.98 C47.95 54.1, 46.5 55.11, 45 55.98 C43.5 56.85, 41.89 57.6, 40.26 58.19 C38.63 58.78, 36.92 59.24, 35.21 59.54 C33.5 59.85, 31.74 60, 30 60 C28.26 60, 26.5 59.85, 24.79 59.54 C23.08 59.24, 21.37 58.78, 19.74 58.19 C18.11 57.6, 16.5 56.85, 15 55.98 C13.5 55.11, 12.05 54.1, 10.72 52.98 C9.39 51.87, 8.13 50.61, 7.02 49.28 C5.9 47.95, 4.89 46.5, 4.02 45 C3.15 43.5, 2.4 41.89, 1.81 40.26 C1.22 38.63, 0.76 36.92, 0.46 35.21 C0.15 33.5, 0 31.74, 0 30 C0 28.26, 0.15 26.5, 0.46 24.79 C0.76 23.08, 1.22 21.37, 1.81 19.74 C2.4 18.11, 3.15 16.5, 4.02 15 C4.89 13.5, 5.9 12.05, 7.02 10.72 C8.13 9.39, 9.39 8.13, 10.72 7.02 C12.05 5.9, 13.5 4.89, 15 4.02 C16.5 3.15, 18.11 2.4, 19.74 1.81 C21.37 1.22, 23.08 0.76, 24.79 0.46 C26.5 0.15, 28.26 0, 30 0 C31.74 0, 33.5 0.15, 35.21 0.46 C36.92 0.76, 38.63 1.22, 40.26 1.81 C41.89 2.4, 43.5 3.15, 45 4.02 C46.5 4.89, 47.95 5.9, 49.28 7.02 C50.61 8.13, 51.87 9.39, 52.98 10.72 C54.1 12.05, 55.11 13.5, 55.98 15 C56.85 16.5, 57.6 18.11, 58.19 19.74 C58.78 21.37, 59.24 23.08, 59.54 24.79 C59.85 26.5, 59.92 29.13, 60 30 C60.08 30.87, 60.08 29.13, 60 30" stroke="#000000" stroke-width="2" fill="none"></path></g><g stroke-linecap="round" transform="translate(409.8351241184023 716.6246298481719) rotate(0 100 50)"><path d="M25 0 L175 0 L180.86 0.39 L190.23 3.52 L193.75 6.25 L196.48 9.77 L199.61 19.14 L200 75 L199.61 80.86 L196.48 90.23 L193.75 93.75 L190.23 96.48 L185.94 98.44 L175 100 L25 100 L14.06 98.44 L9.77 96.48 L6.25 93.75 L3.52 90.23 L0.39 80.86 L0.39 19.14 L3.52 9.77 L6.25 6.25 L9.77 3.52 L14.06 1.56 L25 0" stroke="none" stroke-width="0" fill="#ffffff"></path><path d="M25 0 M25 0 C83.34 0, 141.67 0, 175 0 M25 0 C55.14 0, 85.29 0, 175 0 M175 0 C191.67 0, 200 8.33, 200 25 M175 0 C191.67 0, 200 8.33, 200 25 M200 25 C200 43.61, 200 62.22, 200 75 M200 25 C200 43.67, 200 62.34, 200 75 M200 75 C200 91.67, 191.67 100, 175 100 M200 75 C200 91.67, 191.67 100, 175 100 M175 100 C133.57 100, 92.14 100, 25 100 M175 100 C130.8 100, 86.61 100, 25 100 M25 100 C8.33 100, 0 91.67, 0 75 M25 100 C8.33 100, 0 91.67, 0 75 M0 75 C0 61.22, 0 47.44, 0 25 M0 75 C0 64.37, 0 53.74, 0 25 M0 25 C0 8.33, 8.33 0, 25 0 M0 25 C0 8.33, 8.33 0, 25 0" stroke="#000000" stroke-width="2" fill="none"></path></g><g transform="translate(440.30515585668354 756.6246298481719) rotate(0 63.719940185546875 12.5)"><text x="63.719940185546875" y="0" font-family="Virgil, Segoe UI Emoji" font-size="20px" fill="#000000" text-anchor="middle" style="white-space: pre;" direction="ltr" dominant-baseline="text-before-edge">send request</text></g><g stroke-linecap="round" transform="translate(726.5609359927066 733.5029429331826) rotate(0 30 30)"><path d="M60 30 C60 31.74, 59.85 33.5, 59.54 35.21 C59.24 36.92, 58.78 38.63, 58.19 40.26 C57.6 41.89, 56.85 43.5, 55.98 45 C55.11 46.5, 54.1 47.95, 52.98 49.28 C51.87 50.61, 50.61 51.87, 49.28 52.98 C47.95 54.1, 46.5 55.11, 45 55.98 C43.5 56.85, 41.89 57.6, 40.26 58.19 C38.63 58.78, 36.92 59.24, 35.21 59.54 C33.5 59.85, 31.74 60, 30 60 C28.26 60, 26.5 59.85, 24.79 59.54 C23.08 59.24, 21.37 58.78, 19.74 58.19 C18.11 57.6, 16.5 56.85, 15 55.98 C13.5 55.11, 12.05 54.1, 10.72 52.98 C9.39 51.87, 8.13 50.61, 7.02 49.28 C5.9 47.95, 4.89 46.5, 4.02 45 C3.15 43.5, 2.4 41.89, 1.81 40.26 C1.22 38.63, 0.76 36.92, 0.46 35.21 C0.15 33.5, 0 31.74, 0 30 C0 28.26, 0.15 26.5, 0.46 24.79 C0.76 23.08, 1.22 21.37, 1.81 19.74 C2.4 18.11, 3.15 16.5, 4.02 15 C4.89 13.5, 5.9 12.05, 7.02 10.72 C8.13 9.39, 9.39 8.13, 10.72 7.02 C12.05 5.9, 13.5 4.89, 15 4.02 C16.5 3.15, 18.11 2.4, 19.74 1.81 C21.37 1.22, 23.08 0.76, 24.79 0.46 C26.5 0.15, 28.26 0, 30 0 C31.74 0, 33.5 0.15, 35.21 0.46 C36.92 0.76, 38.63 1.22, 40.26 1.81 C41.89 2.4, 43.5 3.15, 45 4.02 C46.5 4.89, 47.95 5.9, 49.28 7.02 C50.61 8.13, 51.87 9.39, 52.98 10.72 C54.1 12.05, 55.11 13.5, 55.98 15 C56.85 16.5, 57.6 18.11, 58.19 19.74 C58.78 21.37, 59.24 23.08, 59.54 24.79 C59.85 26.5, 59.92 29.13, 60 30 C60.08 30.87, 60.08 29.13, 60 30" stroke="none" stroke-width="0" fill="#ffffff"></path><path d="M60 30 C60 31.74, 59.85 33.5, 59.54 35.21 C59.24 36.92, 58.78 38.63, 58.19 40.26 C57.6 41.89, 56.85 43.5, 55.98 45 C55.11 46.5, 54.1 47.95, 52.98 49.28 C51.87 50.61, 50.61 51.87, 49.28 52.98 C47.95 54.1, 46.5 55.11, 45 55.98 C43.5 56.85, 41.89 57.6, 40.26 58.19 C38.63 58.78, 36.92 59.24, 35.21 59.54 C33.5 59.85, 31.74 60, 30 60 C28.26 60, 26.5 59.85, 24.79 59.54 C23.08 59.24, 21.37 58.78, 19.74 58.19 C18.11 57.6, 16.5 56.85, 15 55.98 C13.5 55.11, 12.05 54.1, 10.72 52.98 C9.39 51.87, 8.13 50.61, 7.02 49.28 C5.9 47.95, 4.89 46.5, 4.02 45 C3.15 43.5, 2.4 41.89, 1.81 40.26 C1.22 38.63, 0.76 36.92, 0.46 35.21 C0.15 33.5, 0 31.74, 0 30 C0 28.26, 0.15 26.5, 0.46 24.79 C0.76 23.08, 1.22 21.37, 1.81 19.74 C2.4 18.11, 3.15 16.5, 4.02 15 C4.89 13.5, 5.9 12.05, 7.02 10.72 C8.13 9.39, 9.39 8.13, 10.72 7.02 C12.05 5.9, 13.5 4.89, 15 4.02 C16.5 3.15, 18.11 2.4, 19.74 1.81 C21.37 1.22, 23.08 0.76, 24.79 0.46 C26.5 0.15, 28.26 0, 30 0 C31.74 0, 33.5 0.15, 35.21 0.46 C36.92 0.76, 38.63 1.22, 40.26 1.81 C41.89 2.4, 43.5 3.15, 45 4.02 C46.5 4.89, 47.95 5.9, 49.28 7.02 C50.61 8.13, 51.87 9.39, 52.98 10.72 C54.1 12.05, 55.11 13.5, 55.98 15 C56.85 16.5, 57.6 18.11, 58.19 19.74 C58.78 21.37, 59.24 23.08, 59.54 24.79 C59.85 26.5, 59.92 29.13, 60 30 C60.08 30.87, 60.08 29.13, 60 30" stroke="#000000" stroke-width="2" fill="none"></path></g><g stroke-linecap="round" transform="translate(731.5609359927066 738.5029429331826) rotate(0 25 25)"><path d="M50 25 C50 26.45, 49.87 27.92, 49.62 29.34 C49.37 30.77, 48.99 32.19, 48.49 33.55 C48 34.91, 47.37 36.25, 46.65 37.5 C45.93 38.75, 45.08 39.96, 44.15 41.07 C43.22 42.18, 42.18 43.22, 41.07 44.15 C39.96 45.08, 38.75 45.93, 37.5 46.65 C36.25 47.37, 34.91 48, 33.55 48.49 C32.19 48.99, 30.77 49.37, 29.34 49.62 C27.92 49.87, 26.45 50, 25 50 C23.55 50, 22.08 49.87, 20.66 49.62 C19.23 49.37, 17.81 48.99, 16.45 48.49 C15.09 48, 13.75 47.37, 12.5 46.65 C11.25 45.93, 10.04 45.08, 8.93 44.15 C7.82 43.22, 6.78 42.18, 5.85 41.07 C4.92 39.96, 4.07 38.75, 3.35 37.5 C2.63 36.25, 2 34.91, 1.51 33.55 C1.01 32.19, 0.63 30.77, 0.38 29.34 C0.13 27.92, 0 26.45, 0 25 C0 23.55, 0.13 22.08, 0.38 20.66 C0.63 19.23, 1.01 17.81, 1.51 16.45 C2 15.09, 2.63 13.75, 3.35 12.5 C4.07 11.25, 4.92 10.04, 5.85 8.93 C6.78 7.82, 7.82 6.78, 8.93 5.85 C10.04 4.92, 11.25 4.07, 12.5 3.35 C13.75 2.63, 15.09 2, 16.45 1.51 C17.81 1.01, 19.23 0.63, 20.66 0.38 C22.08 0.13, 23.55 0, 25 0 C26.45 0, 27.92 0.13, 29.34 0.38 C30.77 0.63, 32.19 1.01, 33.55 1.51 C34.91 2, 36.25 2.63, 37.5 3.35 C38.75 4.07, 39.96 4.92, 41.07 5.85 C42.18 6.78, 43.22 7.82, 44.15 8.93 C45.08 10.04, 45.93 11.25, 46.65 12.5 C47.37 13.75, 48 15.09, 48.49 16.45 C48.99 17.81, 49.37 19.23, 49.62 20.66 C49.87 22.08, 49.94 24.28, 50 25 C50.06 25.72, 50.06 24.28, 50 25" stroke="none" stroke-width="0" fill="#ffffff"></path><path d="M50 25 C50 26.45, 49.87 27.92, 49.62 29.34 C49.37 30.77, 48.99 32.19, 48.49 33.55 C48 34.91, 47.37 36.25, 46.65 37.5 C45.93 38.75, 45.08 39.96, 44.15 41.07 C43.22 42.18, 42.18 43.22, 41.07 44.15 C39.96 45.08, 38.75 45.93, 37.5 46.65 C36.25 47.37, 34.91 48, 33.55 48.49 C32.19 48.99, 30.77 49.37, 29.34 49.62 C27.92 49.87, 26.45 50, 25 50 C23.55 50, 22.08 49.87, 20.66 49.62 C19.23 49.37, 17.81 48.99, 16.45 48.49 C15.09 48, 13.75 47.37, 12.5 46.65 C11.25 45.93, 10.04 45.08, 8.93 44.15 C7.82 43.22, 6.78 42.18, 5.85 41.07 C4.92 39.96, 4.07 38.75, 3.35 37.5 C2.63 36.25, 2 34.91, 1.51 33.55 C1.01 32.19, 0.63 30.77, 0.38 29.34 C0.13 27.92, 0 26.45, 0 25 C0 23.55, 0.13 22.08, 0.38 20.66 C0.63 19.23, 1.01 17.81, 1.51 16.45 C2 15.09, 2.63 13.75, 3.35 12.5 C4.07 11.25, 4.92 10.04, 5.85 8.93 C6.78 7.82, 7.82 6.78, 8.93 5.85 C10.04 4.92, 11.25 4.07, 12.5 3.35 C13.75 2.63, 15.09 2, 16.45 1.51 C17.81 1.01, 19.23 0.63, 20.66 0.38 C22.08 0.13, 23.55 0, 25 0 C26.45 0, 27.92 0.13, 29.34 0.38 C30.77 0.63, 32.19 1.01, 33.55 1.51 C34.91 2, 36.25 2.63, 37.5 3.35 C38.75 4.07, 39.96 4.92, 41.07 5.85 C42.18 6.78, 43.22 7.82, 44.15 8.93 C45.08 10.04, 45.93 11.25, 46.65 12.5 C47.37 13.75, 48 15.09, 48.49 16.45 C48.99 17.81, 49.37 19.23, 49.62 20.66 C49.87 22.08, 49.94 24.28, 50 25 C50.06 25.72, 50.06 24.28, 50 25" stroke="#000000" stroke-width="2" fill="none"></path></g><g stroke-linecap="round" transform="translate(741.5609359927068 753.5029429331826) rotate(0 15 10)"><path d="M0 0 L30 0 L30 20 L0 20" stroke="none" stroke-width="0" fill="#ffffff"></path><path d="M0 0 C10.69 0, 21.38 0, 30 0 M0 0 C6.7 0, 13.4 0, 30 0 M30 0 C30 5.77, 30 11.54, 30 20 M30 0 C30 7.41, 30 14.83, 30 20 M30 20 C23.18 20, 16.36 20, 0 20 M30 20 C23.97 20, 17.94 20, 0 20 M0 20 C0 14.71, 0 9.42, 0 0 M0 20 C0 12.53, 0 5.06, 0 0" stroke="#000000" stroke-width="2" fill="none"></path></g><g stroke-linecap="round"><g transform="translate(741.5609359927068 753.5029429331826) rotate(0 7.5 5)"><path d="M0 0 C2.5 1.67, 12.5 8.33, 15 10 M0 0 C2.5 1.67, 12.5 8.33, 15 10" stroke="#000000" stroke-width="2" fill="none"></path></g></g><mask></mask><g stroke-linecap="round"><g transform="translate(756.5609359927068 763.5029429331826) rotate(0 7.5 -5)"><path d="M0 0 C2.5 -1.67, 12.5 -8.33, 15 -10 M0 0 C2.5 -1.67, 12.5 -8.33, 15 -10" stroke="#000000" stroke-width="2" fill="none"></path></g></g><mask></mask><g stroke-linecap="round" transform="translate(1210.1935976744926 733.5641759305836) rotate(0 30 30)"><path d="M60 30 C60 31.74, 59.85 33.5, 59.54 35.21 C59.24 36.92, 58.78 38.63, 58.19 40.26 C57.6 41.89, 56.85 43.5, 55.98 45 C55.11 46.5, 54.1 47.95, 52.98 49.28 C51.87 50.61, 50.61 51.87, 49.28 52.98 C47.95 54.1, 46.5 55.11, 45 55.98 C43.5 56.85, 41.89 57.6, 40.26 58.19 C38.63 58.78, 36.92 59.24, 35.21 59.54 C33.5 59.85, 31.74 60, 30 60 C28.26 60, 26.5 59.85, 24.79 59.54 C23.08 59.24, 21.37 58.78, 19.74 58.19 C18.11 57.6, 16.5 56.85, 15 55.98 C13.5 55.11, 12.05 54.1, 10.72 52.98 C9.39 51.87, 8.13 50.61, 7.02 49.28 C5.9 47.95, 4.89 46.5, 4.02 45 C3.15 43.5, 2.4 41.89, 1.81 40.26 C1.22 38.63, 0.76 36.92, 0.46 35.21 C0.15 33.5, 0 31.74, 0 30 C0 28.26, 0.15 26.5, 0.46 24.79 C0.76 23.08, 1.22 21.37, 1.81 19.74 C2.4 18.11, 3.15 16.5, 4.02 15 C4.89 13.5, 5.9 12.05, 7.02 10.72 C8.13 9.39, 9.39 8.13, 10.72 7.02 C12.05 5.9, 13.5 4.89, 15 4.02 C16.5 3.15, 18.11 2.4, 19.74 1.81 C21.37 1.22, 23.08 0.76, 24.79 0.46 C26.5 0.15, 28.26 0, 30 0 C31.74 0, 33.5 0.15, 35.21 0.46 C36.92 0.76, 38.63 1.22, 40.26 1.81 C41.89 2.4, 43.5 3.15, 45 4.02 C46.5 4.89, 47.95 5.9, 49.28 7.02 C50.61 8.13, 51.87 9.39, 52.98 10.72 C54.1 12.05, 55.11 13.5, 55.98 15 C56.85 16.5, 57.6 18.11, 58.19 19.74 C58.78 21.37, 59.24 23.08, 59.54 24.79 C59.85 26.5, 59.92 29.13, 60 30 C60.08 30.87, 60.08 29.13, 60 30" stroke="none" stroke-width="0" fill="#ffffff"></path><path d="M60 30 C60 31.74, 59.85 33.5, 59.54 35.21 C59.24 36.92, 58.78 38.63, 58.19 40.26 C57.6 41.89, 56.85 43.5, 55.98 45 C55.11 46.5, 54.1 47.95, 52.98 49.28 C51.87 50.61, 50.61 51.87, 49.28 52.98 C47.95 54.1, 46.5 55.11, 45 55.98 C43.5 56.85, 41.89 57.6, 40.26 58.19 C38.63 58.78, 36.92 59.24, 35.21 59.54 C33.5 59.85, 31.74 60, 30 60 C28.26 60, 26.5 59.85, 24.79 59.54 C23.08 59.24, 21.37 58.78, 19.74 58.19 C18.11 57.6, 16.5 56.85, 15 55.98 C13.5 55.11, 12.05 54.1, 10.72 52.98 C9.39 51.87, 8.13 50.61, 7.02 49.28 C5.9 47.95, 4.89 46.5, 4.02 45 C3.15 43.5, 2.4 41.89, 1.81 40.26 C1.22 38.63, 0.76 36.92, 0.46 35.21 C0.15 33.5, 0 31.74, 0 30 C0 28.26, 0.15 26.5, 0.46 24.79 C0.76 23.08, 1.22 21.37, 1.81 19.74 C2.4 18.11, 3.15 16.5, 4.02 15 C4.89 13.5, 5.9 12.05, 7.02 10.72 C8.13 9.39, 9.39 8.13, 10.72 7.02 C12.05 5.9, 13.5 4.89, 15 4.02 C16.5 3.15, 18.11 2.4, 19.74 1.81 C21.37 1.22, 23.08 0.76, 24.79 0.46 C26.5 0.15, 28.26 0, 30 0 C31.74 0, 33.5 0.15, 35.21 0.46 C36.92 0.76, 38.63 1.22, 40.26 1.81 C41.89 2.4, 43.5 3.15, 45 4.02 C46.5 4.89, 47.95 5.9, 49.28 7.02 C50.61 8.13, 51.87 9.39, 52.98 10.72 C54.1 12.05, 55.11 13.5, 55.98 15 C56.85 16.5, 57.6 18.11, 58.19 19.74 C58.78 21.37, 59.24 23.08, 59.54 24.79 C59.85 26.5, 59.92 29.13, 60 30 C60.08 30.87, 60.08 29.13, 60 30" stroke="#000000" stroke-width="6" fill="none"></path></g><g stroke-linecap="round"><g transform="translate(296.5586535275688 767.566450836789) rotate(0 55.06727297280463 0.32860234064037286)"><path d="M0 0 C18.36 0.11, 91.78 0.55, 110.13 0.66 M0 0 C18.36 0.11, 91.78 0.55, 110.13 0.66" stroke="#000000" stroke-width="2" fill="none"></path></g><g transform="translate(296.5586535275688 767.566450836789) rotate(0 55.06727297280463 0.32860234064037286)"><path d="M110.13 0.66 L96.5 6.92 L96.58 -5.76 L110.13 0.66" stroke="none" stroke-width="0" fill="#000000" fill-rule="evenodd"></path><path d="M110.13 0.66 C105.08 2.98, 100.03 5.29, 96.5 6.92 M110.13 0.66 C105.79 2.65, 101.44 4.65, 96.5 6.92 M96.5 6.92 C96.53 2.23, 96.56 -2.46, 96.58 -5.76 M96.5 6.92 C96.52 3.19, 96.55 -0.53, 96.58 -5.76 M96.58 -5.76 C101.85 -3.27, 107.12 -0.77, 110.13 0.66 M96.58 -5.76 C101.55 -3.41, 106.52 -1.05, 110.13 0.66 M110.13 0.66 C110.13 0.66, 110.13 0.66, 110.13 0.66 M110.13 0.66 C110.13 0.66, 110.13 0.66, 110.13 0.66" stroke="#000000" stroke-width="2" fill="none"></path></g></g><mask></mask><g stroke-linecap="round"><g transform="translate(613.4501857275284 764.7213355801632) rotate(0 57.109038945869315 -0.1454063608305205)"><path d="M0 0 C19.04 -0.05, 95.18 -0.24, 114.22 -0.29 M0 0 C19.04 -0.05, 95.18 -0.24, 114.22 -0.29" stroke="#000000" stroke-width="2" fill="none"></path></g><g transform="translate(613.4501857275284 764.7213355801632) rotate(0 57.109038945869315 -0.1454063608305205)"><path d="M114.22 -0.29 L100.64 6.08 L100.61 -6.6 L114.22 -0.29" stroke="none" stroke-width="0" fill="#000000" fill-rule="evenodd"></path><path d="M114.22 -0.29 C109.78 1.79, 105.35 3.87, 100.64 6.08 M114.22 -0.29 C109.97 1.7, 105.72 3.7, 100.64 6.08 M100.64 6.08 C100.63 3.1, 100.62 0.11, 100.61 -6.6 M100.64 6.08 C100.63 1.73, 100.62 -2.62, 100.61 -6.6 M100.61 -6.6 C105.65 -4.26, 110.69 -1.93, 114.22 -0.29 M100.61 -6.6 C105.44 -4.36, 110.28 -2.12, 114.22 -0.29 M114.22 -0.29 C114.22 -0.29, 114.22 -0.29, 114.22 -0.29 M114.22 -0.29 C114.22 -0.29, 114.22 -0.29, 114.22 -0.29" stroke="#000000" stroke-width="2" fill="none"></path></g></g><mask></mask><g stroke-linecap="round"><g transform="translate(789.5098859480211 765.6087599962493) rotate(0 51.950122795888774 0.5741576570189864)"><path d="M0 0 C17.32 0.19, 86.58 0.96, 103.9 1.15 M0 0 C17.32 0.19, 86.58 0.96, 103.9 1.15" stroke="#000000" stroke-width="2" fill="none"></path></g><g transform="translate(789.5098859480211 765.6087599962493) rotate(0 51.950122795888774 0.5741576570189864)"><path d="M103.9 1.15 L90.24 7.34 L90.38 -5.34 L103.9 1.15" stroke="none" stroke-width="0" fill="#000000" fill-rule="evenodd"></path><path d="M103.9 1.15 C100.33 2.77, 96.76 4.38, 90.24 7.34 M103.9 1.15 C98.63 3.53, 93.37 5.92, 90.24 7.34 M90.24 7.34 C90.28 3.43, 90.32 -0.48, 90.38 -5.34 M90.24 7.34 C90.26 4.77, 90.29 2.2, 90.38 -5.34 M90.38 -5.34 C95.51 -2.88, 100.65 -0.41, 103.9 1.15 M90.38 -5.34 C94.06 -3.57, 97.75 -1.8, 103.9 1.15 M103.9 1.15 C103.9 1.15, 103.9 1.15, 103.9 1.15 M103.9 1.15 C103.9 1.15, 103.9 1.15, 103.9 1.15" stroke="#000000" stroke-width="2" fill="none"></path></g></g><mask></mask><g stroke-linecap="round" transform="translate(897.772310625119 713.6357038741262) rotate(0 99.99999999999989 50)"><path d="M25 0 L175 0 L180.86 0.39 L190.23 3.52 L193.75 6.25 L196.48 9.77 L199.61 19.14 L200 75 L199.61 80.86 L196.48 90.23 L193.75 93.75 L190.23 96.48 L185.94 98.44 L175 100 L25 100 L14.06 98.44 L9.77 96.48 L6.25 93.75 L3.52 90.23 L0.39 80.86 L0.39 19.14 L3.52 9.77 L6.25 6.25 L9.77 3.52 L14.06 1.56 L25 0" stroke="none" stroke-width="0" fill="#ffffff"></path><path d="M25 0 M25 0 C80.02 0, 135.04 0, 175 0 M25 0 C64.68 0, 104.36 0, 175 0 M175 0 C191.67 0, 200 8.33, 200 25 M175 0 C191.67 0, 200 8.33, 200 25 M200 25 C200 43.79, 200 62.57, 200 75 M200 25 C200 38.33, 200 51.66, 200 75 M200 75 C200 91.67, 191.67 100, 175 100 M200 75 C200 91.67, 191.67 100, 175 100 M175 100 C134.75 100, 94.5 100, 25 100 M175 100 C132.96 100, 90.91 100, 25 100 M25 100 C8.33 100, 0 91.67, 0 75 M25 100 C8.33 100, 0 91.67, 0 75 M0 75 C0 55.2, 0 35.4, 0 25 M0 75 C0 58.02, 0 41.05, 0 25 M0 25 C0 8.33, 8.33 0, 25 0 M0 25 C0 8.33, 8.33 0, 25 0" stroke="#000000" stroke-width="2" fill="none"></path></g><g transform="translate(950.7223304615443 741.1357038741262) rotate(0 41.23995208740246 25)"><text x="41.239952087402344" y="0" font-family="Virgil, Segoe UI Emoji" font-size="20px" fill="#000000" text-anchor="middle" style="white-space: pre;" direction="ltr" dominant-baseline="text-before-edge">process </text><text x="41.239952087402344" y="25" font-family="Virgil, Segoe UI Emoji" font-size="20px" fill="#000000" text-anchor="middle" style="white-space: pre;" direction="ltr" dominant-baseline="text-before-edge">response</text></g><g stroke-linecap="round"><g transform="translate(1099.6439714372173 765.8343987995277) rotate(0 53.0871070831829 -1.045663226904253)"><path d="M0 0 C17.7 -0.35, 88.48 -1.74, 106.17 -2.09 M0 0 C17.7 -0.35, 88.48 -1.74, 106.17 -2.09" stroke="#000000" stroke-width="2" fill="none"></path></g><g transform="translate(1099.6439714372173 765.8343987995277) rotate(0 53.0871070831829 -1.045663226904253)"><path d="M106.17 -2.09 L92.71 4.51 L92.46 -8.16 L106.17 -2.09" stroke="none" stroke-width="0" fill="#000000" fill-rule="evenodd"></path><path d="M106.17 -2.09 C101.82 0.04, 97.47 2.18, 92.71 4.51 M106.17 -2.09 C100.88 0.51, 95.58 3.1, 92.71 4.51 M92.71 4.51 C92.62 -0.13, 92.52 -4.77, 92.46 -8.16 M92.71 4.51 C92.66 1.92, 92.6 -0.67, 92.46 -8.16 M92.46 -8.16 C97.52 -5.92, 102.58 -3.68, 106.17 -2.09 M92.46 -8.16 C96.94 -6.18, 101.43 -4.19, 106.17 -2.09 M106.17 -2.09 C106.17 -2.09, 106.17 -2.09, 106.17 -2.09 M106.17 -2.09 C106.17 -2.09, 106.17 -2.09, 106.17 -2.09" stroke="#000000" stroke-width="2" fill="none"></path></g></g><mask></mask><g transform="translate(210.9455291698887 814.4653447248256) rotate(0 57.239967346191406 20)"><text x="0" y="0" font-family="Virgil, Segoe UI Emoji" font-size="16px" fill="#000000" text-anchor="start" style="white-space: pre;" direction="ltr" dominant-baseline="text-before-edge">message to be</text><text x="0" y="20" font-family="Virgil, Segoe UI Emoji" font-size="16px" fill="#000000" text-anchor="start" style="white-space: pre;" direction="ltr" dominant-baseline="text-before-edge"> processed</text></g><g transform="translate(1207.2439382950433 807.4913614789912) rotate(0 37.82396697998047 20)"><text x="0" y="0" font-family="Virgil, Segoe UI Emoji" font-size="16px" fill="#000000" text-anchor="start" style="white-space: pre;" direction="ltr" dominant-baseline="text-before-edge">message</text><text x="0" y="20" font-family="Virgil, Segoe UI Emoji" font-size="16px" fill="#000000" text-anchor="start" style="white-space: pre;" direction="ltr" dominant-baseline="text-before-edge">processed</text></g><g transform="translate(692.1577082465478 813.9580253838103) rotate(0 66.91996002197266 10)"><text x="0" y="0" font-family="Virgil, Segoe UI Emoji" font-size="16px" fill="#000000" text-anchor="start" style="white-space: pre;" direction="ltr" dominant-baseline="text-before-edge">message received</text></g><g transform="translate(40.30173259822777 313.9084640491469) rotate(0 41.319976806640625 10)"><text x="0" y="0" font-family="Virgil, Segoe UI Emoji" font-size="16px" fill="#5c940d" text-anchor="start" style="white-space: pre;" direction="ltr" dominant-baseline="text-before-edge">Version = 1</text></g><g transform="translate(46.02913023334895 753.6935492568919) rotate(0 72.22396087646484 10)"><text x="0" y="0" font-family="Virgil, Segoe UI Emoji" font-size="16px" fill="#000000" text-anchor="start" style="white-space: pre;" direction="ltr" dominant-baseline="text-before-edge">Process instance 1</text></g><g stroke-opacity="0.7" fill-opacity="0.7" stroke-linecap="round" transform="translate(21.122187436206787 638.5436598028973) rotate(0 640.4659855560101 124.21066484367202)"><path d="M32 0 M32 0 C420.23 0, 808.46 0, 1248.93 0 M1248.93 0 C1270.27 0, 1280.93 10.67, 1280.93 32 M1280.93 32 C1280.93 100.21, 1280.93 168.43, 1280.93 216.42 M1280.93 216.42 C1280.93 237.75, 1270.27 248.42, 1248.93 248.42 M1248.93 248.42 C891.39 248.42, 533.85 248.42, 32 248.42 M32 248.42 C10.67 248.42, 0 237.75, 0 216.42 M0 216.42 C0 144.7, 0 72.98, 0 32 M0 32 C0 10.67, 10.67 0, 32 0" stroke="#5c940d" stroke-width="1.5" fill="none" stroke-dasharray="8 9"></path></g><g stroke-linecap="round"><g transform="translate(721.8950604917945 735.6424452786641) rotate(0 -3.084762101181923 -262.48261715698527)"><path d="M0 0 C-1.03 -87.49, -5.14 -437.47, -6.17 -524.97" stroke="#000000" stroke-width="1.5" fill="none" stroke-dasharray="8 9"></path></g><g transform="translate(721.8950604917945 735.6424452786641) rotate(0 -3.084762101181923 -262.48261715698527)"><path d="M4.42 -496.9 C1.11 -505.68, -2.21 -514.47, -6.17 -524.97" stroke="#000000" stroke-width="1.5" fill="none"></path></g><g transform="translate(721.8950604917945 735.6424452786641) rotate(0 -3.084762101181923 -262.48261715698527)"><path d="M-16.1 -496.66 C-12.99 -505.52, -9.88 -514.38, -6.17 -524.97" stroke="#000000" stroke-width="1.5" fill="none"></path></g></g><mask></mask><g stroke-linecap="round"><g transform="translate(801.1039738566658 737.4634806710451) rotate(180.21167434594042 -2.12595169011513 -298.36143807694907)"><path d="M0 0 C-0.71 -99.45, -3.54 -497.27, -4.25 -596.72" stroke="#000000" stroke-width="1.5" fill="none" stroke-dasharray="8 9"></path></g><g transform="translate(801.1039738566658 737.4634806710451) rotate(180.21167434594042 -2.12595169011513 -298.36143807694907)"><path d="M6.21 -568.61 C2.18 -579.44, -1.86 -590.28, -4.25 -596.72" stroke="#000000" stroke-width="1.5" fill="none"></path></g><g transform="translate(801.1039738566658 737.4634806710451) rotate(180.21167434594042 -2.12595169011513 -298.36143807694907)"><path d="M-14.31 -568.46 C-10.43 -579.35, -6.56 -590.25, -4.25 -596.72" stroke="#000000" stroke-width="1.5" fill="none"></path></g></g><mask></mask><g transform="translate(39.87121192676614 650.1197381182028) rotate(0 44.84797668457031 10)"><text x="0" y="0" font-family="Virgil, Segoe UI Emoji" font-size="16px" fill="#5c940d" text-anchor="start" style="white-space: pre;" direction="ltr" dominant-baseline="text-before-edge">Version = 2</text></g><g stroke-opacity="0.2" fill-opacity="0.2" stroke-linecap="round" transform="translate(10 293.97777673198925) rotate(0 654.3507813257988 303.87094482873295)"><path d="M32 0 M32 0 C425.37 0, 818.75 0, 1276.7 0 M1276.7 0 C1298.03 0, 1308.7 10.67, 1308.7 32 M1308.7 32 C1308.7 236.59, 1308.7 441.18, 1308.7 575.74 M1308.7 575.74 C1308.7 597.08, 1298.03 607.74, 1276.7 607.74 M1276.7 607.74 C811.06 607.74, 345.41 607.74, 32 607.74 M32 607.74 C10.67 607.74, 0 597.08, 0 575.74 M0 575.74 C0 377.45, 0 179.17, 0 32 M0 32 C0 10.67, 10.67 0, 32 0" stroke="#000000" stroke-width="1.5" fill="none" stroke-dasharray="8 9"></path></g><g transform="translate(824.4933933287807 248.30343203147368) rotate(0 140.90391540527344 10)"><text x="0" y="0" font-family="Virgil, Segoe UI Emoji" font-size="16px" fill="#000000" text-anchor="start" style="white-space: pre;" direction="ltr" dominant-baseline="text-before-edge">other process instances are waiting</text></g></svg>