<svg version="1.1" xmlns="http://www.w3.org/2000/svg" viewBox="0 0 1332.964388000424 902.0139769513648" width="3998.8931640012715" height="2706.0419308540945">
  <!-- svg-source:excalidraw -->
  
  <defs>
    <style class="style-fonts">
      @font-face {
        font-family: "Virgil";
        src: url("https://excalidraw.com/Virgil.woff2");
      }
      @font-face {
        font-family: "Cascadia";
        src: url("https://excalidraw.com/Cascadia.woff2");
      }
    </style>
  </defs>
  <rect x="0" y="0" width="1332.964388000424" height="902.0139769513648" fill="#ffffff"></rect><g stroke-linecap="round" transform="translate(230.35194249793403 382.92928681744525) rotate(0 30 30)"><path d="M60 30 C60 31.74, 59.85 33.5, 59.54 35.21 C59.24 36.92, 58.78 38.63, 58.19 40.26 C57.6 41.89, 56.85 43.5, 55.98 45 C55.11 46.5, 54.1 47.95, 52.98 49.28 C51.87 50.61, 50.61 51.87, 49.28 52.98 C47.95 54.1, 46.5 55.11, 45 55.98 C43.5 56.85, 41.89 57.6, 40.26 58.19 C38.63 58.78, 36.92 59.24, 35.21 59.54 C33.5 59.85, 31.74 60, 30 60 C28.26 60, 26.5 59.85, 24.79 59.54 C23.08 59.24, 21.37 58.78, 19.74 58.19 C18.11 57.6, 16.5 56.85, 15 55.98 C13.5 55.11, 12.05 54.1, 10.72 52.98 C9.39 51.87, 8.13 50.61, 7.02 49.28 C5.9 47.95, 4.89 46.5, 4.02 45 C3.15 43.5, 2.4 41.89, 1.81 40.26 C1.22 38.63, 0.76 36.92, 0.46 35.21 C0.15 33.5, 0 31.74, 0 30 C0 28.26, 0.15 26.5, 0.46 24.79 C0.76 23.08, 1.22 21.37, 1.81 19.74 C2.4 18.11, 3.15 16.5, 4.02 15 C4.89 13.5, 5.9 12.05, 7.02 10.72 C8.13 9.39, 9.39 8.13, 10.72 7.02 C12.05 5.9, 13.5 4.89, 15 4.02 C16.5 3.15, 18.11 2.4, 19.74 1.81 C21.37 1.22, 23.08 0.76, 24.79 0.46 C26.5 0.15, 28.26 0, 30 0 C31.74 0, 33.5 0.15, 35.21 0.46 C36.92 0.76, 38.63 1.22, 40.26 1.81 C41.89 2.4, 43.5 3.15, 45 4.02 C46.5 4.89, 47.95 5.9, 49.28 7.02 C50.61 8.13, 51.87 9.39, 52.98 10.72 C54.1 12.05, 55.11 13.5, 55.98 15 C56.85 16.5, 57.6 18.11, 58.19 19.74 C58.78 21.37, 59.24 23.08, 59.54 24.79 C59.85 26.5, 59.92 29.13, 60 30 C60.08 30.87, 60.08 29.13, 60 30" stroke="none" stroke-width="0" fill="#ffffff"></path><path d="M60 30 C60 31.74, 59.85 33.5, 59.54 35.21 C59.24 36.92, 58.78 38.63, 58.19 40.26 C57.6 41.89, 56.85 43.5, 55.98 45 C55.11 46.5, 54.1 47.95, 52.98 49.28 C51.87 50.61, 50.61 51.87, 49.28 52.98 C47.95 54.1, 46.5 55.11, 45 55.98 C43.5 56.85, 41.89 57.6, 40.26 58.19 C38.63 58.78, 36.92 59.24, 35.21 59.54 C33.5 59.85, 31.74 60, 30 60 C28.26 60, 26.5 59.85, 24.79 59.54 C23.08 59.24, 21.37 58.78, 19.74 58.19 C18.11 57.6, 16.5 56.85, 15 55.98 C13.5 55.11, 12.05 54.1, 10.72 52.98 C9.39 51.87, 8.13 50.61, 7.02 49.28 C5.9 47.95, 4.89 46.5, 4.02 45 C3.15 43.5, 2.4 41.89, 1.81 40.26 C1.22 38.63, 0.76 36.92, 0.46 35.21 C0.15 33.5, 0 31.74, 0 30 C0 28.26, 0.15 26.5, 0.46 24.79 C0.76 23.08, 1.22 21.37, 1.81 19.74 C2.4 18.11, 3.15 16.5, 4.02 15 C4.89 13.5, 5.9 12.05, 7.02 10.72 C8.13 9.39, 9.39 8.13, 10.72 7.02 C12.05 5.9, 13.5 4.89, 15 4.02 C16.5 3.15, 18.11 2.4, 19.74 1.81 C21.37 1.22, 23.08 0.76, 24.79 0.46 C26.5 0.15, 28.26 0, 30 0 C31.74 0, 33.5 0.15, 35.21 0.46 C36.92 0.76, 38.63 1.22, 40.26 1.81 C41.89 2.4, 43.5 3.15, 45 4.02 C46.5 4.89, 47.95 5.9, 49.28 7.02 C50.61 8.13, 51.87 9.39, 52.98 10.72 C54.1 12.05, 55.11 13.5, 55.98 15 C56.85 16.5, 57.6 18.11, 58.19 19.74 C58.78 21.37, 59.24 23.08, 59.54 24.79 C59.85 26.5, 59.92 29.13, 60 30 C60.08 30.87, 60.08 29.13, 60 30" stroke="#000000" stroke-width="2" fill="none"></path></g><g stroke-linecap="round" transform="translate(407.4340066418856 364.9220054822026) rotate(0 100 50)"><path d="M25 0 L175 0 L180.86 0.39 L190.23 3.52 L193.75 6.25 L196.48 9.77 L199.61 19.14 L200 75 L199.61 80.86 L196.48 90.23 L193.75 93.75 L190.23 96.48 L185.94 98.44 L175 100 L25 100 L14.06 98.44 L9.77 96.48 L6.25 93.75 L3.52 90.23 L0.39 80.86 L0.39 19.14 L3.52 9.77 L6.25 6.25 L9.77 3.52 L14.06 1.56 L25 0" stroke="none" stroke-width="0" fill="#ffffff"></path><path d="M25 0 M25 0 C58.92 0, 92.85 0, 175 0 M25 0 C74.83 0, 124.67 0, 175 0 M175 0 C191.67 0, 200 8.33, 200 25 M175 0 C191.67 0, 200 8.33, 200 25 M200 25 C200 41.2, 200 57.41, 200 75 M200 25 C200 35.06, 200 45.13, 200 75 M200 75 C200 91.67, 191.67 100, 175 100 M200 75 C200 91.67, 191.67 100, 175 100 M175 100 C133.19 100, 91.38 100, 25 100 M175 100 C116.03 100, 57.06 100, 25 100 M25 100 C8.33 100, 0 91.67, 0 75 M25 100 C8.33 100, 0 91.67, 0 75 M0 75 C0 62.56, 0 50.11, 0 25 M0 75 C0 56.56, 0 38.12, 0 25 M0 25 C0 8.33, 8.33 0, 25 0 M0 25 C0 8.33, 8.33 0, 25 0" stroke="#000000" stroke-width="2" fill="none"></path></g><g stroke-linecap="round" transform="translate(725.5123541066689 383.9257221613698) rotate(0 30 30)"><path d="M60 30 C60 31.74, 59.85 33.5, 59.54 35.21 C59.24 36.92, 58.78 38.63, 58.19 40.26 C57.6 41.89, 56.85 43.5, 55.98 45 C55.11 46.5, 54.1 47.95, 52.98 49.28 C51.87 50.61, 50.61 51.87, 49.28 52.98 C47.95 54.1, 46.5 55.11, 45 55.98 C43.5 56.85, 41.89 57.6, 40.26 58.19 C38.63 58.78, 36.92 59.24, 35.21 59.54 C33.5 59.85, 31.74 60, 30 60 C28.26 60, 26.5 59.85, 24.79 59.54 C23.08 59.24, 21.37 58.78, 19.74 58.19 C18.11 57.6, 16.5 56.85, 15 55.98 C13.5 55.11, 12.05 54.1, 10.72 52.98 C9.39 51.87, 8.13 50.61, 7.02 49.28 C5.9 47.95, 4.89 46.5, 4.02 45 C3.15 43.5, 2.4 41.89, 1.81 40.26 C1.22 38.63, 0.76 36.92, 0.46 35.21 C0.15 33.5, 0 31.74, 0 30 C0 28.26, 0.15 26.5, 0.46 24.79 C0.76 23.08, 1.22 21.37, 1.81 19.74 C2.4 18.11, 3.15 16.5, 4.02 15 C4.89 13.5, 5.9 12.05, 7.02 10.72 C8.13 9.39, 9.39 8.13, 10.72 7.02 C12.05 5.9, 13.5 4.89, 15 4.02 C16.5 3.15, 18.11 2.4, 19.74 1.81 C21.37 1.22, 23.08 0.76, 24.79 0.46 C26.5 0.15, 28.26 0, 30 0 C31.74 0, 33.5 0.15, 35.21 0.46 C36.92 0.76, 38.63 1.22, 40.26 1.81 C41.89 2.4, 43.5 3.15, 45 4.02 C46.5 4.89, 47.95 5.9, 49.28 7.02 C50.61 8.13, 51.87 9.39, 52.98 10.72 C54.1 12.05, 55.11 13.5, 55.98 15 C56.85 16.5, 57.6 18.11, 58.19 19.74 C58.78 21.37, 59.24 23.08, 59.54 24.79 C59.85 26.5, 59.92 29.13, 60 30 C60.08 30.87, 60.08 29.13, 60 30" stroke="none" stroke-width="0" fill="#ffffff"></path><path d="M60 30 C60 31.74, 59.85 33.5, 59.54 35.21 C59.24 36.92, 58.78 38.63, 58.19 40.26 C57.6 41.89, 56.85 43.5, 55.98 45 C55.11 46.5, 54.1 47.95, 52.98 49.28 C51.87 50.61, 50.61 51.87, 49.28 52.98 C47.95 54.1, 46.5 55.11, 45 55.98 C43.5 56.85, 41.89 57.6, 40.26 58.19 C38.63 58.78, 36.92 59.24, 35.21 59.54 C33.5 59.85, 31.74 60, 30 60 C28.26 60, 26.5 59.85, 24.79 59.54 C23.08 59.24, 21.37 58.78, 19.74 58.19 C18.11 57.6, 16.5 56.85, 15 55.98 C13.5 55.11, 12.05 54.1, 10.72 52.98 C9.39 51.87, 8.13 50.61, 7.02 49.28 C5.9 47.95, 4.89 46.5, 4.02 45 C3.15 43.5, 2.4 41.89, 1.81 40.26 C1.22 38.63, 0.76 36.92, 0.46 35.21 C0.15 33.5, 0 31.74, 0 30 C0 28.26, 0.15 26.5, 0.46 24.79 C0.76 23.08, 1.22 21.37, 1.81 19.74 C2.4 18.11, 3.15 16.5, 4.02 15 C4.89 13.5, 5.9 12.05, 7.02 10.72 C8.13 9.39, 9.39 8.13, 10.72 7.02 C12.05 5.9, 13.5 4.89, 15 4.02 C16.5 3.15, 18.11 2.4, 19.74 1.81 C21.37 1.22, 23.08 0.76, 24.79 0.46 C26.5 0.15, 28.26 0, 30 0 C31.74 0, 33.5 0.15, 35.21 0.46 C36.92 0.76, 38.63 1.22, 40.26 1.81 C41.89 2.4, 43.5 3.15, 45 4.02 C46.5 4.89, 47.95 5.9, 49.28 7.02 C50.61 8.13, 51.87 9.39, 52.98 10.72 C54.1 12.05, 55.11 13.5, 55.98 15 C56.85 16.5, 57.6 18.11, 58.19 19.74 C58.78 21.37, 59.24 23.08, 59.54 24.79 C59.85 26.5, 59.92 29.13, 60 30 C60.08 30.87, 60.08 29.13, 60 30" stroke="#000000" stroke-width="2" fill="none"></path></g><g stroke-linecap="round" transform="translate(730.5123541066689 388.9257221613698) rotate(0 25 25)"><path d="M50 25 C50 26.45, 49.87 27.92, 49.62 29.34 C49.37 30.77, 48.99 32.19, 48.49 33.55 C48 34.91, 47.37 36.25, 46.65 37.5 C45.93 38.75, 45.08 39.96, 44.15 41.07 C43.22 42.18, 42.18 43.22, 41.07 44.15 C39.96 45.08, 38.75 45.93, 37.5 46.65 C36.25 47.37, 34.91 48, 33.55 48.49 C32.19 48.99, 30.77 49.37, 29.34 49.62 C27.92 49.87, 26.45 50, 25 50 C23.55 50, 22.08 49.87, 20.66 49.62 C19.23 49.37, 17.81 48.99, 16.45 48.49 C15.09 48, 13.75 47.37, 12.5 46.65 C11.25 45.93, 10.04 45.08, 8.93 44.15 C7.82 43.22, 6.78 42.18, 5.85 41.07 C4.92 39.96, 4.07 38.75, 3.35 37.5 C2.63 36.25, 2 34.91, 1.51 33.55 C1.01 32.19, 0.63 30.77, 0.38 29.34 C0.13 27.92, 0 26.45, 0 25 C0 23.55, 0.13 22.08, 0.38 20.66 C0.63 19.23, 1.01 17.81, 1.51 16.45 C2 15.09, 2.63 13.75, 3.35 12.5 C4.07 11.25, 4.92 10.04, 5.85 8.93 C6.78 7.82, 7.82 6.78, 8.93 5.85 C10.04 4.92, 11.25 4.07, 12.5 3.35 C13.75 2.63, 15.09 2, 16.45 1.51 C17.81 1.01, 19.23 0.63, 20.66 0.38 C22.08 0.13, 23.55 0, 25 0 C26.45 0, 27.92 0.13, 29.34 0.38 C30.77 0.63, 32.19 1.01, 33.55 1.51 C34.91 2, 36.25 2.63, 37.5 3.35 C38.75 4.07, 39.96 4.92, 41.07 5.85 C42.18 6.78, 43.22 7.82, 44.15 8.93 C45.08 10.04, 45.93 11.25, 46.65 12.5 C47.37 13.75, 48 15.09, 48.49 16.45 C48.99 17.81, 49.37 19.23, 49.62 20.66 C49.87 22.08, 49.94 24.28, 50 25 C50.06 25.72, 50.06 24.28, 50 25" stroke="none" stroke-width="0" fill="#ffffff"></path><path d="M50 25 C50 26.45, 49.87 27.92, 49.62 29.34 C49.37 30.77, 48.99 32.19, 48.49 33.55 C48 34.91, 47.37 36.25, 46.65 37.5 C45.93 38.75, 45.08 39.96, 44.15 41.07 C43.22 42.18, 42.18 43.22, 41.07 44.15 C39.96 45.08, 38.75 45.93, 37.5 46.65 C36.25 47.37, 34.91 48, 33.55 48.49 C32.19 48.99, 30.77 49.37, 29.34 49.62 C27.92 49.87, 26.45 50, 25 50 C23.55 50, 22.08 49.87, 20.66 49.62 C19.23 49.37, 17.81 48.99, 16.45 48.49 C15.09 48, 13.75 47.37, 12.5 46.65 C11.25 45.93, 10.04 45.08, 8.93 44.15 C7.82 43.22, 6.78 42.18, 5.85 41.07 C4.92 39.96, 4.07 38.75, 3.35 37.5 C2.63 36.25, 2 34.91, 1.51 33.55 C1.01 32.19, 0.63 30.77, 0.38 29.34 C0.13 27.92, 0 26.45, 0 25 C0 23.55, 0.13 22.08, 0.38 20.66 C0.63 19.23, 1.01 17.81, 1.51 16.45 C2 15.09, 2.63 13.75, 3.35 12.5 C4.07 11.25, 4.92 10.04, 5.85 8.93 C6.78 7.82, 7.82 6.78, 8.93 5.85 C10.04 4.92, 11.25 4.07, 12.5 3.35 C13.75 2.63, 15.09 2, 16.45 1.51 C17.81 1.01, 19.23 0.63, 20.66 0.38 C22.08 0.13, 23.55 0, 25 0 C26.45 0, 27.92 0.13, 29.34 0.38 C30.77 0.63, 32.19 1.01, 33.55 1.51 C34.91 2, 36.25 2.63, 37.5 3.35 C38.75 4.07, 39.96 4.92, 41.07 5.85 C42.18 6.78, 43.22 7.82, 44.15 8.93 C45.08 10.04, 45.93 11.25, 46.65 12.5 C47.37 13.75, 48 15.09, 48.49 16.45 C48.99 17.81, 49.37 19.23, 49.62 20.66 C49.87 22.08, 49.94 24.28, 50 25 C50.06 25.72, 50.06 24.28, 50 25" stroke="#000000" stroke-width="2" fill="none"></path></g><g stroke-linecap="round" transform="translate(740.5123541066689 403.9257221613698) rotate(0 15 10)"><path d="M0 0 L30 0 L30 20 L0 20" stroke="none" stroke-width="0" fill="#ffffff"></path><path d="M0 0 C6.72 0, 13.44 0, 30 0 M0 0 C6.25 0, 12.49 0, 30 0 M30 0 C30 4.4, 30 8.8, 30 20 M30 0 C30 6.01, 30 12.01, 30 20 M30 20 C21.49 20, 12.99 20, 0 20 M30 20 C20.15 20, 10.29 20, 0 20 M0 20 C0 13.75, 0 7.49, 0 0 M0 20 C0 13.46, 0 6.91, 0 0" stroke="#000000" stroke-width="2" fill="none"></path></g><g stroke-linecap="round"><g transform="translate(740.5123541066689 403.9257221613698) rotate(0 7.5 5)"><path d="M0 0 C2.5 1.67, 12.5 8.33, 15 10 M0 0 C2.5 1.67, 12.5 8.33, 15 10" stroke="#000000" stroke-width="2" fill="none"></path></g></g><mask></mask><g stroke-linecap="round"><g transform="translate(755.5123541066689 413.9257221613698) rotate(0 7.5 -5)"><path d="M0 0 C2.5 -1.67, 12.5 -8.33, 15 -10 M0 0 C2.5 -1.67, 12.5 -8.33, 15 -10" stroke="#000000" stroke-width="2" fill="none"></path></g></g><mask></mask><g stroke-linecap="round" transform="translate(1210.211600817792 386.41639245768056) rotate(0 30 30)"><path d="M60 30 C60 31.74, 59.85 33.5, 59.54 35.21 C59.24 36.92, 58.78 38.63, 58.19 40.26 C57.6 41.89, 56.85 43.5, 55.98 45 C55.11 46.5, 54.1 47.95, 52.98 49.28 C51.87 50.61, 50.61 51.87, 49.28 52.98 C47.95 54.1, 46.5 55.11, 45 55.98 C43.5 56.85, 41.89 57.6, 40.26 58.19 C38.63 58.78, 36.92 59.24, 35.21 59.54 C33.5 59.85, 31.74 60, 30 60 C28.26 60, 26.5 59.85, 24.79 59.54 C23.08 59.24, 21.37 58.78, 19.74 58.19 C18.11 57.6, 16.5 56.85, 15 55.98 C13.5 55.11, 12.05 54.1, 10.72 52.98 C9.39 51.87, 8.13 50.61, 7.02 49.28 C5.9 47.95, 4.89 46.5, 4.02 45 C3.15 43.5, 2.4 41.89, 1.81 40.26 C1.22 38.63, 0.76 36.92, 0.46 35.21 C0.15 33.5, 0 31.74, 0 30 C0 28.26, 0.15 26.5, 0.46 24.79 C0.76 23.08, 1.22 21.37, 1.81 19.74 C2.4 18.11, 3.15 16.5, 4.02 15 C4.89 13.5, 5.9 12.05, 7.02 10.72 C8.13 9.39, 9.39 8.13, 10.72 7.02 C12.05 5.9, 13.5 4.89, 15 4.02 C16.5 3.15, 18.11 2.4, 19.74 1.81 C21.37 1.22, 23.08 0.76, 24.79 0.46 C26.5 0.15, 28.26 0, 30 0 C31.74 0, 33.5 0.15, 35.21 0.46 C36.92 0.76, 38.63 1.22, 40.26 1.81 C41.89 2.4, 43.5 3.15, 45 4.02 C46.5 4.89, 47.95 5.9, 49.28 7.02 C50.61 8.13, 51.87 9.39, 52.98 10.72 C54.1 12.05, 55.11 13.5, 55.98 15 C56.85 16.5, 57.6 18.11, 58.19 19.74 C58.78 21.37, 59.24 23.08, 59.54 24.79 C59.85 26.5, 59.92 29.13, 60 30 C60.08 30.87, 60.08 29.13, 60 30" stroke="none" stroke-width="0" fill="#ffffff"></path><path d="M60 30 C60 31.74, 59.85 33.5, 59.54 35.21 C59.24 36.92, 58.78 38.63, 58.19 40.26 C57.6 41.89, 56.85 43.5, 55.98 45 C55.11 46.5, 54.1 47.95, 52.98 49.28 C51.87 50.61, 50.61 51.87, 49.28 52.98 C47.95 54.1, 46.5 55.11, 45 55.98 C43.5 56.85, 41.89 57.6, 40.26 58.19 C38.63 58.78, 36.92 59.24, 35.21 59.54 C33.5 59.85, 31.74 60, 30 60 C28.26 60, 26.5 59.85, 24.79 59.54 C23.08 59.24, 21.37 58.78, 19.74 58.19 C18.11 57.6, 16.5 56.85, 15 55.98 C13.5 55.11, 12.05 54.1, 10.72 52.98 C9.39 51.87, 8.13 50.61, 7.02 49.28 C5.9 47.95, 4.89 46.5, 4.02 45 C3.15 43.5, 2.4 41.89, 1.81 40.26 C1.22 38.63, 0.76 36.92, 0.46 35.21 C0.15 33.5, 0 31.74, 0 30 C0 28.26, 0.15 26.5, 0.46 24.79 C0.76 23.08, 1.22 21.37, 1.81 19.74 C2.4 18.11, 3.15 16.5, 4.02 15 C4.89 13.5, 5.9 12.05, 7.02 10.72 C8.13 9.39, 9.39 8.13, 10.72 7.02 C12.05 5.9, 13.5 4.89, 15 4.02 C16.5 3.15, 18.11 2.4, 19.74 1.81 C21.37 1.22, 23.08 0.76, 24.79 0.46 C26.5 0.15, 28.26 0, 30 0 C31.74 0, 33.5 0.15, 35.21 0.46 C36.92 0.76, 38.63 1.22, 40.26 1.81 C41.89 2.4, 43.5 3.15, 45 4.02 C46.5 4.89, 47.95 5.9, 49.28 7.02 C50.61 8.13, 51.87 9.39, 52.98 10.72 C54.1 12.05, 55.11 13.5, 55.98 15 C56.85 16.5, 57.6 18.11, 58.19 19.74 C58.78 21.37, 59.24 23.08, 59.54 24.79 C59.85 26.5, 59.92 29.13, 60 30 C60.08 30.87, 60.08 29.13, 60 30" stroke="#000000" stroke-width="6" fill="none"></path></g><g stroke-linecap="round"><g transform="translate(294.1184315599339 416.2839693481228) rotate(0 57.341003044268746 0.31530138787331907)"><path d="M0 0 C19.11 0.11, 95.57 0.53, 114.68 0.63 M0 0 C19.11 0.11, 95.57 0.53, 114.68 0.63" stroke="#000000" stroke-width="2" fill="none"></path></g><g transform="translate(294.1184315599339 416.2839693481228) rotate(0 57.341003044268746 0.31530138787331907)"><path d="M114.68 0.63 L101.05 6.9 L101.12 -5.78 L114.68 0.63" stroke="none" stroke-width="0" fill="#000000" fill-rule="evenodd"></path><path d="M114.68 0.63 C111.6 2.05, 108.52 3.46, 101.05 6.9 M114.68 0.63 C111.7 2, 108.72 3.37, 101.05 6.9 M101.05 6.9 C101.08 1.99, 101.11 -2.92, 101.12 -5.78 M101.05 6.9 C101.07 3, 101.1 -0.89, 101.12 -5.78 M101.12 -5.78 C103.85 -4.49, 106.58 -3.2, 114.68 0.63 M101.12 -5.78 C104.67 -4.11, 108.22 -2.43, 114.68 0.63 M114.68 0.63 C114.68 0.63, 114.68 0.63, 114.68 0.63 M114.68 0.63 C114.68 0.63, 114.68 0.63, 114.68 0.63" stroke="#000000" stroke-width="2" fill="none"></path></g></g><mask></mask><g stroke-linecap="round"><g transform="translate(611.0490682510119 413.8085895749755) rotate(0 57.78530674110857 0.3906101443658372)"><path d="M0 0 C19.26 0.13, 96.31 0.65, 115.57 0.78 M0 0 C19.26 0.13, 96.31 0.65, 115.57 0.78" stroke="#000000" stroke-width="2" fill="none"></path></g><g transform="translate(611.0490682510119 413.8085895749755) rotate(0 57.78530674110857 0.3906101443658372)"><path d="M115.57 0.78 L101.93 7.03 L102.02 -5.65 L115.57 0.78" stroke="none" stroke-width="0" fill="#000000" fill-rule="evenodd"></path><path d="M115.57 0.78 C110.49 3.11, 105.42 5.43, 101.93 7.03 M115.57 0.78 C112.11 2.37, 108.65 3.95, 101.93 7.03 M101.93 7.03 C101.96 3.4, 101.98 -0.23, 102.02 -5.65 M101.93 7.03 C101.96 3.17, 101.99 -0.69, 102.02 -5.65 M102.02 -5.65 C105.08 -4.2, 108.15 -2.74, 115.57 0.78 M102.02 -5.65 C107.3 -3.15, 112.57 -0.64, 115.57 0.78 M115.57 0.78 C115.57 0.78, 115.57 0.78, 115.57 0.78 M115.57 0.78 C115.57 0.78, 115.57 0.78, 115.57 0.78" stroke="#000000" stroke-width="2" fill="none"></path></g></g><mask></mask><g stroke-linecap="round"><g transform="translate(788.4803357080712 415.7089657763663) rotate(0 51.26433917760494 0.10495757540934392)"><path d="M0 0 C17.09 0.03, 85.44 0.17, 102.53 0.21 M0 0 C17.09 0.03, 85.44 0.17, 102.53 0.21" stroke="#000000" stroke-width="2" fill="none"></path></g><g transform="translate(788.4803357080712 415.7089657763663) rotate(0 51.26433917760494 0.10495757540934392)"><path d="M102.53 0.21 L88.92 6.52 L88.95 -6.16 L102.53 0.21" stroke="none" stroke-width="0" fill="#000000" fill-rule="evenodd"></path><path d="M102.53 0.21 C99.18 1.76, 95.82 3.32, 88.92 6.52 M102.53 0.21 C98.2 2.22, 93.88 4.22, 88.92 6.52 M88.92 6.52 C88.93 3.41, 88.93 0.3, 88.95 -6.16 M88.92 6.52 C88.93 2.23, 88.94 -2.06, 88.95 -6.16 M88.95 -6.16 C92.28 -4.59, 95.61 -3.03, 102.53 0.21 M88.95 -6.16 C94.12 -3.73, 99.29 -1.31, 102.53 0.21 M102.53 0.21 C102.53 0.21, 102.53 0.21, 102.53 0.21 M102.53 0.21 C102.53 0.21, 102.53 0.21, 102.53 0.21" stroke="#000000" stroke-width="2" fill="none"></path></g></g><mask></mask><g stroke-linecap="round" transform="translate(895.3711931486016 361.9330795081569) rotate(0 100 50)"><path d="M25 0 L175 0 L180.86 0.39 L190.23 3.52 L193.75 6.25 L196.48 9.77 L199.61 19.14 L200 75 L199.61 80.86 L196.48 90.23 L193.75 93.75 L190.23 96.48 L185.94 98.44 L175 100 L25 100 L14.06 98.44 L9.77 96.48 L6.25 93.75 L3.52 90.23 L0.39 80.86 L0.39 19.14 L3.52 9.77 L6.25 6.25 L9.77 3.52 L14.06 1.56 L25 0" stroke="none" stroke-width="0" fill="#ffffff"></path><path d="M25 0 M25 0 C64.24 0, 103.48 0, 175 0 M25 0 C71.9 0, 118.81 0, 175 0 M175 0 C191.67 0, 200 8.33, 200 25 M175 0 C191.67 0, 200 8.33, 200 25 M200 25 C200 38.52, 200 52.05, 200 75 M200 25 C200 40.85, 200 56.7, 200 75 M200 75 C200 91.67, 191.67 100, 175 100 M200 75 C200 91.67, 191.67 100, 175 100 M175 100 C130.87 100, 86.74 100, 25 100 M175 100 C141.37 100, 107.74 100, 25 100 M25 100 C8.33 100, 0 91.67, 0 75 M25 100 C8.33 100, 0 91.67, 0 75 M0 75 C0 57.02, 0 39.04, 0 25 M0 75 C0 60.67, 0 46.34, 0 25 M0 25 C0 8.33, 8.33 0, 25 0 M0 25 C0 8.33, 8.33 0, 25 0" stroke="#000000" stroke-width="2" fill="none"></path></g><g stroke-linecap="round"><g transform="translate(1097.242853960702 415.9181937332414) rotate(0 54.298239272262435 0.00003610664964526222)"><path d="M0 0 C18.1 0, 90.5 0, 108.6 0 M0 0 C18.1 0, 90.5 0, 108.6 0" stroke="#000000" stroke-width="2" fill="none"></path></g><g transform="translate(1097.242853960702 415.9181937332414) rotate(0 54.298239272262435 0.00003610664964526222)"><path d="M108.6 0 L95 6.34 L95 -6.34 L108.6 0" stroke="none" stroke-width="0" fill="#000000" fill-rule="evenodd"></path><path d="M108.6 0 C105.13 1.62, 101.66 3.23, 95 6.34 M108.6 0 C104.2 2.05, 99.8 4.1, 95 6.34 M95 6.34 C95 2.56, 95 -1.21, 95 -6.34 M95 6.34 C95 3.58, 95 0.82, 95 -6.34 M95 -6.34 C98.86 -4.54, 102.71 -2.74, 108.6 0 M95 -6.34 C100.33 -3.86, 105.65 -1.37, 108.6 0 M108.6 0 C108.6 0, 108.6 0, 108.6 0 M108.6 0 C108.6 0, 108.6 0, 108.6 0" stroke="#000000" stroke-width="2" fill="none"></path></g></g><mask></mask><g stroke-linecap="round" transform="translate(244.406737513003 418.4754766831734) rotate(0 30 30)"><path d="M60 30 C60 31.74, 59.85 33.5, 59.54 35.21 C59.24 36.92, 58.78 38.63, 58.19 40.26 C57.6 41.89, 56.85 43.5, 55.98 45 C55.11 46.5, 54.1 47.95, 52.98 49.28 C51.87 50.61, 50.61 51.87, 49.28 52.98 C47.95 54.1, 46.5 55.11, 45 55.98 C43.5 56.85, 41.89 57.6, 40.26 58.19 C38.63 58.78, 36.92 59.24, 35.21 59.54 C33.5 59.85, 31.74 60, 30 60 C28.26 60, 26.5 59.85, 24.79 59.54 C23.08 59.24, 21.37 58.78, 19.74 58.19 C18.11 57.6, 16.5 56.85, 15 55.98 C13.5 55.11, 12.05 54.1, 10.72 52.98 C9.39 51.87, 8.13 50.61, 7.02 49.28 C5.9 47.95, 4.89 46.5, 4.02 45 C3.15 43.5, 2.4 41.89, 1.81 40.26 C1.22 38.63, 0.76 36.92, 0.46 35.21 C0.15 33.5, 0 31.74, 0 30 C0 28.26, 0.15 26.5, 0.46 24.79 C0.76 23.08, 1.22 21.37, 1.81 19.74 C2.4 18.11, 3.15 16.5, 4.02 15 C4.89 13.5, 5.9 12.05, 7.02 10.72 C8.13 9.39, 9.39 8.13, 10.72 7.02 C12.05 5.9, 13.5 4.89, 15 4.02 C16.5 3.15, 18.11 2.4, 19.74 1.81 C21.37 1.22, 23.08 0.76, 24.79 0.46 C26.5 0.15, 28.26 0, 30 0 C31.74 0, 33.5 0.15, 35.21 0.46 C36.92 0.76, 38.63 1.22, 40.26 1.81 C41.89 2.4, 43.5 3.15, 45 4.02 C46.5 4.89, 47.95 5.9, 49.28 7.02 C50.61 8.13, 51.87 9.39, 52.98 10.72 C54.1 12.05, 55.11 13.5, 55.98 15 C56.85 16.5, 57.6 18.11, 58.19 19.74 C58.78 21.37, 59.24 23.08, 59.54 24.79 C59.85 26.5, 59.92 29.13, 60 30 C60.08 30.87, 60.08 29.13, 60 30" stroke="none" stroke-width="0" fill="#ffffff"></path><path d="M60 30 C60 31.74, 59.85 33.5, 59.54 35.21 C59.24 36.92, 58.78 38.63, 58.19 40.26 C57.6 41.89, 56.85 43.5, 55.98 45 C55.11 46.5, 54.1 47.95, 52.98 49.28 C51.87 50.61, 50.61 51.87, 49.28 52.98 C47.95 54.1, 46.5 55.11, 45 55.98 C43.5 56.85, 41.89 57.6, 40.26 58.19 C38.63 58.78, 36.92 59.24, 35.21 59.54 C33.5 59.85, 31.74 60, 30 60 C28.26 60, 26.5 59.85, 24.79 59.54 C23.08 59.24, 21.37 58.78, 19.74 58.19 C18.11 57.6, 16.5 56.85, 15 55.98 C13.5 55.11, 12.05 54.1, 10.72 52.98 C9.39 51.87, 8.13 50.61, 7.02 49.28 C5.9 47.95, 4.89 46.5, 4.02 45 C3.15 43.5, 2.4 41.89, 1.81 40.26 C1.22 38.63, 0.76 36.92, 0.46 35.21 C0.15 33.5, 0 31.74, 0 30 C0 28.26, 0.15 26.5, 0.46 24.79 C0.76 23.08, 1.22 21.37, 1.81 19.74 C2.4 18.11, 3.15 16.5, 4.02 15 C4.89 13.5, 5.9 12.05, 7.02 10.72 C8.13 9.39, 9.39 8.13, 10.72 7.02 C12.05 5.9, 13.5 4.89, 15 4.02 C16.5 3.15, 18.11 2.4, 19.74 1.81 C21.37 1.22, 23.08 0.76, 24.79 0.46 C26.5 0.15, 28.26 0, 30 0 C31.74 0, 33.5 0.15, 35.21 0.46 C36.92 0.76, 38.63 1.22, 40.26 1.81 C41.89 2.4, 43.5 3.15, 45 4.02 C46.5 4.89, 47.95 5.9, 49.28 7.02 C50.61 8.13, 51.87 9.39, 52.98 10.72 C54.1 12.05, 55.11 13.5, 55.98 15 C56.85 16.5, 57.6 18.11, 58.19 19.74 C58.78 21.37, 59.24 23.08, 59.54 24.79 C59.85 26.5, 59.92 29.13, 60 30 C60.08 30.87, 60.08 29.13, 60 30" stroke="#000000" stroke-width="2" fill="none"></path></g><g stroke-linecap="round" transform="translate(421.48880165695414 400.46819534793076) rotate(0 100 50)"><path d="M25 0 L175 0 L180.86 0.39 L190.23 3.52 L193.75 6.25 L196.48 9.77 L199.61 19.14 L200 75 L199.61 80.86 L196.48 90.23 L193.75 93.75 L190.23 96.48 L185.94 98.44 L175 100 L25 100 L14.06 98.44 L9.77 96.48 L6.25 93.75 L3.52 90.23 L0.39 80.86 L0.39 19.14 L3.52 9.77 L6.25 6.25 L9.77 3.52 L14.06 1.56 L25 0" stroke="none" stroke-width="0" fill="#ffffff"></path><path d="M25 0 M25 0 C67.8 0, 110.61 0, 175 0 M25 0 C63.39 0, 101.79 0, 175 0 M175 0 C191.67 0, 200 8.33, 200 25 M175 0 C191.67 0, 200 8.33, 200 25 M200 25 C200 35.1, 200 45.19, 200 75 M200 25 C200 44.97, 200 64.95, 200 75 M200 75 C200 91.67, 191.67 100, 175 100 M200 75 C200 91.67, 191.67 100, 175 100 M175 100 C127.16 100, 79.32 100, 25 100 M175 100 C118.62 100, 62.24 100, 25 100 M25 100 C8.33 100, 0 91.67, 0 75 M25 100 C8.33 100, 0 91.67, 0 75 M0 75 C0 58.83, 0 42.66, 0 25 M0 75 C0 56.31, 0 37.61, 0 25 M0 25 C0 8.33, 8.33 0, 25 0 M0 25 C0 8.33, 8.33 0, 25 0" stroke="#000000" stroke-width="2" fill="none"></path></g><g transform="translate(451.9588333952354 440.46819534793076) rotate(0 63.719940185546875 12.5)"><text x="63.719940185546875" y="0" font-family="Virgil, Segoe UI Emoji" font-size="20px" fill="#000000" text-anchor="middle" style="white-space: pre;" direction="ltr" dominant-baseline="text-before-edge">send request</text></g><g stroke-linecap="round" transform="translate(738.2146135312589 417.3465084329414) rotate(0 30 30)"><path d="M60 30 C60 31.74, 59.85 33.5, 59.54 35.21 C59.24 36.92, 58.78 38.63, 58.19 40.26 C57.6 41.89, 56.85 43.5, 55.98 45 C55.11 46.5, 54.1 47.95, 52.98 49.28 C51.87 50.61, 50.61 51.87, 49.28 52.98 C47.95 54.1, 46.5 55.11, 45 55.98 C43.5 56.85, 41.89 57.6, 40.26 58.19 C38.63 58.78, 36.92 59.24, 35.21 59.54 C33.5 59.85, 31.74 60, 30 60 C28.26 60, 26.5 59.85, 24.79 59.54 C23.08 59.24, 21.37 58.78, 19.74 58.19 C18.11 57.6, 16.5 56.85, 15 55.98 C13.5 55.11, 12.05 54.1, 10.72 52.98 C9.39 51.87, 8.13 50.61, 7.02 49.28 C5.9 47.95, 4.89 46.5, 4.02 45 C3.15 43.5, 2.4 41.89, 1.81 40.26 C1.22 38.63, 0.76 36.92, 0.46 35.21 C0.15 33.5, 0 31.74, 0 30 C0 28.26, 0.15 26.5, 0.46 24.79 C0.76 23.08, 1.22 21.37, 1.81 19.74 C2.4 18.11, 3.15 16.5, 4.02 15 C4.89 13.5, 5.9 12.05, 7.02 10.72 C8.13 9.39, 9.39 8.13, 10.72 7.02 C12.05 5.9, 13.5 4.89, 15 4.02 C16.5 3.15, 18.11 2.4, 19.74 1.81 C21.37 1.22, 23.08 0.76, 24.79 0.46 C26.5 0.15, 28.26 0, 30 0 C31.74 0, 33.5 0.15, 35.21 0.46 C36.92 0.76, 38.63 1.22, 40.26 1.81 C41.89 2.4, 43.5 3.15, 45 4.02 C46.5 4.89, 47.95 5.9, 49.28 7.02 C50.61 8.13, 51.87 9.39, 52.98 10.72 C54.1 12.05, 55.11 13.5, 55.98 15 C56.85 16.5, 57.6 18.11, 58.19 19.74 C58.78 21.37, 59.24 23.08, 59.54 24.79 C59.85 26.5, 59.92 29.13, 60 30 C60.08 30.87, 60.08 29.13, 60 30" stroke="none" stroke-width="0" fill="#ffffff"></path><path d="M60 30 C60 31.74, 59.85 33.5, 59.54 35.21 C59.24 36.92, 58.78 38.63, 58.19 40.26 C57.6 41.89, 56.85 43.5, 55.98 45 C55.11 46.5, 54.1 47.95, 52.98 49.28 C51.87 50.61, 50.61 51.87, 49.28 52.98 C47.95 54.1, 46.5 55.11, 45 55.98 C43.5 56.85, 41.89 57.6, 40.26 58.19 C38.63 58.78, 36.92 59.24, 35.21 59.54 C33.5 59.85, 31.74 60, 30 60 C28.26 60, 26.5 59.85, 24.79 59.54 C23.08 59.24, 21.37 58.78, 19.74 58.19 C18.11 57.6, 16.5 56.85, 15 55.98 C13.5 55.11, 12.05 54.1, 10.72 52.98 C9.39 51.87, 8.13 50.61, 7.02 49.28 C5.9 47.95, 4.89 46.5, 4.02 45 C3.15 43.5, 2.4 41.89, 1.81 40.26 C1.22 38.63, 0.76 36.92, 0.46 35.21 C0.15 33.5, 0 31.74, 0 30 C0 28.26, 0.15 26.5, 0.46 24.79 C0.76 23.08, 1.22 21.37, 1.81 19.74 C2.4 18.11, 3.15 16.5, 4.02 15 C4.89 13.5, 5.9 12.05, 7.02 10.72 C8.13 9.39, 9.39 8.13, 10.72 7.02 C12.05 5.9, 13.5 4.89, 15 4.02 C16.5 3.15, 18.11 2.4, 19.74 1.81 C21.37 1.22, 23.08 0.76, 24.79 0.46 C26.5 0.15, 28.26 0, 30 0 C31.74 0, 33.5 0.15, 35.21 0.46 C36.92 0.76, 38.63 1.22, 40.26 1.81 C41.89 2.4, 43.5 3.15, 45 4.02 C46.5 4.89, 47.95 5.9, 49.28 7.02 C50.61 8.13, 51.87 9.39, 52.98 10.72 C54.1 12.05, 55.11 13.5, 55.98 15 C56.85 16.5, 57.6 18.11, 58.19 19.74 C58.78 21.37, 59.24 23.08, 59.54 24.79 C59.85 26.5, 59.92 29.13, 60 30 C60.08 30.87, 60.08 29.13, 60 30" stroke="#000000" stroke-width="2" fill="none"></path></g><g stroke-linecap="round" transform="translate(743.2146135312589 422.3465084329414) rotate(0 25 25)"><path d="M50 25 C50 26.45, 49.87 27.92, 49.62 29.34 C49.37 30.77, 48.99 32.19, 48.49 33.55 C48 34.91, 47.37 36.25, 46.65 37.5 C45.93 38.75, 45.08 39.96, 44.15 41.07 C43.22 42.18, 42.18 43.22, 41.07 44.15 C39.96 45.08, 38.75 45.93, 37.5 46.65 C36.25 47.37, 34.91 48, 33.55 48.49 C32.19 48.99, 30.77 49.37, 29.34 49.62 C27.92 49.87, 26.45 50, 25 50 C23.55 50, 22.08 49.87, 20.66 49.62 C19.23 49.37, 17.81 48.99, 16.45 48.49 C15.09 48, 13.75 47.37, 12.5 46.65 C11.25 45.93, 10.04 45.08, 8.93 44.15 C7.82 43.22, 6.78 42.18, 5.85 41.07 C4.92 39.96, 4.07 38.75, 3.35 37.5 C2.63 36.25, 2 34.91, 1.51 33.55 C1.01 32.19, 0.63 30.77, 0.38 29.34 C0.13 27.92, 0 26.45, 0 25 C0 23.55, 0.13 22.08, 0.38 20.66 C0.63 19.23, 1.01 17.81, 1.51 16.45 C2 15.09, 2.63 13.75, 3.35 12.5 C4.07 11.25, 4.92 10.04, 5.85 8.93 C6.78 7.82, 7.82 6.78, 8.93 5.85 C10.04 4.92, 11.25 4.07, 12.5 3.35 C13.75 2.63, 15.09 2, 16.45 1.51 C17.81 1.01, 19.23 0.63, 20.66 0.38 C22.08 0.13, 23.55 0, 25 0 C26.45 0, 27.92 0.13, 29.34 0.38 C30.77 0.63, 32.19 1.01, 33.55 1.51 C34.91 2, 36.25 2.63, 37.5 3.35 C38.75 4.07, 39.96 4.92, 41.07 5.85 C42.18 6.78, 43.22 7.82, 44.15 8.93 C45.08 10.04, 45.93 11.25, 46.65 12.5 C47.37 13.75, 48 15.09, 48.49 16.45 C48.99 17.81, 49.37 19.23, 49.62 20.66 C49.87 22.08, 49.94 24.28, 50 25 C50.06 25.72, 50.06 24.28, 50 25" stroke="none" stroke-width="0" fill="#ffffff"></path><path d="M50 25 C50 26.45, 49.87 27.92, 49.62 29.34 C49.37 30.77, 48.99 32.19, 48.49 33.55 C48 34.91, 47.37 36.25, 46.65 37.5 C45.93 38.75, 45.08 39.96, 44.15 41.07 C43.22 42.18, 42.18 43.22, 41.07 44.15 C39.96 45.08, 38.75 45.93, 37.5 46.65 C36.25 47.37, 34.91 48, 33.55 48.49 C32.19 48.99, 30.77 49.37, 29.34 49.62 C27.92 49.87, 26.45 50, 25 50 C23.55 50, 22.08 49.87, 20.66 49.62 C19.23 49.37, 17.81 48.99, 16.45 48.49 C15.09 48, 13.75 47.37, 12.5 46.65 C11.25 45.93, 10.04 45.08, 8.93 44.15 C7.82 43.22, 6.78 42.18, 5.85 41.07 C4.92 39.96, 4.07 38.75, 3.35 37.5 C2.63 36.25, 2 34.91, 1.51 33.55 C1.01 32.19, 0.63 30.77, 0.38 29.34 C0.13 27.92, 0 26.45, 0 25 C0 23.55, 0.13 22.08, 0.38 20.66 C0.63 19.23, 1.01 17.81, 1.51 16.45 C2 15.09, 2.63 13.75, 3.35 12.5 C4.07 11.25, 4.92 10.04, 5.85 8.93 C6.78 7.82, 7.82 6.78, 8.93 5.85 C10.04 4.92, 11.25 4.07, 12.5 3.35 C13.75 2.63, 15.09 2, 16.45 1.51 C17.81 1.01, 19.23 0.63, 20.66 0.38 C22.08 0.13, 23.55 0, 25 0 C26.45 0, 27.92 0.13, 29.34 0.38 C30.77 0.63, 32.19 1.01, 33.55 1.51 C34.91 2, 36.25 2.63, 37.5 3.35 C38.75 4.07, 39.96 4.92, 41.07 5.85 C42.18 6.78, 43.22 7.82, 44.15 8.93 C45.08 10.04, 45.93 11.25, 46.65 12.5 C47.37 13.75, 48 15.09, 48.49 16.45 C48.99 17.81, 49.37 19.23, 49.62 20.66 C49.87 22.08, 49.94 24.28, 50 25 C50.06 25.72, 50.06 24.28, 50 25" stroke="#000000" stroke-width="2" fill="none"></path></g><g stroke-linecap="round" transform="translate(753.2146135312589 437.3465084329414) rotate(0 15 10)"><path d="M0 0 L30 0 L30 20 L0 20" stroke="none" stroke-width="0" fill="#ffffff"></path><path d="M0 0 C6.56 0, 13.11 0, 30 0 M0 0 C11.61 0, 23.22 0, 30 0 M30 0 C30 6.14, 30 12.28, 30 20 M30 0 C30 4.03, 30 8.05, 30 20 M30 20 C22.15 20, 14.3 20, 0 20 M30 20 C22.66 20, 15.32 20, 0 20 M0 20 C0 14.59, 0 9.18, 0 0 M0 20 C0 15.16, 0 10.33, 0 0" stroke="#000000" stroke-width="2" fill="none"></path></g><g stroke-linecap="round"><g transform="translate(753.2146135312589 437.3465084329414) rotate(0 7.5 5)"><path d="M0 0 C2.5 1.67, 12.5 8.33, 15 10 M0 0 C2.5 1.67, 12.5 8.33, 15 10" stroke="#000000" stroke-width="2" fill="none"></path></g></g><mask></mask><g stroke-linecap="round"><g transform="translate(768.2146135312589 447.3465084329414) rotate(0 7.5 -5)"><path d="M0 0 C2.5 -1.67, 12.5 -8.33, 15 -10 M0 0 C2.5 -1.67, 12.5 -8.33, 15 -10" stroke="#000000" stroke-width="2" fill="none"></path></g></g><mask></mask><g stroke-linecap="round" transform="translate(1221.847275213043 417.40774143034264) rotate(0 30 30)"><path d="M60 30 C60 31.74, 59.85 33.5, 59.54 35.21 C59.24 36.92, 58.78 38.63, 58.19 40.26 C57.6 41.89, 56.85 43.5, 55.98 45 C55.11 46.5, 54.1 47.95, 52.98 49.28 C51.87 50.61, 50.61 51.87, 49.28 52.98 C47.95 54.1, 46.5 55.11, 45 55.98 C43.5 56.85, 41.89 57.6, 40.26 58.19 C38.63 58.78, 36.92 59.24, 35.21 59.54 C33.5 59.85, 31.74 60, 30 60 C28.26 60, 26.5 59.85, 24.79 59.54 C23.08 59.24, 21.37 58.78, 19.74 58.19 C18.11 57.6, 16.5 56.85, 15 55.98 C13.5 55.11, 12.05 54.1, 10.72 52.98 C9.39 51.87, 8.13 50.61, 7.02 49.28 C5.9 47.95, 4.89 46.5, 4.02 45 C3.15 43.5, 2.4 41.89, 1.81 40.26 C1.22 38.63, 0.76 36.92, 0.46 35.21 C0.15 33.5, 0 31.74, 0 30 C0 28.26, 0.15 26.5, 0.46 24.79 C0.76 23.08, 1.22 21.37, 1.81 19.74 C2.4 18.11, 3.15 16.5, 4.02 15 C4.89 13.5, 5.9 12.05, 7.02 10.72 C8.13 9.39, 9.39 8.13, 10.72 7.02 C12.05 5.9, 13.5 4.89, 15 4.02 C16.5 3.15, 18.11 2.4, 19.74 1.81 C21.37 1.22, 23.08 0.76, 24.79 0.46 C26.5 0.15, 28.26 0, 30 0 C31.74 0, 33.5 0.15, 35.21 0.46 C36.92 0.76, 38.63 1.22, 40.26 1.81 C41.89 2.4, 43.5 3.15, 45 4.02 C46.5 4.89, 47.95 5.9, 49.28 7.02 C50.61 8.13, 51.87 9.39, 52.98 10.72 C54.1 12.05, 55.11 13.5, 55.98 15 C56.85 16.5, 57.6 18.11, 58.19 19.74 C58.78 21.37, 59.24 23.08, 59.54 24.79 C59.85 26.5, 59.92 29.13, 60 30 C60.08 30.87, 60.08 29.13, 60 30" stroke="none" stroke-width="0" fill="#ffffff"></path><path d="M60 30 C60 31.74, 59.85 33.5, 59.54 35.21 C59.24 36.92, 58.78 38.63, 58.19 40.26 C57.6 41.89, 56.85 43.5, 55.98 45 C55.11 46.5, 54.1 47.95, 52.98 49.28 C51.87 50.61, 50.61 51.87, 49.28 52.98 C47.95 54.1, 46.5 55.11, 45 55.98 C43.5 56.85, 41.89 57.6, 40.26 58.19 C38.63 58.78, 36.92 59.24, 35.21 59.54 C33.5 59.85, 31.74 60, 30 60 C28.26 60, 26.5 59.85, 24.79 59.54 C23.08 59.24, 21.37 58.78, 19.74 58.19 C18.11 57.6, 16.5 56.85, 15 55.98 C13.5 55.11, 12.05 54.1, 10.72 52.98 C9.39 51.87, 8.13 50.61, 7.02 49.28 C5.9 47.95, 4.89 46.5, 4.02 45 C3.15 43.5, 2.4 41.89, 1.81 40.26 C1.22 38.63, 0.76 36.92, 0.46 35.21 C0.15 33.5, 0 31.74, 0 30 C0 28.26, 0.15 26.5, 0.46 24.79 C0.76 23.08, 1.22 21.37, 1.81 19.74 C2.4 18.11, 3.15 16.5, 4.02 15 C4.89 13.5, 5.9 12.05, 7.02 10.72 C8.13 9.39, 9.39 8.13, 10.72 7.02 C12.05 5.9, 13.5 4.89, 15 4.02 C16.5 3.15, 18.11 2.4, 19.74 1.81 C21.37 1.22, 23.08 0.76, 24.79 0.46 C26.5 0.15, 28.26 0, 30 0 C31.74 0, 33.5 0.15, 35.21 0.46 C36.92 0.76, 38.63 1.22, 40.26 1.81 C41.89 2.4, 43.5 3.15, 45 4.02 C46.5 4.89, 47.95 5.9, 49.28 7.02 C50.61 8.13, 51.87 9.39, 52.98 10.72 C54.1 12.05, 55.11 13.5, 55.98 15 C56.85 16.5, 57.6 18.11, 58.19 19.74 C58.78 21.37, 59.24 23.08, 59.54 24.79 C59.85 26.5, 59.92 29.13, 60 30 C60.08 30.87, 60.08 29.13, 60 30" stroke="#000000" stroke-width="6" fill="none"></path></g><g stroke-linecap="round"><g transform="translate(308.21233106612 451.41001633654764) rotate(0 55.06727297280463 0.32860234064025917)"><path d="M0 0 C18.36 0.11, 91.78 0.55, 110.13 0.66 M0 0 C18.36 0.11, 91.78 0.55, 110.13 0.66" stroke="#000000" stroke-width="2" fill="none"></path></g><g transform="translate(308.21233106612 451.41001633654764) rotate(0 55.06727297280463 0.32860234064025917)"><path d="M110.13 0.66 L96.5 6.92 L96.58 -5.76 L110.13 0.66" stroke="none" stroke-width="0" fill="#000000" fill-rule="evenodd"></path><path d="M110.13 0.66 C105.72 2.68, 101.31 4.71, 96.5 6.92 M110.13 0.66 C106.08 2.52, 102.02 4.38, 96.5 6.92 M96.5 6.92 C96.52 4.15, 96.54 1.39, 96.58 -5.76 M96.5 6.92 C96.52 3.32, 96.55 -0.28, 96.58 -5.76 M96.58 -5.76 C101.89 -3.25, 107.2 -0.73, 110.13 0.66 M96.58 -5.76 C100.52 -3.9, 104.46 -2.03, 110.13 0.66 M110.13 0.66 C110.13 0.66, 110.13 0.66, 110.13 0.66 M110.13 0.66 C110.13 0.66, 110.13 0.66, 110.13 0.66" stroke="#000000" stroke-width="2" fill="none"></path></g></g><mask></mask><g stroke-linecap="round"><g transform="translate(625.1038632660805 448.56490107992227) rotate(0 57.109038945869315 -0.1454063608304068)"><path d="M0 0 C19.04 -0.05, 95.18 -0.24, 114.22 -0.29 M0 0 C19.04 -0.05, 95.18 -0.24, 114.22 -0.29" stroke="#000000" stroke-width="2" fill="none"></path></g><g transform="translate(625.1038632660805 448.56490107992227) rotate(0 57.109038945869315 -0.1454063608304068)"><path d="M114.22 -0.29 L100.64 6.08 L100.61 -6.6 L114.22 -0.29" stroke="none" stroke-width="0" fill="#000000" fill-rule="evenodd"></path><path d="M114.22 -0.29 C111.23 1.11, 108.25 2.51, 100.64 6.08 M114.22 -0.29 C110.14 1.62, 106.06 3.54, 100.64 6.08 M100.64 6.08 C100.63 2.49, 100.62 -1.11, 100.61 -6.6 M100.64 6.08 C100.63 1.92, 100.62 -2.25, 100.61 -6.6 M100.61 -6.6 C104.86 -4.62, 109.12 -2.65, 114.22 -0.29 M100.61 -6.6 C105.06 -4.53, 109.52 -2.47, 114.22 -0.29 M114.22 -0.29 C114.22 -0.29, 114.22 -0.29, 114.22 -0.29 M114.22 -0.29 C114.22 -0.29, 114.22 -0.29, 114.22 -0.29" stroke="#000000" stroke-width="2" fill="none"></path></g></g><mask></mask><g stroke-linecap="round"><g transform="translate(801.1635634865727 449.4523254960086) rotate(0 51.950122795888774 0.5741576570188727)"><path d="M0 0 C17.32 0.19, 86.58 0.96, 103.9 1.15 M0 0 C17.32 0.19, 86.58 0.96, 103.9 1.15" stroke="#000000" stroke-width="2" fill="none"></path></g><g transform="translate(801.1635634865727 449.4523254960086) rotate(0 51.950122795888774 0.5741576570188727)"><path d="M103.9 1.15 L90.24 7.34 L90.38 -5.34 L103.9 1.15" stroke="none" stroke-width="0" fill="#000000" fill-rule="evenodd"></path><path d="M103.9 1.15 C99.16 3.29, 94.43 5.44, 90.24 7.34 M103.9 1.15 C99.44 3.17, 94.98 5.19, 90.24 7.34 M90.24 7.34 C90.29 2.85, 90.34 -1.64, 90.38 -5.34 M90.24 7.34 C90.29 2.67, 90.34 -1.99, 90.38 -5.34 M90.38 -5.34 C94.46 -3.38, 98.54 -1.42, 103.9 1.15 M90.38 -5.34 C95.52 -2.87, 100.66 -0.4, 103.9 1.15 M103.9 1.15 C103.9 1.15, 103.9 1.15, 103.9 1.15 M103.9 1.15 C103.9 1.15, 103.9 1.15, 103.9 1.15" stroke="#000000" stroke-width="2" fill="none"></path></g></g><mask></mask><g stroke-linecap="round" transform="translate(909.4259881636701 397.479269373885) rotate(0 100 50)"><path d="M25 0 L175 0 L180.86 0.39 L190.23 3.52 L193.75 6.25 L196.48 9.77 L199.61 19.14 L200 75 L199.61 80.86 L196.48 90.23 L193.75 93.75 L190.23 96.48 L185.94 98.44 L175 100 L25 100 L14.06 98.44 L9.77 96.48 L6.25 93.75 L3.52 90.23 L0.39 80.86 L0.39 19.14 L3.52 9.77 L6.25 6.25 L9.77 3.52 L14.06 1.56 L25 0" stroke="none" stroke-width="0" fill="#ffffff"></path><path d="M25 0 M25 0 C74.09 0, 123.17 0, 175 0 M25 0 C55.29 0, 85.58 0, 175 0 M175 0 C191.67 0, 200 8.33, 200 25 M175 0 C191.67 0, 200 8.33, 200 25 M200 25 C200 42.06, 200 59.12, 200 75 M200 25 C200 40.95, 200 56.89, 200 75 M200 75 C200 91.67, 191.67 100, 175 100 M200 75 C200 91.67, 191.67 100, 175 100 M175 100 C127.21 100, 79.42 100, 25 100 M175 100 C126.5 100, 77.99 100, 25 100 M25 100 C8.33 100, 0 91.67, 0 75 M25 100 C8.33 100, 0 91.67, 0 75 M0 75 C0 64.74, 0 54.48, 0 25 M0 75 C0 55.23, 0 35.47, 0 25 M0 25 C0 8.33, 8.33 0, 25 0 M0 25 C0 8.33, 8.33 0, 25 0" stroke="#000000" stroke-width="2" fill="none"></path></g><g transform="translate(962.3760080000959 424.979269373885) rotate(0 41.239952087402344 25)"><text x="41.239952087402344" y="0" font-family="Virgil, Segoe UI Emoji" font-size="20px" fill="#000000" text-anchor="middle" style="white-space: pre;" direction="ltr" dominant-baseline="text-before-edge">process </text><text x="41.239952087402344" y="25" font-family="Virgil, Segoe UI Emoji" font-size="20px" fill="#000000" text-anchor="middle" style="white-space: pre;" direction="ltr" dominant-baseline="text-before-edge">response</text></g><g stroke-linecap="round"><g transform="translate(1111.2976489757687 449.67796429928694) rotate(0 53.0871070831829 -1.045663226904253)"><path d="M0 0 C17.7 -0.35, 88.48 -1.74, 106.17 -2.09 M0 0 C17.7 -0.35, 88.48 -1.74, 106.17 -2.09" stroke="#000000" stroke-width="2" fill="none"></path></g><g transform="translate(1111.2976489757687 449.67796429928694) rotate(0 53.0871070831829 -1.045663226904253)"><path d="M106.17 -2.09 L92.71 4.51 L92.46 -8.16 L106.17 -2.09" stroke="none" stroke-width="0" fill="#000000" fill-rule="evenodd"></path><path d="M106.17 -2.09 C102.32 -0.2, 98.46 1.69, 92.71 4.51 M106.17 -2.09 C102.07 -0.08, 97.97 1.93, 92.71 4.51 M92.71 4.51 C92.65 1.65, 92.59 -1.22, 92.46 -8.16 M92.71 4.51 C92.61 -0.42, 92.51 -5.36, 92.46 -8.16 M92.46 -8.16 C96.9 -6.19, 101.35 -4.23, 106.17 -2.09 M92.46 -8.16 C96.12 -6.54, 99.78 -4.92, 106.17 -2.09 M106.17 -2.09 C106.17 -2.09, 106.17 -2.09, 106.17 -2.09 M106.17 -2.09 C106.17 -2.09, 106.17 -2.09, 106.17 -2.09" stroke="#000000" stroke-width="2" fill="none"></path></g></g><mask></mask><g transform="translate(222.59920670843985 498.3089102245849) rotate(0 57.239967346191406 20)"><text x="0" y="0" font-family="Virgil, Segoe UI Emoji" font-size="16px" fill="#000000" text-anchor="start" style="white-space: pre;" direction="ltr" dominant-baseline="text-before-edge">message to be</text><text x="0" y="20" font-family="Virgil, Segoe UI Emoji" font-size="16px" fill="#000000" text-anchor="start" style="white-space: pre;" direction="ltr" dominant-baseline="text-before-edge"> processed</text></g><g transform="translate(1218.8976158335938 491.33492697875045) rotate(0 37.82396697998047 20)"><text x="0" y="0" font-family="Virgil, Segoe UI Emoji" font-size="16px" fill="#000000" text-anchor="start" style="white-space: pre;" direction="ltr" dominant-baseline="text-before-edge">message</text><text x="0" y="20" font-family="Virgil, Segoe UI Emoji" font-size="16px" fill="#000000" text-anchor="start" style="white-space: pre;" direction="ltr" dominant-baseline="text-before-edge">processed</text></g><g transform="translate(703.8113857850997 497.8015908835696) rotate(0 66.91996002197266 10)"><text x="0" y="0" font-family="Virgil, Segoe UI Emoji" font-size="16px" fill="#000000" text-anchor="start" style="white-space: pre;" direction="ltr" dominant-baseline="text-before-edge">message received</text></g><g transform="translate(30.91787678028595 267.0320456233269) rotate(0 86.32794189453125 10)"><text x="0" y="0" font-family="Virgil, Segoe UI Emoji" font-size="16px" fill="#e67700" text-anchor="start" style="white-space: pre;" direction="ltr" dominant-baseline="text-before-edge">BPMN Process ID = 1</text></g><g transform="translate(34.12078068484516 402.1941383274259) rotate(0 72.22396087646484 10)"><text x="0" y="0" font-family="Virgil, Segoe UI Emoji" font-size="16px" fill="#000000" text-anchor="start" style="white-space: pre;" direction="ltr" dominant-baseline="text-before-edge">Process instance 1</text></g><g transform="translate(32.680708974678055 437.67516606511003) rotate(0 75.75196075439453 10)"><text x="0" y="0" font-family="Virgil, Segoe UI Emoji" font-size="16px" fill="#000000" text-anchor="start" style="white-space: pre;" direction="ltr" dominant-baseline="text-before-edge">Process instance 2</text></g><g stroke-opacity="0.3" fill-opacity="0.3" stroke-linecap="round" transform="translate(14.262825348826482 293.7762107544768) rotate(0 654.3507813257987 148.6141791406883)"><path d="M32 0 M32 0 C438.36 0, 844.71 0, 1276.7 0 M1276.7 0 C1298.03 0, 1308.7 10.67, 1308.7 32 M1308.7 32 C1308.7 114.56, 1308.7 197.12, 1308.7 265.23 M1308.7 265.23 C1308.7 286.56, 1298.03 297.23, 1276.7 297.23 M1276.7 297.23 C818.61 297.23, 360.51 297.23, 32 297.23 M32 297.23 C10.67 297.23, 0 286.56, 0 265.23 M0 265.23 C0 194.82, 0 124.41, 0 32 M0 32 C0 10.67, 10.67 0, 32 0" stroke="#000000" stroke-width="1.5" fill="none" stroke-dasharray="8 9"></path></g><g stroke-linecap="round" transform="translate(713.9880856417451 67.15402100692017) rotate(0 23.00722921624265 15.338152810828433)"><path d="M0 0 L46.01 0 L46.01 30.68 L0 30.68" stroke="none" stroke-width="0" fill="#ffffff"></path><path d="M0 0 C14.13 0, 28.25 0, 46.01 0 M0 0 C9.26 0, 18.53 0, 46.01 0 M46.01 0 C46.01 8.03, 46.01 16.05, 46.01 30.68 M46.01 0 C46.01 7.51, 46.01 15.01, 46.01 30.68 M46.01 30.68 C33.57 30.68, 21.12 30.68, 0 30.68 M46.01 30.68 C34.89 30.68, 23.76 30.68, 0 30.68 M0 30.68 C0 21.65, 0 12.63, 0 0 M0 30.68 C0 22.29, 0 13.91, 0 0" stroke="#000000" stroke-width="2" fill="none"></path></g><g stroke-linecap="round"><g transform="translate(713.9880856417451 67.15402100692017) rotate(0 11.503614608121325 7.669076405414216)"><path d="M0 0 C3.83 2.56, 19.17 12.78, 23.01 15.34 M0 0 C3.83 2.56, 19.17 12.78, 23.01 15.34" stroke="#000000" stroke-width="2" fill="none"></path></g></g><mask></mask><g stroke-linecap="round"><g transform="translate(736.9953148579873 82.49217381774861) rotate(0 11.503614608121325 -7.669076405414216)"><path d="M0 0 C3.83 -2.56, 19.17 -12.78, 23.01 -15.34 M0 0 C3.83 -2.56, 19.17 -12.78, 23.01 -15.34" stroke="#000000" stroke-width="2" fill="none"></path></g></g><mask></mask><g stroke-linecap="round"><g transform="translate(735.4155930483282 376.17205496361134) rotate(0 -1.6387282401996117 -122.87168454636662)"><path d="M0 0 C-0.55 -40.96, -2.73 -204.79, -3.28 -245.74" stroke="#000000" stroke-width="1.5" fill="none" stroke-dasharray="8 9"></path></g><g transform="translate(735.4155930483282 376.17205496361134) rotate(0 -1.6387282401996117 -122.87168454636662)"><path d="M7.36 -217.69 C3.43 -228.05, -0.5 -238.41, -3.28 -245.74" stroke="#000000" stroke-width="1.5" fill="none"></path></g><g transform="translate(735.4155930483282 376.17205496361134) rotate(0 -1.6387282401996117 -122.87168454636662)"><path d="M-13.16 -217.42 C-9.51 -227.88, -5.86 -238.33, -3.28 -245.74" stroke="#000000" stroke-width="1.5" fill="none"></path></g></g><mask></mask><g transform="translate(590.7833777905455 198.97067059363758) rotate(0 57.60797119140625 20)"><text x="0" y="0" font-family="Virgil, Segoe UI Emoji" font-size="16px" fill="#000000" text-anchor="start" style="white-space: pre;" direction="ltr" dominant-baseline="text-before-edge">subscribe with</text><text x="0" y="20" font-family="Virgil, Segoe UI Emoji" font-size="16px" fill="#000000" text-anchor="start" style="white-space: pre;" direction="ltr" dominant-baseline="text-before-edge">correlation key</text></g><g stroke-opacity="0.2" fill-opacity="0.2" stroke-linecap="round" transform="translate(622.1716283481685 36.904307271862535) rotate(0 129.3968534578305 44.84048361095881)"><path d="M22.42 0 M22.42 0 C71.4 0, 120.39 0, 236.37 0 M236.37 0 C251.32 0, 258.79 7.47, 258.79 22.42 M258.79 22.42 C258.79 35.17, 258.79 47.92, 258.79 67.26 M258.79 67.26 C258.79 82.21, 251.32 89.68, 236.37 89.68 M236.37 89.68 C164.04 89.68, 91.71 89.68, 22.42 89.68 M22.42 89.68 C7.47 89.68, 0 82.21, 0 67.26 M0 67.26 C0 56.5, 0 45.75, 0 22.42 M0 22.42 C0 7.47, 7.47 0, 22.42 0" stroke="#000000" stroke-width="1.5" fill="none" stroke-dasharray="8 9"></path></g><g transform="translate(636.9049496549544 10) rotate(0 60.047950744628906 10)"><text x="0" y="0" font-family="Virgil, Segoe UI Emoji" font-size="16px" fill="#000000" text-anchor="start" style="white-space: pre;" direction="ltr" dominant-baseline="text-before-edge">message buffer</text></g><g stroke-linecap="round"><g stroke-opacity="0.4" fill-opacity="0.4" transform="translate(446.47638959262554 82.48631880086623) rotate(0 86.23658820913022 -0.49404995346810665)"><path d="M0 0 C28.75 -0.16, 143.73 -0.82, 172.47 -0.99 M0 0 C28.75 -0.16, 143.73 -0.82, 172.47 -0.99" stroke="#000000" stroke-width="1" fill="none"></path></g><g stroke-opacity="0.4" fill-opacity="0.4" transform="translate(446.47638959262554 82.48631880086623) rotate(0 86.23658820913022 -0.49404995346810665)"><path d="M144.34 9.43 C152.32 6.48, 160.29 3.52, 172.47 -0.99 M144.34 9.43 C153.58 6.01, 162.82 2.59, 172.47 -0.99" stroke="#000000" stroke-width="1" fill="none"></path></g><g stroke-opacity="0.4" fill-opacity="0.4" transform="translate(446.47638959262554 82.48631880086623) rotate(0 86.23658820913022 -0.49404995346810665)"><path d="M144.22 -11.09 C152.23 -8.22, 160.24 -5.36, 172.47 -0.99 M144.22 -11.09 C153.5 -7.77, 162.78 -4.45, 172.47 -0.99" stroke="#000000" stroke-width="1" fill="none"></path></g></g><mask></mask><g stroke-opacity="0.4" fill-opacity="0.4" transform="translate(452.41836896382506 55.64121875064552) rotate(0 63.19995880126953 10)"><text x="0" y="0" font-family="Virgil, Segoe UI Emoji" font-size="16px" fill="#000000" text-anchor="start" style="white-space: pre;" direction="ltr" dominant-baseline="text-before-edge">coming messages</text></g><g stroke-linecap="round"><g transform="translate(746.540365729297 393.969250054364) rotate(0 -0.5602362699407877 -110.1711048548226)"><path d="M0 0 C-0.19 -36.72, -0.93 -183.62, -1.12 -220.34" stroke="#000000" stroke-width="1.5" fill="none" stroke-dasharray="8 9"></path></g><g transform="translate(746.540365729297 393.969250054364) rotate(0 -0.5602362699407877 -110.1711048548226)"><path d="M9.28 -192.2 C5.6 -202.16, 1.92 -212.12, -1.12 -220.34" stroke="#000000" stroke-width="1.5" fill="none"></path></g><g transform="translate(746.540365729297 393.969250054364) rotate(0 -0.5602362699407877 -110.1711048548226)"><path d="M-11.24 -192.1 C-7.66 -202.1, -4.08 -212.09, -1.12 -220.34" stroke="#000000" stroke-width="1.5" fill="none"></path></g></g><mask></mask><g stroke-linecap="round"><g transform="translate(792.1695715326493 382.3252905007862) rotate(180.21167434594042 -1.6387282401996117 -122.87168454636662)"><path d="M0 0 C-0.55 -40.96, -2.73 -204.79, -3.28 -245.74" stroke="#000000" stroke-width="1.5" fill="none" stroke-dasharray="8 9"></path></g><g transform="translate(792.1695715326493 382.3252905007862) rotate(180.21167434594042 -1.6387282401996117 -122.87168454636662)"><path d="M7.36 -217.69 C5.22 -223.34, 3.08 -228.99, -3.28 -245.74" stroke="#000000" stroke-width="1.5" fill="none"></path></g><g transform="translate(792.1695715326493 382.3252905007862) rotate(180.21167434594042 -1.6387282401996117 -122.87168454636662)"><path d="M-13.16 -217.42 C-11.17 -223.12, -9.18 -228.82, -3.28 -245.74" stroke="#000000" stroke-width="1.5" fill="none"></path></g></g><mask></mask><g transform="translate(824.6530218396392 210.50997676559314) rotate(0 111.19192504882801 30)"><text x="0" y="0" font-family="Virgil, Segoe UI Emoji" font-size="16px" fill="#000000" text-anchor="start" style="white-space: pre;" direction="ltr" dominant-baseline="text-before-edge">correlate with only </text><text x="0" y="20" font-family="Virgil, Segoe UI Emoji" font-size="16px" fill="#000000" text-anchor="start" style="white-space: pre;" direction="ltr" dominant-baseline="text-before-edge">one process instance within </text><text x="0" y="40" font-family="Virgil, Segoe UI Emoji" font-size="16px" fill="#000000" text-anchor="start" style="white-space: pre;" direction="ltr" dominant-baseline="text-before-edge">the same BPMN Process ID</text></g><g stroke-linecap="round" transform="translate(237.6193863329354 734.6319111834146) rotate(0 30 30)"><path d="M60 30 C60 31.74, 59.85 33.5, 59.54 35.21 C59.24 36.92, 58.78 38.63, 58.19 40.26 C57.6 41.89, 56.85 43.5, 55.98 45 C55.11 46.5, 54.1 47.95, 52.98 49.28 C51.87 50.61, 50.61 51.87, 49.28 52.98 C47.95 54.1, 46.5 55.11, 45 55.98 C43.5 56.85, 41.89 57.6, 40.26 58.19 C38.63 58.78, 36.92 59.24, 35.21 59.54 C33.5 59.85, 31.74 60, 30 60 C28.26 60, 26.5 59.85, 24.79 59.54 C23.08 59.24, 21.37 58.78, 19.74 58.19 C18.11 57.6, 16.5 56.85, 15 55.98 C13.5 55.11, 12.05 54.1, 10.72 52.98 C9.39 51.87, 8.13 50.61, 7.02 49.28 C5.9 47.95, 4.89 46.5, 4.02 45 C3.15 43.5, 2.4 41.89, 1.81 40.26 C1.22 38.63, 0.76 36.92, 0.46 35.21 C0.15 33.5, 0 31.74, 0 30 C0 28.26, 0.15 26.5, 0.46 24.79 C0.76 23.08, 1.22 21.37, 1.81 19.74 C2.4 18.11, 3.15 16.5, 4.02 15 C4.89 13.5, 5.9 12.05, 7.02 10.72 C8.13 9.39, 9.39 8.13, 10.72 7.02 C12.05 5.9, 13.5 4.89, 15 4.02 C16.5 3.15, 18.11 2.4, 19.74 1.81 C21.37 1.22, 23.08 0.76, 24.79 0.46 C26.5 0.15, 28.26 0, 30 0 C31.74 0, 33.5 0.15, 35.21 0.46 C36.92 0.76, 38.63 1.22, 40.26 1.81 C41.89 2.4, 43.5 3.15, 45 4.02 C46.5 4.89, 47.95 5.9, 49.28 7.02 C50.61 8.13, 51.87 9.39, 52.98 10.72 C54.1 12.05, 55.11 13.5, 55.98 15 C56.85 16.5, 57.6 18.11, 58.19 19.74 C58.78 21.37, 59.24 23.08, 59.54 24.79 C59.85 26.5, 59.92 29.13, 60 30 C60.08 30.87, 60.08 29.13, 60 30" stroke="none" stroke-width="0" fill="#ffffff"></path><path d="M60 30 C60 31.74, 59.85 33.5, 59.54 35.21 C59.24 36.92, 58.78 38.63, 58.19 40.26 C57.6 41.89, 56.85 43.5, 55.98 45 C55.11 46.5, 54.1 47.95, 52.98 49.28 C51.87 50.61, 50.61 51.87, 49.28 52.98 C47.95 54.1, 46.5 55.11, 45 55.98 C43.5 56.85, 41.89 57.6, 40.26 58.19 C38.63 58.78, 36.92 59.24, 35.21 59.54 C33.5 59.85, 31.74 60, 30 60 C28.26 60, 26.5 59.85, 24.79 59.54 C23.08 59.24, 21.37 58.78, 19.74 58.19 C18.11 57.6, 16.5 56.85, 15 55.98 C13.5 55.11, 12.05 54.1, 10.72 52.98 C9.39 51.87, 8.13 50.61, 7.02 49.28 C5.9 47.95, 4.89 46.5, 4.02 45 C3.15 43.5, 2.4 41.89, 1.81 40.26 C1.22 38.63, 0.76 36.92, 0.46 35.21 C0.15 33.5, 0 31.74, 0 30 C0 28.26, 0.15 26.5, 0.46 24.79 C0.76 23.08, 1.22 21.37, 1.81 19.74 C2.4 18.11, 3.15 16.5, 4.02 15 C4.89 13.5, 5.9 12.05, 7.02 10.72 C8.13 9.39, 9.39 8.13, 10.72 7.02 C12.05 5.9, 13.5 4.89, 15 4.02 C16.5 3.15, 18.11 2.4, 19.74 1.81 C21.37 1.22, 23.08 0.76, 24.79 0.46 C26.5 0.15, 28.26 0, 30 0 C31.74 0, 33.5 0.15, 35.21 0.46 C36.92 0.76, 38.63 1.22, 40.26 1.81 C41.89 2.4, 43.5 3.15, 45 4.02 C46.5 4.89, 47.95 5.9, 49.28 7.02 C50.61 8.13, 51.87 9.39, 52.98 10.72 C54.1 12.05, 55.11 13.5, 55.98 15 C56.85 16.5, 57.6 18.11, 58.19 19.74 C58.78 21.37, 59.24 23.08, 59.54 24.79 C59.85 26.5, 59.92 29.13, 60 30 C60.08 30.87, 60.08 29.13, 60 30" stroke="#000000" stroke-width="2" fill="none"></path></g><g stroke-linecap="round" transform="translate(414.70145047688607 716.6246298481719) rotate(0 100 50)"><path d="M25 0 L175 0 L180.86 0.39 L190.23 3.52 L193.75 6.25 L196.48 9.77 L199.61 19.14 L200 75 L199.61 80.86 L196.48 90.23 L193.75 93.75 L190.23 96.48 L185.94 98.44 L175 100 L25 100 L14.06 98.44 L9.77 96.48 L6.25 93.75 L3.52 90.23 L0.39 80.86 L0.39 19.14 L3.52 9.77 L6.25 6.25 L9.77 3.52 L14.06 1.56 L25 0" stroke="none" stroke-width="0" fill="#ffffff"></path><path d="M25 0 M25 0 C69.67 0, 114.34 0, 175 0 M25 0 C70.58 0, 116.16 0, 175 0 M175 0 C191.67 0, 200 8.33, 200 25 M175 0 C191.67 0, 200 8.33, 200 25 M200 25 C200 41.7, 200 58.41, 200 75 M200 25 C200 35.5, 200 46, 200 75 M200 75 C200 91.67, 191.67 100, 175 100 M200 75 C200 91.67, 191.67 100, 175 100 M175 100 C118.2 100, 61.4 100, 25 100 M175 100 C128.89 100, 82.79 100, 25 100 M25 100 C8.33 100, 0 91.67, 0 75 M25 100 C8.33 100, 0 91.67, 0 75 M0 75 C0 55.45, 0 35.91, 0 25 M0 75 C0 62.81, 0 50.63, 0 25 M0 25 C0 8.33, 8.33 0, 25 0 M0 25 C0 8.33, 8.33 0, 25 0" stroke="#000000" stroke-width="2" fill="none"></path></g><g transform="translate(445.1714822151673 756.6246298481719) rotate(0 63.719940185546875 12.5)"><text x="63.719940185546875" y="0" font-family="Virgil, Segoe UI Emoji" font-size="20px" fill="#000000" text-anchor="middle" style="white-space: pre;" direction="ltr" dominant-baseline="text-before-edge">send request</text></g><g stroke-linecap="round" transform="translate(731.4272623511908 733.5029429331826) rotate(0 30 30)"><path d="M60 30 C60 31.74, 59.85 33.5, 59.54 35.21 C59.24 36.92, 58.78 38.63, 58.19 40.26 C57.6 41.89, 56.85 43.5, 55.98 45 C55.11 46.5, 54.1 47.95, 52.98 49.28 C51.87 50.61, 50.61 51.87, 49.28 52.98 C47.95 54.1, 46.5 55.11, 45 55.98 C43.5 56.85, 41.89 57.6, 40.26 58.19 C38.63 58.78, 36.92 59.24, 35.21 59.54 C33.5 59.85, 31.74 60, 30 60 C28.26 60, 26.5 59.85, 24.79 59.54 C23.08 59.24, 21.37 58.78, 19.74 58.19 C18.11 57.6, 16.5 56.85, 15 55.98 C13.5 55.11, 12.05 54.1, 10.72 52.98 C9.39 51.87, 8.13 50.61, 7.02 49.28 C5.9 47.95, 4.89 46.5, 4.02 45 C3.15 43.5, 2.4 41.89, 1.81 40.26 C1.22 38.63, 0.76 36.92, 0.46 35.21 C0.15 33.5, 0 31.74, 0 30 C0 28.26, 0.15 26.5, 0.46 24.79 C0.76 23.08, 1.22 21.37, 1.81 19.74 C2.4 18.11, 3.15 16.5, 4.02 15 C4.89 13.5, 5.9 12.05, 7.02 10.72 C8.13 9.39, 9.39 8.13, 10.72 7.02 C12.05 5.9, 13.5 4.89, 15 4.02 C16.5 3.15, 18.11 2.4, 19.74 1.81 C21.37 1.22, 23.08 0.76, 24.79 0.46 C26.5 0.15, 28.26 0, 30 0 C31.74 0, 33.5 0.15, 35.21 0.46 C36.92 0.76, 38.63 1.22, 40.26 1.81 C41.89 2.4, 43.5 3.15, 45 4.02 C46.5 4.89, 47.95 5.9, 49.28 7.02 C50.61 8.13, 51.87 9.39, 52.98 10.72 C54.1 12.05, 55.11 13.5, 55.98 15 C56.85 16.5, 57.6 18.11, 58.19 19.74 C58.78 21.37, 59.24 23.08, 59.54 24.79 C59.85 26.5, 59.92 29.13, 60 30 C60.08 30.87, 60.08 29.13, 60 30" stroke="none" stroke-width="0" fill="#ffffff"></path><path d="M60 30 C60 31.74, 59.85 33.5, 59.54 35.21 C59.24 36.92, 58.78 38.63, 58.19 40.26 C57.6 41.89, 56.85 43.5, 55.98 45 C55.11 46.5, 54.1 47.95, 52.98 49.28 C51.87 50.61, 50.61 51.87, 49.28 52.98 C47.95 54.1, 46.5 55.11, 45 55.98 C43.5 56.85, 41.89 57.6, 40.26 58.19 C38.63 58.78, 36.92 59.24, 35.21 59.54 C33.5 59.85, 31.74 60, 30 60 C28.26 60, 26.5 59.85, 24.79 59.54 C23.08 59.24, 21.37 58.78, 19.74 58.19 C18.11 57.6, 16.5 56.85, 15 55.98 C13.5 55.11, 12.05 54.1, 10.72 52.98 C9.39 51.87, 8.13 50.61, 7.02 49.28 C5.9 47.95, 4.89 46.5, 4.02 45 C3.15 43.5, 2.4 41.89, 1.81 40.26 C1.22 38.63, 0.76 36.92, 0.46 35.21 C0.15 33.5, 0 31.74, 0 30 C0 28.26, 0.15 26.5, 0.46 24.79 C0.76 23.08, 1.22 21.37, 1.81 19.74 C2.4 18.11, 3.15 16.5, 4.02 15 C4.89 13.5, 5.9 12.05, 7.02 10.72 C8.13 9.39, 9.39 8.13, 10.72 7.02 C12.05 5.9, 13.5 4.89, 15 4.02 C16.5 3.15, 18.11 2.4, 19.74 1.81 C21.37 1.22, 23.08 0.76, 24.79 0.46 C26.5 0.15, 28.26 0, 30 0 C31.74 0, 33.5 0.15, 35.21 0.46 C36.92 0.76, 38.63 1.22, 40.26 1.81 C41.89 2.4, 43.5 3.15, 45 4.02 C46.5 4.89, 47.95 5.9, 49.28 7.02 C50.61 8.13, 51.87 9.39, 52.98 10.72 C54.1 12.05, 55.11 13.5, 55.98 15 C56.85 16.5, 57.6 18.11, 58.19 19.74 C58.78 21.37, 59.24 23.08, 59.54 24.79 C59.85 26.5, 59.92 29.13, 60 30 C60.08 30.87, 60.08 29.13, 60 30" stroke="#000000" stroke-width="2" fill="none"></path></g><g stroke-linecap="round" transform="translate(736.4272623511908 738.5029429331826) rotate(0 25 25)"><path d="M50 25 C50 26.45, 49.87 27.92, 49.62 29.34 C49.37 30.77, 48.99 32.19, 48.49 33.55 C48 34.91, 47.37 36.25, 46.65 37.5 C45.93 38.75, 45.08 39.96, 44.15 41.07 C43.22 42.18, 42.18 43.22, 41.07 44.15 C39.96 45.08, 38.75 45.93, 37.5 46.65 C36.25 47.37, 34.91 48, 33.55 48.49 C32.19 48.99, 30.77 49.37, 29.34 49.62 C27.92 49.87, 26.45 50, 25 50 C23.55 50, 22.08 49.87, 20.66 49.62 C19.23 49.37, 17.81 48.99, 16.45 48.49 C15.09 48, 13.75 47.37, 12.5 46.65 C11.25 45.93, 10.04 45.08, 8.93 44.15 C7.82 43.22, 6.78 42.18, 5.85 41.07 C4.92 39.96, 4.07 38.75, 3.35 37.5 C2.63 36.25, 2 34.91, 1.51 33.55 C1.01 32.19, 0.63 30.77, 0.38 29.34 C0.13 27.92, 0 26.45, 0 25 C0 23.55, 0.13 22.08, 0.38 20.66 C0.63 19.23, 1.01 17.81, 1.51 16.45 C2 15.09, 2.63 13.75, 3.35 12.5 C4.07 11.25, 4.92 10.04, 5.85 8.93 C6.78 7.82, 7.82 6.78, 8.93 5.85 C10.04 4.92, 11.25 4.07, 12.5 3.35 C13.75 2.63, 15.09 2, 16.45 1.51 C17.81 1.01, 19.23 0.63, 20.66 0.38 C22.08 0.13, 23.55 0, 25 0 C26.45 0, 27.92 0.13, 29.34 0.38 C30.77 0.63, 32.19 1.01, 33.55 1.51 C34.91 2, 36.25 2.63, 37.5 3.35 C38.75 4.07, 39.96 4.92, 41.07 5.85 C42.18 6.78, 43.22 7.82, 44.15 8.93 C45.08 10.04, 45.93 11.25, 46.65 12.5 C47.37 13.75, 48 15.09, 48.49 16.45 C48.99 17.81, 49.37 19.23, 49.62 20.66 C49.87 22.08, 49.94 24.28, 50 25 C50.06 25.72, 50.06 24.28, 50 25" stroke="none" stroke-width="0" fill="#ffffff"></path><path d="M50 25 C50 26.45, 49.87 27.92, 49.62 29.34 C49.37 30.77, 48.99 32.19, 48.49 33.55 C48 34.91, 47.37 36.25, 46.65 37.5 C45.93 38.75, 45.08 39.96, 44.15 41.07 C43.22 42.18, 42.18 43.22, 41.07 44.15 C39.96 45.08, 38.75 45.93, 37.5 46.65 C36.25 47.37, 34.91 48, 33.55 48.49 C32.19 48.99, 30.77 49.37, 29.34 49.62 C27.92 49.87, 26.45 50, 25 50 C23.55 50, 22.08 49.87, 20.66 49.62 C19.23 49.37, 17.81 48.99, 16.45 48.49 C15.09 48, 13.75 47.37, 12.5 46.65 C11.25 45.93, 10.04 45.08, 8.93 44.15 C7.82 43.22, 6.78 42.18, 5.85 41.07 C4.92 39.96, 4.07 38.75, 3.35 37.5 C2.63 36.25, 2 34.91, 1.51 33.55 C1.01 32.19, 0.63 30.77, 0.38 29.34 C0.13 27.92, 0 26.45, 0 25 C0 23.55, 0.13 22.08, 0.38 20.66 C0.63 19.23, 1.01 17.81, 1.51 16.45 C2 15.09, 2.63 13.75, 3.35 12.5 C4.07 11.25, 4.92 10.04, 5.85 8.93 C6.78 7.82, 7.82 6.78, 8.93 5.85 C10.04 4.92, 11.25 4.07, 12.5 3.35 C13.75 2.63, 15.09 2, 16.45 1.51 C17.81 1.01, 19.23 0.63, 20.66 0.38 C22.08 0.13, 23.55 0, 25 0 C26.45 0, 27.92 0.13, 29.34 0.38 C30.77 0.63, 32.19 1.01, 33.55 1.51 C34.91 2, 36.25 2.63, 37.5 3.35 C38.75 4.07, 39.96 4.92, 41.07 5.85 C42.18 6.78, 43.22 7.82, 44.15 8.93 C45.08 10.04, 45.93 11.25, 46.65 12.5 C47.37 13.75, 48 15.09, 48.49 16.45 C48.99 17.81, 49.37 19.23, 49.62 20.66 C49.87 22.08, 49.94 24.28, 50 25 C50.06 25.72, 50.06 24.28, 50 25" stroke="#000000" stroke-width="2" fill="none"></path></g><g stroke-linecap="round" transform="translate(746.4272623511908 753.5029429331826) rotate(0 15 10)"><path d="M0 0 L30 0 L30 20 L0 20" stroke="none" stroke-width="0" fill="#ffffff"></path><path d="M0 0 C7.05 0, 14.11 0, 30 0 M0 0 C11.9 0, 23.79 0, 30 0 M30 0 C30 4.51, 30 9.02, 30 20 M30 0 C30 4.94, 30 9.88, 30 20 M30 20 C23.34 20, 16.67 20, 0 20 M30 20 C20.88 20, 11.77 20, 0 20 M0 20 C0 15.16, 0 10.33, 0 0 M0 20 C0 15.8, 0 11.6, 0 0" stroke="#000000" stroke-width="2" fill="none"></path></g><g stroke-linecap="round"><g transform="translate(746.4272623511908 753.5029429331826) rotate(0 7.5 5)"><path d="M0 0 C2.5 1.67, 12.5 8.33, 15 10 M0 0 C2.5 1.67, 12.5 8.33, 15 10" stroke="#000000" stroke-width="2" fill="none"></path></g></g><mask></mask><g stroke-linecap="round"><g transform="translate(761.4272623511908 763.5029429331826) rotate(0 7.5 -5)"><path d="M0 0 C2.5 -1.67, 12.5 -8.33, 15 -10 M0 0 C2.5 -1.67, 12.5 -8.33, 15 -10" stroke="#000000" stroke-width="2" fill="none"></path></g></g><mask></mask><g stroke-linecap="round" transform="translate(1215.0599240329745 733.5641759305836) rotate(0 30 30)"><path d="M60 30 C60 31.74, 59.85 33.5, 59.54 35.21 C59.24 36.92, 58.78 38.63, 58.19 40.26 C57.6 41.89, 56.85 43.5, 55.98 45 C55.11 46.5, 54.1 47.95, 52.98 49.28 C51.87 50.61, 50.61 51.87, 49.28 52.98 C47.95 54.1, 46.5 55.11, 45 55.98 C43.5 56.85, 41.89 57.6, 40.26 58.19 C38.63 58.78, 36.92 59.24, 35.21 59.54 C33.5 59.85, 31.74 60, 30 60 C28.26 60, 26.5 59.85, 24.79 59.54 C23.08 59.24, 21.37 58.78, 19.74 58.19 C18.11 57.6, 16.5 56.85, 15 55.98 C13.5 55.11, 12.05 54.1, 10.72 52.98 C9.39 51.87, 8.13 50.61, 7.02 49.28 C5.9 47.95, 4.89 46.5, 4.02 45 C3.15 43.5, 2.4 41.89, 1.81 40.26 C1.22 38.63, 0.76 36.92, 0.46 35.21 C0.15 33.5, 0 31.74, 0 30 C0 28.26, 0.15 26.5, 0.46 24.79 C0.76 23.08, 1.22 21.37, 1.81 19.74 C2.4 18.11, 3.15 16.5, 4.02 15 C4.89 13.5, 5.9 12.05, 7.02 10.72 C8.13 9.39, 9.39 8.13, 10.72 7.02 C12.05 5.9, 13.5 4.89, 15 4.02 C16.5 3.15, 18.11 2.4, 19.74 1.81 C21.37 1.22, 23.08 0.76, 24.79 0.46 C26.5 0.15, 28.26 0, 30 0 C31.74 0, 33.5 0.15, 35.21 0.46 C36.92 0.76, 38.63 1.22, 40.26 1.81 C41.89 2.4, 43.5 3.15, 45 4.02 C46.5 4.89, 47.95 5.9, 49.28 7.02 C50.61 8.13, 51.87 9.39, 52.98 10.72 C54.1 12.05, 55.11 13.5, 55.98 15 C56.85 16.5, 57.6 18.11, 58.19 19.74 C58.78 21.37, 59.24 23.08, 59.54 24.79 C59.85 26.5, 59.92 29.13, 60 30 C60.08 30.87, 60.08 29.13, 60 30" stroke="none" stroke-width="0" fill="#ffffff"></path><path d="M60 30 C60 31.74, 59.85 33.5, 59.54 35.21 C59.24 36.92, 58.78 38.63, 58.19 40.26 C57.6 41.89, 56.85 43.5, 55.98 45 C55.11 46.5, 54.1 47.95, 52.98 49.28 C51.87 50.61, 50.61 51.87, 49.28 52.98 C47.95 54.1, 46.5 55.11, 45 55.98 C43.5 56.85, 41.89 57.6, 40.26 58.19 C38.63 58.78, 36.92 59.24, 35.21 59.54 C33.5 59.85, 31.74 60, 30 60 C28.26 60, 26.5 59.85, 24.79 59.54 C23.08 59.24, 21.37 58.78, 19.74 58.19 C18.11 57.6, 16.5 56.85, 15 55.98 C13.5 55.11, 12.05 54.1, 10.72 52.98 C9.39 51.87, 8.13 50.61, 7.02 49.28 C5.9 47.95, 4.89 46.5, 4.02 45 C3.15 43.5, 2.4 41.89, 1.81 40.26 C1.22 38.63, 0.76 36.92, 0.46 35.21 C0.15 33.5, 0 31.74, 0 30 C0 28.26, 0.15 26.5, 0.46 24.79 C0.76 23.08, 1.22 21.37, 1.81 19.74 C2.4 18.11, 3.15 16.5, 4.02 15 C4.89 13.5, 5.9 12.05, 7.02 10.72 C8.13 9.39, 9.39 8.13, 10.72 7.02 C12.05 5.9, 13.5 4.89, 15 4.02 C16.5 3.15, 18.11 2.4, 19.74 1.81 C21.37 1.22, 23.08 0.76, 24.79 0.46 C26.5 0.15, 28.26 0, 30 0 C31.74 0, 33.5 0.15, 35.21 0.46 C36.92 0.76, 38.63 1.22, 40.26 1.81 C41.89 2.4, 43.5 3.15, 45 4.02 C46.5 4.89, 47.95 5.9, 49.28 7.02 C50.61 8.13, 51.87 9.39, 52.98 10.72 C54.1 12.05, 55.11 13.5, 55.98 15 C56.85 16.5, 57.6 18.11, 58.19 19.74 C58.78 21.37, 59.24 23.08, 59.54 24.79 C59.85 26.5, 59.92 29.13, 60 30 C60.08 30.87, 60.08 29.13, 60 30" stroke="#000000" stroke-width="6" fill="none"></path></g><g stroke-linecap="round"><g transform="translate(301.4249798860528 767.5664508367886) rotate(0 55.06727297280463 0.32860234064025917)"><path d="M0 0 C18.36 0.11, 91.78 0.55, 110.13 0.66 M0 0 C18.36 0.11, 91.78 0.55, 110.13 0.66" stroke="#000000" stroke-width="2" fill="none"></path></g><g transform="translate(301.4249798860528 767.5664508367886) rotate(0 55.06727297280463 0.32860234064025917)"><path d="M110.13 0.66 L96.5 6.92 L96.58 -5.76 L110.13 0.66" stroke="none" stroke-width="0" fill="#000000" fill-rule="evenodd"></path><path d="M110.13 0.66 C106.82 2.18, 103.5 3.7, 96.5 6.92 M110.13 0.66 C105.96 2.57, 101.79 4.49, 96.5 6.92 M96.5 6.92 C96.52 3.17, 96.55 -0.57, 96.58 -5.76 M96.5 6.92 C96.53 2.81, 96.55 -1.3, 96.58 -5.76 M96.58 -5.76 C100.62 -3.85, 104.65 -1.94, 110.13 0.66 M96.58 -5.76 C101.88 -3.25, 107.18 -0.74, 110.13 0.66 M110.13 0.66 C110.13 0.66, 110.13 0.66, 110.13 0.66 M110.13 0.66 C110.13 0.66, 110.13 0.66, 110.13 0.66" stroke="#000000" stroke-width="2" fill="none"></path></g></g><mask></mask><g stroke-linecap="round"><g transform="translate(618.3165120860124 764.7213355801632) rotate(0 57.109038945869315 -0.1454063608305205)"><path d="M0 0 C19.04 -0.05, 95.18 -0.24, 114.22 -0.29 M0 0 C19.04 -0.05, 95.18 -0.24, 114.22 -0.29" stroke="#000000" stroke-width="2" fill="none"></path></g><g transform="translate(618.3165120860124 764.7213355801632) rotate(0 57.109038945869315 -0.1454063608305205)"><path d="M114.22 -0.29 L100.64 6.08 L100.61 -6.6 L114.22 -0.29" stroke="none" stroke-width="0" fill="#000000" fill-rule="evenodd"></path><path d="M114.22 -0.29 C111.21 1.12, 108.2 2.53, 100.64 6.08 M114.22 -0.29 C109.26 2.04, 104.3 4.37, 100.64 6.08 M100.64 6.08 C100.63 1.02, 100.61 -4.04, 100.61 -6.6 M100.64 6.08 C100.63 2.8, 100.62 -0.48, 100.61 -6.6 M100.61 -6.6 C104.93 -4.59, 109.26 -2.59, 114.22 -0.29 M100.61 -6.6 C104.53 -4.78, 108.46 -2.96, 114.22 -0.29 M114.22 -0.29 C114.22 -0.29, 114.22 -0.29, 114.22 -0.29 M114.22 -0.29 C114.22 -0.29, 114.22 -0.29, 114.22 -0.29" stroke="#000000" stroke-width="2" fill="none"></path></g></g><mask></mask><g stroke-linecap="round"><g transform="translate(794.3762123065046 765.6087599962493) rotate(0 51.950122795888774 0.5741576570188727)"><path d="M0 0 C17.32 0.19, 86.58 0.96, 103.9 1.15 M0 0 C17.32 0.19, 86.58 0.96, 103.9 1.15" stroke="#000000" stroke-width="2" fill="none"></path></g><g transform="translate(794.3762123065046 765.6087599962493) rotate(0 51.950122795888774 0.5741576570188727)"><path d="M103.9 1.15 L90.24 7.34 L90.38 -5.34 L103.9 1.15" stroke="none" stroke-width="0" fill="#000000" fill-rule="evenodd"></path><path d="M103.9 1.15 C100.15 2.85, 96.4 4.55, 90.24 7.34 M103.9 1.15 C100.33 2.77, 96.76 4.38, 90.24 7.34 M90.24 7.34 C90.28 3.69, 90.32 0.05, 90.38 -5.34 M90.24 7.34 C90.29 2.42, 90.35 -2.49, 90.38 -5.34 M90.38 -5.34 C93.31 -3.93, 96.25 -2.52, 103.9 1.15 M90.38 -5.34 C95.39 -2.94, 100.4 -0.53, 103.9 1.15 M103.9 1.15 C103.9 1.15, 103.9 1.15, 103.9 1.15 M103.9 1.15 C103.9 1.15, 103.9 1.15, 103.9 1.15" stroke="#000000" stroke-width="2" fill="none"></path></g></g><mask></mask><g stroke-linecap="round" transform="translate(902.638636983602 713.6357038741262) rotate(0 100 50)"><path d="M25 0 L175 0 L180.86 0.39 L190.23 3.52 L193.75 6.25 L196.48 9.77 L199.61 19.14 L200 75 L199.61 80.86 L196.48 90.23 L193.75 93.75 L190.23 96.48 L185.94 98.44 L175 100 L25 100 L14.06 98.44 L9.77 96.48 L6.25 93.75 L3.52 90.23 L0.39 80.86 L0.39 19.14 L3.52 9.77 L6.25 6.25 L9.77 3.52 L14.06 1.56 L25 0" stroke="none" stroke-width="0" fill="#ffffff"></path><path d="M25 0 M25 0 C83.66 0, 142.32 0, 175 0 M25 0 C61.27 0, 97.55 0, 175 0 M175 0 C191.67 0, 200 8.33, 200 25 M175 0 C191.67 0, 200 8.33, 200 25 M200 25 C200 42.65, 200 60.29, 200 75 M200 25 C200 36.53, 200 48.07, 200 75 M200 75 C200 91.67, 191.67 100, 175 100 M200 75 C200 91.67, 191.67 100, 175 100 M175 100 C116.25 100, 57.5 100, 25 100 M175 100 C121.43 100, 67.86 100, 25 100 M25 100 C8.33 100, 0 91.67, 0 75 M25 100 C8.33 100, 0 91.67, 0 75 M0 75 C0 63.36, 0 51.72, 0 25 M0 75 C0 59.71, 0 44.43, 0 25 M0 25 C0 8.33, 8.33 0, 25 0 M0 25 C0 8.33, 8.33 0, 25 0" stroke="#000000" stroke-width="2" fill="none"></path></g><g transform="translate(955.5886568200278 741.1357038741262) rotate(0 41.239952087402344 25)"><text x="41.239952087402344" y="0" font-family="Virgil, Segoe UI Emoji" font-size="20px" fill="#000000" text-anchor="middle" style="white-space: pre;" direction="ltr" dominant-baseline="text-before-edge">process </text><text x="41.239952087402344" y="25" font-family="Virgil, Segoe UI Emoji" font-size="20px" fill="#000000" text-anchor="middle" style="white-space: pre;" direction="ltr" dominant-baseline="text-before-edge">response</text></g><g stroke-linecap="round"><g transform="translate(1104.5102977956992 765.8343987995277) rotate(0 53.0871070831829 -1.045663226904253)"><path d="M0 0 C17.7 -0.35, 88.48 -1.74, 106.17 -2.09 M0 0 C17.7 -0.35, 88.48 -1.74, 106.17 -2.09" stroke="#000000" stroke-width="2" fill="none"></path></g><g transform="translate(1104.5102977956992 765.8343987995277) rotate(0 53.0871070831829 -1.045663226904253)"><path d="M106.17 -2.09 L92.71 4.51 L92.46 -8.16 L106.17 -2.09" stroke="none" stroke-width="0" fill="#000000" fill-rule="evenodd"></path><path d="M106.17 -2.09 C103.01 -0.54, 99.84 1.02, 92.71 4.51 M106.17 -2.09 C102.55 -0.31, 98.92 1.47, 92.71 4.51 M92.71 4.51 C92.63 0.53, 92.55 -3.45, 92.46 -8.16 M92.71 4.51 C92.65 1.75, 92.6 -1.01, 92.46 -8.16 M92.46 -8.16 C95.57 -6.78, 98.68 -5.41, 106.17 -2.09 M92.46 -8.16 C97.69 -5.85, 102.92 -3.53, 106.17 -2.09 M106.17 -2.09 C106.17 -2.09, 106.17 -2.09, 106.17 -2.09 M106.17 -2.09 C106.17 -2.09, 106.17 -2.09, 106.17 -2.09" stroke="#000000" stroke-width="2" fill="none"></path></g></g><mask></mask><g transform="translate(215.8118555283727 814.4653447248256) rotate(0 57.239967346191406 20)"><text x="0" y="0" font-family="Virgil, Segoe UI Emoji" font-size="16px" fill="#000000" text-anchor="start" style="white-space: pre;" direction="ltr" dominant-baseline="text-before-edge">message to be</text><text x="0" y="20" font-family="Virgil, Segoe UI Emoji" font-size="16px" fill="#000000" text-anchor="start" style="white-space: pre;" direction="ltr" dominant-baseline="text-before-edge"> processed</text></g><g transform="translate(1212.1102646535253 807.4913614789912) rotate(0 37.82396697998047 20)"><text x="0" y="0" font-family="Virgil, Segoe UI Emoji" font-size="16px" fill="#000000" text-anchor="start" style="white-space: pre;" direction="ltr" dominant-baseline="text-before-edge">message</text><text x="0" y="20" font-family="Virgil, Segoe UI Emoji" font-size="16px" fill="#000000" text-anchor="start" style="white-space: pre;" direction="ltr" dominant-baseline="text-before-edge">processed</text></g><g transform="translate(697.0240346050316 813.9580253838103) rotate(0 66.91996002197266 10)"><text x="0" y="0" font-family="Virgil, Segoe UI Emoji" font-size="16px" fill="#000000" text-anchor="start" style="white-space: pre;" direction="ltr" dominant-baseline="text-before-edge">message received</text></g><g transform="translate(26.65505143145947 611.7994946717467) rotate(0 89.85594177246094 10)"><text x="0" y="0" font-family="Virgil, Segoe UI Emoji" font-size="16px" fill="#e67700" text-anchor="start" style="white-space: pre;" direction="ltr" dominant-baseline="text-before-edge">BPMN Process ID = 2</text></g><g transform="translate(29.857955336018676 746.9615873758462) rotate(0 72.22396087646484 10)"><text x="0" y="0" font-family="Virgil, Segoe UI Emoji" font-size="16px" fill="#000000" text-anchor="start" style="white-space: pre;" direction="ltr" dominant-baseline="text-before-edge">Process instance 1</text></g><g stroke-opacity="0.3" fill-opacity="0.3" stroke-linecap="round" transform="translate(10 638.5436598028969) rotate(0 654.3507813257987 126.73515857423399)"><path d="M32 0 M32 0 C357.38 0, 682.77 0, 1276.7 0 M1276.7 0 C1298.03 0, 1308.7 10.67, 1308.7 32 M1308.7 32 C1308.7 86.46, 1308.7 140.93, 1308.7 221.47 M1308.7 221.47 C1308.7 242.8, 1298.03 253.47, 1276.7 253.47 M1276.7 253.47 C794.15 253.47, 311.59 253.47, 32 253.47 M32 253.47 C10.67 253.47, 0 242.8, 0 221.47 M0 221.47 C0 180.32, 0 139.17, 0 32 M0 32 C0 10.67, 10.67 0, 32 0" stroke="#000000" stroke-width="1.5" fill="none" stroke-dasharray="8 9"></path></g><g stroke-linecap="round"><g transform="translate(726.7613868502785 735.6424452786639) rotate(0 -3.084762101181923 -262.48261715698516)"><path d="M0 0 C-1.03 -87.49, -5.14 -437.47, -6.17 -524.97" stroke="#000000" stroke-width="1.5" fill="none" stroke-dasharray="8 9"></path></g><g transform="translate(726.7613868502785 735.6424452786639) rotate(0 -3.084762101181923 -262.48261715698516)"><path d="M4.42 -496.9 C2.23 -502.71, 0.04 -508.52, -6.17 -524.97" stroke="#000000" stroke-width="1.5" fill="none"></path></g><g transform="translate(726.7613868502785 735.6424452786639) rotate(0 -3.084762101181923 -262.48261715698516)"><path d="M-16.1 -496.66 C-14.04 -502.52, -11.99 -508.38, -6.17 -524.97" stroke="#000000" stroke-width="1.5" fill="none"></path></g></g><mask></mask><g stroke-linecap="round"><g transform="translate(805.9703002151489 737.4634806710449) rotate(180.21167434594042 -2.12595169011513 -298.36143807694907)"><path d="M0 0 C-0.71 -99.45, -3.54 -497.27, -4.25 -596.72" stroke="#000000" stroke-width="1.5" fill="none" stroke-dasharray="8 9"></path></g><g transform="translate(805.9703002151489 737.4634806710449) rotate(180.21167434594042 -2.12595169011513 -298.36143807694907)"><path d="M6.21 -568.61 C2.1 -579.66, -2.02 -590.71, -4.25 -596.72" stroke="#000000" stroke-width="1.5" fill="none"></path></g><g transform="translate(805.9703002151489 737.4634806710449) rotate(180.21167434594042 -2.12595169011513 -298.36143807694907)"><path d="M-14.31 -568.46 C-10.36 -579.57, -6.4 -590.68, -4.25 -596.72" stroke="#000000" stroke-width="1.5" fill="none"></path></g></g><mask></mask><g transform="translate(825.7083774370774 150.0238280927806) rotate(0 131.77590942382812 20)"><text x="0" y="0" font-family="Virgil, Segoe UI Emoji" font-size="16px" fill="#000000" text-anchor="start" style="white-space: pre;" direction="ltr" dominant-baseline="text-before-edge">correlate with subscribers across</text><text x="0" y="20" font-family="Virgil, Segoe UI Emoji" font-size="16px" fill="#000000" text-anchor="start" style="white-space: pre;" direction="ltr" dominant-baseline="text-before-edge">all different BPMN Process IDs</text></g></svg>