<svg version="1.1" xmlns="http://www.w3.org/2000/svg" viewBox="0 0 1328.7015626515974 601.0045690358534" width="3986.104687954792" height="1803.01370710756">
  <!-- svg-source:excalidraw -->
  
  <defs>
    <style class="style-fonts">
      @font-face {
        font-family: "Virgil";
        src: url("https://excalidraw.com/Virgil.woff2");
      }
      @font-face {
        font-family: "Cascadia";
        src: url("https://excalidraw.com/Cascadia.woff2");
      }
    </style>
  </defs>
  <rect x="0" y="0" width="1328.7015626515974" height="601.0045690358534" fill="#ffffff"></rect><g stroke-linecap="round" transform="translate(214.44526647598468 376.30150386010297) rotate(0 30 30)"><path d="M60 30 C60 31.74, 59.85 33.5, 59.54 35.21 C59.24 36.92, 58.78 38.63, 58.19 40.26 C57.6 41.89, 56.85 43.5, 55.98 45 C55.11 46.5, 54.1 47.95, 52.98 49.28 C51.87 50.61, 50.61 51.87, 49.28 52.98 C47.95 54.1, 46.5 55.11, 45 55.98 C43.5 56.85, 41.89 57.6, 40.26 58.19 C38.63 58.78, 36.92 59.24, 35.21 59.54 C33.5 59.85, 31.74 60, 30 60 C28.26 60, 26.5 59.85, 24.79 59.54 C23.08 59.24, 21.37 58.78, 19.74 58.19 C18.11 57.6, 16.5 56.85, 15 55.98 C13.5 55.11, 12.05 54.1, 10.72 52.98 C9.39 51.87, 8.13 50.61, 7.02 49.28 C5.9 47.95, 4.89 46.5, 4.02 45 C3.15 43.5, 2.4 41.89, 1.81 40.26 C1.22 38.63, 0.76 36.92, 0.46 35.21 C0.15 33.5, 0 31.74, 0 30 C0 28.26, 0.15 26.5, 0.46 24.79 C0.76 23.08, 1.22 21.37, 1.81 19.74 C2.4 18.11, 3.15 16.5, 4.02 15 C4.89 13.5, 5.9 12.05, 7.02 10.72 C8.13 9.39, 9.39 8.13, 10.72 7.02 C12.05 5.9, 13.5 4.89, 15 4.02 C16.5 3.15, 18.11 2.4, 19.74 1.81 C21.37 1.22, 23.08 0.76, 24.79 0.46 C26.5 0.15, 28.26 0, 30 0 C31.74 0, 33.5 0.15, 35.21 0.46 C36.92 0.76, 38.63 1.22, 40.26 1.81 C41.89 2.4, 43.5 3.15, 45 4.02 C46.5 4.89, 47.95 5.9, 49.28 7.02 C50.61 8.13, 51.87 9.39, 52.98 10.72 C54.1 12.05, 55.11 13.5, 55.98 15 C56.85 16.5, 57.6 18.11, 58.19 19.74 C58.78 21.37, 59.24 23.08, 59.54 24.79 C59.85 26.5, 59.92 29.13, 60 30 C60.08 30.87, 60.08 29.13, 60 30" stroke="#000000" stroke-width="2" fill="none"></path></g><g stroke-linecap="round" transform="translate(391.52733061993604 358.29422252486034) rotate(0 100 50)"><path d="M25 0 M25 0 C81.07 0, 137.13 0, 175 0 M25 0 C75.09 0, 125.18 0, 175 0 M175 0 C191.67 0, 200 8.33, 200 25 M175 0 C191.67 0, 200 8.33, 200 25 M200 25 C200 37.62, 200 50.24, 200 75 M200 25 C200 39.85, 200 54.7, 200 75 M200 75 C200 91.67, 191.67 100, 175 100 M200 75 C200 91.67, 191.67 100, 175 100 M175 100 C142.44 100, 109.88 100, 25 100 M175 100 C123.09 100, 71.18 100, 25 100 M25 100 C8.33 100, 0 91.67, 0 75 M25 100 C8.33 100, 0 91.67, 0 75 M0 75 C0 57.42, 0 39.83, 0 25 M0 75 C0 56.81, 0 38.62, 0 25 M0 25 C0 8.33, 8.33 0, 25 0 M0 25 C0 8.33, 8.33 0, 25 0" stroke="#000000" stroke-width="2" fill="none"></path></g><g stroke-linecap="round" transform="translate(709.6056780847193 377.2979392040275) rotate(0 30 30)"><path d="M60 30 C60 31.74, 59.85 33.5, 59.54 35.21 C59.24 36.92, 58.78 38.63, 58.19 40.26 C57.6 41.89, 56.85 43.5, 55.98 45 C55.11 46.5, 54.1 47.95, 52.98 49.28 C51.87 50.61, 50.61 51.87, 49.28 52.98 C47.95 54.1, 46.5 55.11, 45 55.98 C43.5 56.85, 41.89 57.6, 40.26 58.19 C38.63 58.78, 36.92 59.24, 35.21 59.54 C33.5 59.85, 31.74 60, 30 60 C28.26 60, 26.5 59.85, 24.79 59.54 C23.08 59.24, 21.37 58.78, 19.74 58.19 C18.11 57.6, 16.5 56.85, 15 55.98 C13.5 55.11, 12.05 54.1, 10.72 52.98 C9.39 51.87, 8.13 50.61, 7.02 49.28 C5.9 47.95, 4.89 46.5, 4.02 45 C3.15 43.5, 2.4 41.89, 1.81 40.26 C1.22 38.63, 0.76 36.92, 0.46 35.21 C0.15 33.5, 0 31.74, 0 30 C0 28.26, 0.15 26.5, 0.46 24.79 C0.76 23.08, 1.22 21.37, 1.81 19.74 C2.4 18.11, 3.15 16.5, 4.02 15 C4.89 13.5, 5.9 12.05, 7.02 10.72 C8.13 9.39, 9.39 8.13, 10.72 7.02 C12.05 5.9, 13.5 4.89, 15 4.02 C16.5 3.15, 18.11 2.4, 19.74 1.81 C21.37 1.22, 23.08 0.76, 24.79 0.46 C26.5 0.15, 28.26 0, 30 0 C31.74 0, 33.5 0.15, 35.21 0.46 C36.92 0.76, 38.63 1.22, 40.26 1.81 C41.89 2.4, 43.5 3.15, 45 4.02 C46.5 4.89, 47.95 5.9, 49.28 7.02 C50.61 8.13, 51.87 9.39, 52.98 10.72 C54.1 12.05, 55.11 13.5, 55.98 15 C56.85 16.5, 57.6 18.11, 58.19 19.74 C58.78 21.37, 59.24 23.08, 59.54 24.79 C59.85 26.5, 59.92 29.13, 60 30 C60.08 30.87, 60.08 29.13, 60 30" stroke="#000000" stroke-width="2" fill="none"></path></g><g stroke-linecap="round" transform="translate(714.6056780847193 382.2979392040275) rotate(0 25 25)"><path d="M50 25 C50 26.45, 49.87 27.92, 49.62 29.34 C49.37 30.77, 48.99 32.19, 48.49 33.55 C48 34.91, 47.37 36.25, 46.65 37.5 C45.93 38.75, 45.08 39.96, 44.15 41.07 C43.22 42.18, 42.18 43.22, 41.07 44.15 C39.96 45.08, 38.75 45.93, 37.5 46.65 C36.25 47.37, 34.91 48, 33.55 48.49 C32.19 48.99, 30.77 49.37, 29.34 49.62 C27.92 49.87, 26.45 50, 25 50 C23.55 50, 22.08 49.87, 20.66 49.62 C19.23 49.37, 17.81 48.99, 16.45 48.49 C15.09 48, 13.75 47.37, 12.5 46.65 C11.25 45.93, 10.04 45.08, 8.93 44.15 C7.82 43.22, 6.78 42.18, 5.85 41.07 C4.92 39.96, 4.07 38.75, 3.35 37.5 C2.63 36.25, 2 34.91, 1.51 33.55 C1.01 32.19, 0.63 30.77, 0.38 29.34 C0.13 27.92, 0 26.45, 0 25 C0 23.55, 0.13 22.08, 0.38 20.66 C0.63 19.23, 1.01 17.81, 1.51 16.45 C2 15.09, 2.63 13.75, 3.35 12.5 C4.07 11.25, 4.92 10.04, 5.85 8.93 C6.78 7.82, 7.82 6.78, 8.93 5.85 C10.04 4.92, 11.25 4.07, 12.5 3.35 C13.75 2.63, 15.09 2, 16.45 1.51 C17.81 1.01, 19.23 0.63, 20.66 0.38 C22.08 0.13, 23.55 0, 25 0 C26.45 0, 27.92 0.13, 29.34 0.38 C30.77 0.63, 32.19 1.01, 33.55 1.51 C34.91 2, 36.25 2.63, 37.5 3.35 C38.75 4.07, 39.96 4.92, 41.07 5.85 C42.18 6.78, 43.22 7.82, 44.15 8.93 C45.08 10.04, 45.93 11.25, 46.65 12.5 C47.37 13.75, 48 15.09, 48.49 16.45 C48.99 17.81, 49.37 19.23, 49.62 20.66 C49.87 22.08, 49.94 24.28, 50 25 C50.06 25.72, 50.06 24.28, 50 25" stroke="#000000" stroke-width="2" fill="none"></path></g><g stroke-linecap="round" transform="translate(724.6056780847193 397.2979392040275) rotate(0 15 10)"><path d="M0 0 C11.09 0, 22.18 0, 30 0 M0 0 C7.91 0, 15.81 0, 30 0 M30 0 C30 5.26, 30 10.52, 30 20 M30 0 C30 4.47, 30 8.94, 30 20 M30 20 C18.54 20, 7.09 20, 0 20 M30 20 C23.36 20, 16.72 20, 0 20 M0 20 C0 12.12, 0 4.24, 0 0 M0 20 C0 15.63, 0 11.26, 0 0" stroke="#000000" stroke-width="2" fill="none"></path></g><g stroke-linecap="round"><g transform="translate(724.6056780847193 397.2979392040275) rotate(0 7.5 5)"><path d="M0 0 C2.5 1.67, 12.5 8.33, 15 10 M0 0 C2.5 1.67, 12.5 8.33, 15 10" stroke="#000000" stroke-width="2" fill="none"></path></g></g><mask></mask><g stroke-linecap="round"><g transform="translate(739.6056780847193 407.2979392040275) rotate(0 7.5 -5)"><path d="M0 0 C2.5 -1.67, 12.5 -8.33, 15 -10 M0 0 C2.5 -1.67, 12.5 -8.33, 15 -10" stroke="#000000" stroke-width="2" fill="none"></path></g></g><mask></mask><g stroke-linecap="round" transform="translate(1194.304924795844 379.7886095003383) rotate(0 30 30)"><path d="M60 30 C60 31.74, 59.85 33.5, 59.54 35.21 C59.24 36.92, 58.78 38.63, 58.19 40.26 C57.6 41.89, 56.85 43.5, 55.98 45 C55.11 46.5, 54.1 47.95, 52.98 49.28 C51.87 50.61, 50.61 51.87, 49.28 52.98 C47.95 54.1, 46.5 55.11, 45 55.98 C43.5 56.85, 41.89 57.6, 40.26 58.19 C38.63 58.78, 36.92 59.24, 35.21 59.54 C33.5 59.85, 31.74 60, 30 60 C28.26 60, 26.5 59.85, 24.79 59.54 C23.08 59.24, 21.37 58.78, 19.74 58.19 C18.11 57.6, 16.5 56.85, 15 55.98 C13.5 55.11, 12.05 54.1, 10.72 52.98 C9.39 51.87, 8.13 50.61, 7.02 49.28 C5.9 47.95, 4.89 46.5, 4.02 45 C3.15 43.5, 2.4 41.89, 1.81 40.26 C1.22 38.63, 0.76 36.92, 0.46 35.21 C0.15 33.5, 0 31.74, 0 30 C0 28.26, 0.15 26.5, 0.46 24.79 C0.76 23.08, 1.22 21.37, 1.81 19.74 C2.4 18.11, 3.15 16.5, 4.02 15 C4.89 13.5, 5.9 12.05, 7.02 10.72 C8.13 9.39, 9.39 8.13, 10.72 7.02 C12.05 5.9, 13.5 4.89, 15 4.02 C16.5 3.15, 18.11 2.4, 19.74 1.81 C21.37 1.22, 23.08 0.76, 24.79 0.46 C26.5 0.15, 28.26 0, 30 0 C31.74 0, 33.5 0.15, 35.21 0.46 C36.92 0.76, 38.63 1.22, 40.26 1.81 C41.89 2.4, 43.5 3.15, 45 4.02 C46.5 4.89, 47.95 5.9, 49.28 7.02 C50.61 8.13, 51.87 9.39, 52.98 10.72 C54.1 12.05, 55.11 13.5, 55.98 15 C56.85 16.5, 57.6 18.11, 58.19 19.74 C58.78 21.37, 59.24 23.08, 59.54 24.79 C59.85 26.5, 59.92 29.13, 60 30 C60.08 30.87, 60.08 29.13, 60 30" stroke="#000000" stroke-width="6" fill="none"></path></g><g stroke-linecap="round"><g transform="translate(278.9120180956054 412.2666632459106) rotate(0 57.31116826494542 0.305265642506356)"><path d="M0 0 C19.1 0.1, 95.52 0.51, 114.62 0.61 M0 0 C19.1 0.1, 95.52 0.51, 114.62 0.61" stroke="#000000" stroke-width="2" fill="none"></path></g><g transform="translate(278.9120180956054 412.2666632459106) rotate(0 57.31116826494542 0.305265642506356)"><path d="M114.62 0.61 L100.99 6.88 L101.06 -5.8 L114.62 0.61" stroke="none" stroke-width="0" fill="#000000" fill-rule="evenodd"></path><path d="M114.62 0.61 C110.07 2.7, 105.52 4.8, 100.99 6.88 M114.62 0.61 C111.63 1.98, 108.65 3.36, 100.99 6.88 M100.99 6.88 C101.01 3.11, 101.03 -0.65, 101.06 -5.8 M100.99 6.88 C101.02 2.75, 101.04 -1.38, 101.06 -5.8 M101.06 -5.8 C105.75 -3.58, 110.45 -1.36, 114.62 0.61 M101.06 -5.8 C103.87 -4.48, 106.67 -3.15, 114.62 0.61 M114.62 0.61 C114.62 0.61, 114.62 0.61, 114.62 0.61 M114.62 0.61 C114.62 0.61, 114.62 0.61, 114.62 0.61" stroke="#000000" stroke-width="2" fill="none"></path></g></g><mask></mask><g stroke-linecap="round"><g transform="translate(595.1423922290624 407.1808066176332) rotate(0 57.78530674110857 0.39061014436578034)"><path d="M0 0 C19.26 0.13, 96.31 0.65, 115.57 0.78 M0 0 C19.26 0.13, 96.31 0.65, 115.57 0.78" stroke="#000000" stroke-width="2" fill="none"></path></g><g transform="translate(595.1423922290624 407.1808066176332) rotate(0 57.78530674110857 0.39061014436578034)"><path d="M115.57 0.78 L101.93 7.03 L102.02 -5.65 L115.57 0.78" stroke="none" stroke-width="0" fill="#000000" fill-rule="evenodd"></path><path d="M115.57 0.78 C111.16 2.8, 106.75 4.82, 101.93 7.03 M115.57 0.78 C112.02 2.41, 108.48 4.03, 101.93 7.03 M101.93 7.03 C101.96 3.54, 101.98 0.05, 102.02 -5.65 M101.93 7.03 C101.96 2.74, 101.99 -1.55, 102.02 -5.65 M102.02 -5.65 C106.05 -3.74, 110.08 -1.82, 115.57 0.78 M102.02 -5.65 C105.5 -4, 108.97 -2.35, 115.57 0.78 M115.57 0.78 C115.57 0.78, 115.57 0.78, 115.57 0.78 M115.57 0.78 C115.57 0.78, 115.57 0.78, 115.57 0.78" stroke="#000000" stroke-width="2" fill="none"></path></g></g><mask></mask><g stroke-linecap="round"><g transform="translate(773.2815302717472 411.6925978557859) rotate(0 51.2307003842792 0.09554353985350872)"><path d="M0 0 C17.08 0.03, 85.38 0.16, 102.46 0.19 M0 0 C17.08 0.03, 85.38 0.16, 102.46 0.19" stroke="#000000" stroke-width="2" fill="none"></path></g><g transform="translate(773.2815302717472 411.6925978557859) rotate(0 51.2307003842792 0.09554353985350872)"><path d="M102.46 0.19 L88.85 6.5 L88.88 -6.17 L102.46 0.19" stroke="none" stroke-width="0" fill="#000000" fill-rule="evenodd"></path><path d="M102.46 0.19 C97.92 2.3, 93.39 4.4, 88.85 6.5 M102.46 0.19 C99.37 1.62, 96.29 3.06, 88.85 6.5 M88.85 6.5 C88.86 1.79, 88.87 -2.93, 88.88 -6.17 M88.85 6.5 C88.86 1.9, 88.87 -2.71, 88.88 -6.17 M88.88 -6.17 C93.51 -4, 98.14 -1.83, 102.46 0.19 M88.88 -6.17 C91.92 -4.75, 94.96 -3.32, 102.46 0.19 M102.46 0.19 C102.46 0.19, 102.46 0.19, 102.46 0.19 M102.46 0.19 C102.46 0.19, 102.46 0.19, 102.46 0.19" stroke="#000000" stroke-width="2" fill="none"></path></g></g><mask></mask><g stroke-linecap="round" transform="translate(879.4645171266523 355.3052965508146) rotate(0 100 50)"><path d="M25 0 M25 0 C57.36 0, 89.72 0, 175 0 M25 0 C71.77 0, 118.55 0, 175 0 M175 0 C191.67 0, 200 8.33, 200 25 M175 0 C191.67 0, 200 8.33, 200 25 M200 25 C200 40.72, 200 56.44, 200 75 M200 25 C200 43.47, 200 61.95, 200 75 M200 75 C200 91.67, 191.67 100, 175 100 M200 75 C200 91.67, 191.67 100, 175 100 M175 100 C126.6 100, 78.2 100, 25 100 M175 100 C140.35 100, 105.71 100, 25 100 M25 100 C8.33 100, 0 91.67, 0 75 M25 100 C8.33 100, 0 91.67, 0 75 M0 75 C0 56.94, 0 38.88, 0 25 M0 75 C0 59.93, 0 44.86, 0 25 M0 25 C0 8.33, 8.33 0, 25 0 M0 25 C0 8.33, 8.33 0, 25 0" stroke="#000000" stroke-width="2" fill="none"></path></g><g stroke-linecap="round"><g transform="translate(1081.336177938754 409.29041077589915) rotate(0 54.298239272262435 0.00003610664964526222)"><path d="M0 0 C18.1 0, 90.5 0, 108.6 0 M0 0 C18.1 0, 90.5 0, 108.6 0" stroke="#000000" stroke-width="2" fill="none"></path></g><g transform="translate(1081.336177938754 409.29041077589915) rotate(0 54.298239272262435 0.00003610664964526222)"><path d="M108.6 0 L95 6.34 L95 -6.34 L108.6 0" stroke="none" stroke-width="0" fill="#000000" fill-rule="evenodd"></path><path d="M108.6 0 C103.8 2.24, 98.99 4.48, 95 6.34 M108.6 0 C105.17 1.6, 101.73 3.2, 95 6.34 M95 6.34 C95 2.69, 95 -0.96, 95 -6.34 M95 6.34 C95 3.59, 95 0.84, 95 -6.34 M95 -6.34 C99.05 -4.45, 103.11 -2.56, 108.6 0 M95 -6.34 C99.78 -4.11, 104.56 -1.88, 108.6 0 M108.6 0 C108.6 0, 108.6 0, 108.6 0 M108.6 0 C108.6 0, 108.6 0, 108.6 0" stroke="#000000" stroke-width="2" fill="none"></path></g></g><mask></mask><g stroke-linecap="round" transform="translate(228.61364298034937 407.33280111446146) rotate(0 30 30)"><path d="M60 30 C60 31.74, 59.85 33.5, 59.54 35.21 C59.24 36.92, 58.78 38.63, 58.19 40.26 C57.6 41.89, 56.85 43.5, 55.98 45 C55.11 46.5, 54.1 47.95, 52.98 49.28 C51.87 50.61, 50.61 51.87, 49.28 52.98 C47.95 54.1, 46.5 55.11, 45 55.98 C43.5 56.85, 41.89 57.6, 40.26 58.19 C38.63 58.78, 36.92 59.24, 35.21 59.54 C33.5 59.85, 31.74 60, 30 60 C28.26 60, 26.5 59.85, 24.79 59.54 C23.08 59.24, 21.37 58.78, 19.74 58.19 C18.11 57.6, 16.5 56.85, 15 55.98 C13.5 55.11, 12.05 54.1, 10.72 52.98 C9.39 51.87, 8.13 50.61, 7.02 49.28 C5.9 47.95, 4.89 46.5, 4.02 45 C3.15 43.5, 2.4 41.89, 1.81 40.26 C1.22 38.63, 0.76 36.92, 0.46 35.21 C0.15 33.5, 0 31.74, 0 30 C0 28.26, 0.15 26.5, 0.46 24.79 C0.76 23.08, 1.22 21.37, 1.81 19.74 C2.4 18.11, 3.15 16.5, 4.02 15 C4.89 13.5, 5.9 12.05, 7.02 10.72 C8.13 9.39, 9.39 8.13, 10.72 7.02 C12.05 5.9, 13.5 4.89, 15 4.02 C16.5 3.15, 18.11 2.4, 19.74 1.81 C21.37 1.22, 23.08 0.76, 24.79 0.46 C26.5 0.15, 28.26 0, 30 0 C31.74 0, 33.5 0.15, 35.21 0.46 C36.92 0.76, 38.63 1.22, 40.26 1.81 C41.89 2.4, 43.5 3.15, 45 4.02 C46.5 4.89, 47.95 5.9, 49.28 7.02 C50.61 8.13, 51.87 9.39, 52.98 10.72 C54.1 12.05, 55.11 13.5, 55.98 15 C56.85 16.5, 57.6 18.11, 58.19 19.74 C58.78 21.37, 59.24 23.08, 59.54 24.79 C59.85 26.5, 59.92 29.13, 60 30 C60.08 30.87, 60.08 29.13, 60 30" stroke="none" stroke-width="0" fill="#ffffff"></path><path d="M60 30 C60 31.74, 59.85 33.5, 59.54 35.21 C59.24 36.92, 58.78 38.63, 58.19 40.26 C57.6 41.89, 56.85 43.5, 55.98 45 C55.11 46.5, 54.1 47.95, 52.98 49.28 C51.87 50.61, 50.61 51.87, 49.28 52.98 C47.95 54.1, 46.5 55.11, 45 55.98 C43.5 56.85, 41.89 57.6, 40.26 58.19 C38.63 58.78, 36.92 59.24, 35.21 59.54 C33.5 59.85, 31.74 60, 30 60 C28.26 60, 26.5 59.85, 24.79 59.54 C23.08 59.24, 21.37 58.78, 19.74 58.19 C18.11 57.6, 16.5 56.85, 15 55.98 C13.5 55.11, 12.05 54.1, 10.72 52.98 C9.39 51.87, 8.13 50.61, 7.02 49.28 C5.9 47.95, 4.89 46.5, 4.02 45 C3.15 43.5, 2.4 41.89, 1.81 40.26 C1.22 38.63, 0.76 36.92, 0.46 35.21 C0.15 33.5, 0 31.74, 0 30 C0 28.26, 0.15 26.5, 0.46 24.79 C0.76 23.08, 1.22 21.37, 1.81 19.74 C2.4 18.11, 3.15 16.5, 4.02 15 C4.89 13.5, 5.9 12.05, 7.02 10.72 C8.13 9.39, 9.39 8.13, 10.72 7.02 C12.05 5.9, 13.5 4.89, 15 4.02 C16.5 3.15, 18.11 2.4, 19.74 1.81 C21.37 1.22, 23.08 0.76, 24.79 0.46 C26.5 0.15, 28.26 0, 30 0 C31.74 0, 33.5 0.15, 35.21 0.46 C36.92 0.76, 38.63 1.22, 40.26 1.81 C41.89 2.4, 43.5 3.15, 45 4.02 C46.5 4.89, 47.95 5.9, 49.28 7.02 C50.61 8.13, 51.87 9.39, 52.98 10.72 C54.1 12.05, 55.11 13.5, 55.98 15 C56.85 16.5, 57.6 18.11, 58.19 19.74 C58.78 21.37, 59.24 23.08, 59.54 24.79 C59.85 26.5, 59.92 29.13, 60 30 C60.08 30.87, 60.08 29.13, 60 30" stroke="#000000" stroke-width="2" fill="none"></path></g><g stroke-linecap="round" transform="translate(405.6957071243007 389.32551977921884) rotate(0 100 50)"><path d="M25 0 L175 0 L180.86 0.39 L190.23 3.52 L193.75 6.25 L196.48 9.77 L199.61 19.14 L200 75 L199.61 80.86 L196.48 90.23 L193.75 93.75 L190.23 96.48 L185.94 98.44 L175 100 L25 100 L14.06 98.44 L9.77 96.48 L6.25 93.75 L3.52 90.23 L0.39 80.86 L0.39 19.14 L3.52 9.77 L6.25 6.25 L9.77 3.52 L14.06 1.56 L25 0" stroke="none" stroke-width="0" fill="#ffffff"></path><path d="M25 0 M25 0 C72.14 0, 119.29 0, 175 0 M25 0 C60.34 0, 95.69 0, 175 0 M175 0 C191.67 0, 200 8.33, 200 25 M175 0 C191.67 0, 200 8.33, 200 25 M200 25 C200 37.95, 200 50.89, 200 75 M200 25 C200 36.96, 200 48.92, 200 75 M200 75 C200 91.67, 191.67 100, 175 100 M200 75 C200 91.67, 191.67 100, 175 100 M175 100 C144.12 100, 113.25 100, 25 100 M175 100 C122.7 100, 70.4 100, 25 100 M25 100 C8.33 100, 0 91.67, 0 75 M25 100 C8.33 100, 0 91.67, 0 75 M0 75 C0 57.85, 0 40.7, 0 25 M0 75 C0 55.69, 0 36.38, 0 25 M0 25 C0 8.33, 8.33 0, 25 0 M0 25 C0 8.33, 8.33 0, 25 0" stroke="#000000" stroke-width="2" fill="none"></path></g><g stroke-linecap="round" transform="translate(723.774054589084 408.329236458386) rotate(0 30 30)"><path d="M60 30 C60 31.74, 59.85 33.5, 59.54 35.21 C59.24 36.92, 58.78 38.63, 58.19 40.26 C57.6 41.89, 56.85 43.5, 55.98 45 C55.11 46.5, 54.1 47.95, 52.98 49.28 C51.87 50.61, 50.61 51.87, 49.28 52.98 C47.95 54.1, 46.5 55.11, 45 55.98 C43.5 56.85, 41.89 57.6, 40.26 58.19 C38.63 58.78, 36.92 59.24, 35.21 59.54 C33.5 59.85, 31.74 60, 30 60 C28.26 60, 26.5 59.85, 24.79 59.54 C23.08 59.24, 21.37 58.78, 19.74 58.19 C18.11 57.6, 16.5 56.85, 15 55.98 C13.5 55.11, 12.05 54.1, 10.72 52.98 C9.39 51.87, 8.13 50.61, 7.02 49.28 C5.9 47.95, 4.89 46.5, 4.02 45 C3.15 43.5, 2.4 41.89, 1.81 40.26 C1.22 38.63, 0.76 36.92, 0.46 35.21 C0.15 33.5, 0 31.74, 0 30 C0 28.26, 0.15 26.5, 0.46 24.79 C0.76 23.08, 1.22 21.37, 1.81 19.74 C2.4 18.11, 3.15 16.5, 4.02 15 C4.89 13.5, 5.9 12.05, 7.02 10.72 C8.13 9.39, 9.39 8.13, 10.72 7.02 C12.05 5.9, 13.5 4.89, 15 4.02 C16.5 3.15, 18.11 2.4, 19.74 1.81 C21.37 1.22, 23.08 0.76, 24.79 0.46 C26.5 0.15, 28.26 0, 30 0 C31.74 0, 33.5 0.15, 35.21 0.46 C36.92 0.76, 38.63 1.22, 40.26 1.81 C41.89 2.4, 43.5 3.15, 45 4.02 C46.5 4.89, 47.95 5.9, 49.28 7.02 C50.61 8.13, 51.87 9.39, 52.98 10.72 C54.1 12.05, 55.11 13.5, 55.98 15 C56.85 16.5, 57.6 18.11, 58.19 19.74 C58.78 21.37, 59.24 23.08, 59.54 24.79 C59.85 26.5, 59.92 29.13, 60 30 C60.08 30.87, 60.08 29.13, 60 30" stroke="none" stroke-width="0" fill="#ffffff"></path><path d="M60 30 C60 31.74, 59.85 33.5, 59.54 35.21 C59.24 36.92, 58.78 38.63, 58.19 40.26 C57.6 41.89, 56.85 43.5, 55.98 45 C55.11 46.5, 54.1 47.95, 52.98 49.28 C51.87 50.61, 50.61 51.87, 49.28 52.98 C47.95 54.1, 46.5 55.11, 45 55.98 C43.5 56.85, 41.89 57.6, 40.26 58.19 C38.63 58.78, 36.92 59.24, 35.21 59.54 C33.5 59.85, 31.74 60, 30 60 C28.26 60, 26.5 59.85, 24.79 59.54 C23.08 59.24, 21.37 58.78, 19.74 58.19 C18.11 57.6, 16.5 56.85, 15 55.98 C13.5 55.11, 12.05 54.1, 10.72 52.98 C9.39 51.87, 8.13 50.61, 7.02 49.28 C5.9 47.95, 4.89 46.5, 4.02 45 C3.15 43.5, 2.4 41.89, 1.81 40.26 C1.22 38.63, 0.76 36.92, 0.46 35.21 C0.15 33.5, 0 31.74, 0 30 C0 28.26, 0.15 26.5, 0.46 24.79 C0.76 23.08, 1.22 21.37, 1.81 19.74 C2.4 18.11, 3.15 16.5, 4.02 15 C4.89 13.5, 5.9 12.05, 7.02 10.72 C8.13 9.39, 9.39 8.13, 10.72 7.02 C12.05 5.9, 13.5 4.89, 15 4.02 C16.5 3.15, 18.11 2.4, 19.74 1.81 C21.37 1.22, 23.08 0.76, 24.79 0.46 C26.5 0.15, 28.26 0, 30 0 C31.74 0, 33.5 0.15, 35.21 0.46 C36.92 0.76, 38.63 1.22, 40.26 1.81 C41.89 2.4, 43.5 3.15, 45 4.02 C46.5 4.89, 47.95 5.9, 49.28 7.02 C50.61 8.13, 51.87 9.39, 52.98 10.72 C54.1 12.05, 55.11 13.5, 55.98 15 C56.85 16.5, 57.6 18.11, 58.19 19.74 C58.78 21.37, 59.24 23.08, 59.54 24.79 C59.85 26.5, 59.92 29.13, 60 30 C60.08 30.87, 60.08 29.13, 60 30" stroke="#000000" stroke-width="2" fill="none"></path></g><g stroke-linecap="round" transform="translate(728.774054589084 413.329236458386) rotate(0 25 25)"><path d="M50 25 C50 26.45, 49.87 27.92, 49.62 29.34 C49.37 30.77, 48.99 32.19, 48.49 33.55 C48 34.91, 47.37 36.25, 46.65 37.5 C45.93 38.75, 45.08 39.96, 44.15 41.07 C43.22 42.18, 42.18 43.22, 41.07 44.15 C39.96 45.08, 38.75 45.93, 37.5 46.65 C36.25 47.37, 34.91 48, 33.55 48.49 C32.19 48.99, 30.77 49.37, 29.34 49.62 C27.92 49.87, 26.45 50, 25 50 C23.55 50, 22.08 49.87, 20.66 49.62 C19.23 49.37, 17.81 48.99, 16.45 48.49 C15.09 48, 13.75 47.37, 12.5 46.65 C11.25 45.93, 10.04 45.08, 8.93 44.15 C7.82 43.22, 6.78 42.18, 5.85 41.07 C4.92 39.96, 4.07 38.75, 3.35 37.5 C2.63 36.25, 2 34.91, 1.51 33.55 C1.01 32.19, 0.63 30.77, 0.38 29.34 C0.13 27.92, 0 26.45, 0 25 C0 23.55, 0.13 22.08, 0.38 20.66 C0.63 19.23, 1.01 17.81, 1.51 16.45 C2 15.09, 2.63 13.75, 3.35 12.5 C4.07 11.25, 4.92 10.04, 5.85 8.93 C6.78 7.82, 7.82 6.78, 8.93 5.85 C10.04 4.92, 11.25 4.07, 12.5 3.35 C13.75 2.63, 15.09 2, 16.45 1.51 C17.81 1.01, 19.23 0.63, 20.66 0.38 C22.08 0.13, 23.55 0, 25 0 C26.45 0, 27.92 0.13, 29.34 0.38 C30.77 0.63, 32.19 1.01, 33.55 1.51 C34.91 2, 36.25 2.63, 37.5 3.35 C38.75 4.07, 39.96 4.92, 41.07 5.85 C42.18 6.78, 43.22 7.82, 44.15 8.93 C45.08 10.04, 45.93 11.25, 46.65 12.5 C47.37 13.75, 48 15.09, 48.49 16.45 C48.99 17.81, 49.37 19.23, 49.62 20.66 C49.87 22.08, 49.94 24.28, 50 25 C50.06 25.72, 50.06 24.28, 50 25" stroke="none" stroke-width="0" fill="#ffffff"></path><path d="M50 25 C50 26.45, 49.87 27.92, 49.62 29.34 C49.37 30.77, 48.99 32.19, 48.49 33.55 C48 34.91, 47.37 36.25, 46.65 37.5 C45.93 38.75, 45.08 39.96, 44.15 41.07 C43.22 42.18, 42.18 43.22, 41.07 44.15 C39.96 45.08, 38.75 45.93, 37.5 46.65 C36.25 47.37, 34.91 48, 33.55 48.49 C32.19 48.99, 30.77 49.37, 29.34 49.62 C27.92 49.87, 26.45 50, 25 50 C23.55 50, 22.08 49.87, 20.66 49.62 C19.23 49.37, 17.81 48.99, 16.45 48.49 C15.09 48, 13.75 47.37, 12.5 46.65 C11.25 45.93, 10.04 45.08, 8.93 44.15 C7.82 43.22, 6.78 42.18, 5.85 41.07 C4.92 39.96, 4.07 38.75, 3.35 37.5 C2.63 36.25, 2 34.91, 1.51 33.55 C1.01 32.19, 0.63 30.77, 0.38 29.34 C0.13 27.92, 0 26.45, 0 25 C0 23.55, 0.13 22.08, 0.38 20.66 C0.63 19.23, 1.01 17.81, 1.51 16.45 C2 15.09, 2.63 13.75, 3.35 12.5 C4.07 11.25, 4.92 10.04, 5.85 8.93 C6.78 7.82, 7.82 6.78, 8.93 5.85 C10.04 4.92, 11.25 4.07, 12.5 3.35 C13.75 2.63, 15.09 2, 16.45 1.51 C17.81 1.01, 19.23 0.63, 20.66 0.38 C22.08 0.13, 23.55 0, 25 0 C26.45 0, 27.92 0.13, 29.34 0.38 C30.77 0.63, 32.19 1.01, 33.55 1.51 C34.91 2, 36.25 2.63, 37.5 3.35 C38.75 4.07, 39.96 4.92, 41.07 5.85 C42.18 6.78, 43.22 7.82, 44.15 8.93 C45.08 10.04, 45.93 11.25, 46.65 12.5 C47.37 13.75, 48 15.09, 48.49 16.45 C48.99 17.81, 49.37 19.23, 49.62 20.66 C49.87 22.08, 49.94 24.28, 50 25 C50.06 25.72, 50.06 24.28, 50 25" stroke="#000000" stroke-width="2" fill="none"></path></g><g stroke-linecap="round" transform="translate(738.774054589084 428.329236458386) rotate(0 15 10)"><path d="M0 0 L30 0 L30 20 L0 20" stroke="none" stroke-width="0" fill="#ffffff"></path><path d="M0 0 C11.75 0, 23.5 0, 30 0 M0 0 C8.21 0, 16.42 0, 30 0 M30 0 C30 4.1, 30 8.2, 30 20 M30 0 C30 6.07, 30 12.14, 30 20 M30 20 C20.1 20, 10.21 20, 0 20 M30 20 C18.53 20, 7.06 20, 0 20 M0 20 C0 15.72, 0 11.45, 0 0 M0 20 C0 13.11, 0 6.23, 0 0" stroke="#000000" stroke-width="2" fill="none"></path></g><g stroke-linecap="round"><g transform="translate(738.774054589084 428.329236458386) rotate(0 7.5 5)"><path d="M0 0 C2.5 1.67, 12.5 8.33, 15 10 M0 0 C2.5 1.67, 12.5 8.33, 15 10" stroke="#000000" stroke-width="2" fill="none"></path></g></g><mask></mask><g stroke-linecap="round"><g transform="translate(753.774054589084 438.329236458386) rotate(0 7.5 -5)"><path d="M0 0 C2.5 -1.67, 12.5 -8.33, 15 -10 M0 0 C2.5 -1.67, 12.5 -8.33, 15 -10" stroke="#000000" stroke-width="2" fill="none"></path></g></g><mask></mask><g stroke-linecap="round" transform="translate(1208.4733013002076 410.8199067546968) rotate(0 30 30)"><path d="M60 30 C60 31.74, 59.85 33.5, 59.54 35.21 C59.24 36.92, 58.78 38.63, 58.19 40.26 C57.6 41.89, 56.85 43.5, 55.98 45 C55.11 46.5, 54.1 47.95, 52.98 49.28 C51.87 50.61, 50.61 51.87, 49.28 52.98 C47.95 54.1, 46.5 55.11, 45 55.98 C43.5 56.85, 41.89 57.6, 40.26 58.19 C38.63 58.78, 36.92 59.24, 35.21 59.54 C33.5 59.85, 31.74 60, 30 60 C28.26 60, 26.5 59.85, 24.79 59.54 C23.08 59.24, 21.37 58.78, 19.74 58.19 C18.11 57.6, 16.5 56.85, 15 55.98 C13.5 55.11, 12.05 54.1, 10.72 52.98 C9.39 51.87, 8.13 50.61, 7.02 49.28 C5.9 47.95, 4.89 46.5, 4.02 45 C3.15 43.5, 2.4 41.89, 1.81 40.26 C1.22 38.63, 0.76 36.92, 0.46 35.21 C0.15 33.5, 0 31.74, 0 30 C0 28.26, 0.15 26.5, 0.46 24.79 C0.76 23.08, 1.22 21.37, 1.81 19.74 C2.4 18.11, 3.15 16.5, 4.02 15 C4.89 13.5, 5.9 12.05, 7.02 10.72 C8.13 9.39, 9.39 8.13, 10.72 7.02 C12.05 5.9, 13.5 4.89, 15 4.02 C16.5 3.15, 18.11 2.4, 19.74 1.81 C21.37 1.22, 23.08 0.76, 24.79 0.46 C26.5 0.15, 28.26 0, 30 0 C31.74 0, 33.5 0.15, 35.21 0.46 C36.92 0.76, 38.63 1.22, 40.26 1.81 C41.89 2.4, 43.5 3.15, 45 4.02 C46.5 4.89, 47.95 5.9, 49.28 7.02 C50.61 8.13, 51.87 9.39, 52.98 10.72 C54.1 12.05, 55.11 13.5, 55.98 15 C56.85 16.5, 57.6 18.11, 58.19 19.74 C58.78 21.37, 59.24 23.08, 59.54 24.79 C59.85 26.5, 59.92 29.13, 60 30 C60.08 30.87, 60.08 29.13, 60 30" stroke="none" stroke-width="0" fill="#ffffff"></path><path d="M60 30 C60 31.74, 59.85 33.5, 59.54 35.21 C59.24 36.92, 58.78 38.63, 58.19 40.26 C57.6 41.89, 56.85 43.5, 55.98 45 C55.11 46.5, 54.1 47.95, 52.98 49.28 C51.87 50.61, 50.61 51.87, 49.28 52.98 C47.95 54.1, 46.5 55.11, 45 55.98 C43.5 56.85, 41.89 57.6, 40.26 58.19 C38.63 58.78, 36.92 59.24, 35.21 59.54 C33.5 59.85, 31.74 60, 30 60 C28.26 60, 26.5 59.85, 24.79 59.54 C23.08 59.24, 21.37 58.78, 19.74 58.19 C18.11 57.6, 16.5 56.85, 15 55.98 C13.5 55.11, 12.05 54.1, 10.72 52.98 C9.39 51.87, 8.13 50.61, 7.02 49.28 C5.9 47.95, 4.89 46.5, 4.02 45 C3.15 43.5, 2.4 41.89, 1.81 40.26 C1.22 38.63, 0.76 36.92, 0.46 35.21 C0.15 33.5, 0 31.74, 0 30 C0 28.26, 0.15 26.5, 0.46 24.79 C0.76 23.08, 1.22 21.37, 1.81 19.74 C2.4 18.11, 3.15 16.5, 4.02 15 C4.89 13.5, 5.9 12.05, 7.02 10.72 C8.13 9.39, 9.39 8.13, 10.72 7.02 C12.05 5.9, 13.5 4.89, 15 4.02 C16.5 3.15, 18.11 2.4, 19.74 1.81 C21.37 1.22, 23.08 0.76, 24.79 0.46 C26.5 0.15, 28.26 0, 30 0 C31.74 0, 33.5 0.15, 35.21 0.46 C36.92 0.76, 38.63 1.22, 40.26 1.81 C41.89 2.4, 43.5 3.15, 45 4.02 C46.5 4.89, 47.95 5.9, 49.28 7.02 C50.61 8.13, 51.87 9.39, 52.98 10.72 C54.1 12.05, 55.11 13.5, 55.98 15 C56.85 16.5, 57.6 18.11, 58.19 19.74 C58.78 21.37, 59.24 23.08, 59.54 24.79 C59.85 26.5, 59.92 29.13, 60 30 C60.08 30.87, 60.08 29.13, 60 30" stroke="#000000" stroke-width="6" fill="none"></path></g><g stroke-linecap="round"><g transform="translate(292.38013204234926 440.687483645139) rotate(0 57.341003044268746 0.31530138787331907)"><path d="M0 0 C19.11 0.11, 95.57 0.53, 114.68 0.63 M0 0 C19.11 0.11, 95.57 0.53, 114.68 0.63" stroke="#000000" stroke-width="2" fill="none"></path></g><g transform="translate(292.38013204234926 440.687483645139) rotate(0 57.341003044268746 0.31530138787331907)"><path d="M114.68 0.63 L101.05 6.9 L101.12 -5.78 L114.68 0.63" stroke="none" stroke-width="0" fill="#000000" fill-rule="evenodd"></path><path d="M114.68 0.63 C109.69 2.92, 104.7 5.22, 101.05 6.9 M114.68 0.63 C109.43 3.04, 104.18 5.46, 101.05 6.9 M101.05 6.9 C101.08 1.94, 101.11 -3.02, 101.12 -5.78 M101.05 6.9 C101.08 2.56, 101.1 -1.78, 101.12 -5.78 M101.12 -5.78 C104.68 -4.1, 108.23 -2.42, 114.68 0.63 M101.12 -5.78 C104.26 -4.3, 107.4 -2.81, 114.68 0.63 M114.68 0.63 C114.68 0.63, 114.68 0.63, 114.68 0.63 M114.68 0.63 C114.68 0.63, 114.68 0.63, 114.68 0.63" stroke="#000000" stroke-width="2" fill="none"></path></g></g><mask></mask><g stroke-linecap="round"><g transform="translate(609.310768733427 438.2121038719917) rotate(0 57.78530674110857 0.39061014436578034)"><path d="M0 0 C19.26 0.13, 96.31 0.65, 115.57 0.78 M0 0 C19.26 0.13, 96.31 0.65, 115.57 0.78" stroke="#000000" stroke-width="2" fill="none"></path></g><g transform="translate(609.310768733427 438.2121038719917) rotate(0 57.78530674110857 0.39061014436578034)"><path d="M115.57 0.78 L101.93 7.03 L102.02 -5.65 L115.57 0.78" stroke="none" stroke-width="0" fill="#000000" fill-rule="evenodd"></path><path d="M115.57 0.78 C110.26 3.22, 104.94 5.65, 101.93 7.03 M115.57 0.78 C110.44 3.13, 105.31 5.48, 101.93 7.03 M101.93 7.03 C101.96 2.88, 101.99 -1.27, 102.02 -5.65 M101.93 7.03 C101.96 2.38, 102 -2.27, 102.02 -5.65 M102.02 -5.65 C106.28 -3.63, 110.54 -1.61, 115.57 0.78 M102.02 -5.65 C106.21 -3.66, 110.4 -1.67, 115.57 0.78 M115.57 0.78 C115.57 0.78, 115.57 0.78, 115.57 0.78 M115.57 0.78 C115.57 0.78, 115.57 0.78, 115.57 0.78" stroke="#000000" stroke-width="2" fill="none"></path></g></g><mask></mask><g stroke-linecap="round"><g transform="translate(786.7420361904863 440.1124800733825) rotate(0 51.26433917760494 0.10495757540928707)"><path d="M0 0 C17.09 0.03, 85.44 0.17, 102.53 0.21 M0 0 C17.09 0.03, 85.44 0.17, 102.53 0.21" stroke="#000000" stroke-width="2" fill="none"></path></g><g transform="translate(786.7420361904863 440.1124800733825) rotate(0 51.26433917760494 0.10495757540928707)"><path d="M102.53 0.21 L88.92 6.52 L88.95 -6.16 L102.53 0.21" stroke="none" stroke-width="0" fill="#000000" fill-rule="evenodd"></path><path d="M102.53 0.21 C98.86 1.91, 95.19 3.62, 88.92 6.52 M102.53 0.21 C99.09 1.8, 95.66 3.4, 88.92 6.52 M88.92 6.52 C88.93 2.86, 88.94 -0.8, 88.95 -6.16 M88.92 6.52 C88.93 3.54, 88.93 0.56, 88.95 -6.16 M88.95 -6.16 C93.01 -4.25, 97.08 -2.35, 102.53 0.21 M88.95 -6.16 C92.26 -4.61, 95.56 -3.06, 102.53 0.21 M102.53 0.21 C102.53 0.21, 102.53 0.21, 102.53 0.21 M102.53 0.21 C102.53 0.21, 102.53 0.21, 102.53 0.21" stroke="#000000" stroke-width="2" fill="none"></path></g></g><mask></mask><g stroke-linecap="round" transform="translate(893.6328936310167 386.3365938051731) rotate(0 100 50)"><path d="M25 0 L175 0 L180.86 0.39 L190.23 3.52 L193.75 6.25 L196.48 9.77 L199.61 19.14 L200 75 L199.61 80.86 L196.48 90.23 L193.75 93.75 L190.23 96.48 L185.94 98.44 L175 100 L25 100 L14.06 98.44 L9.77 96.48 L6.25 93.75 L3.52 90.23 L0.39 80.86 L0.39 19.14 L3.52 9.77 L6.25 6.25 L9.77 3.52 L14.06 1.56 L25 0" stroke="none" stroke-width="0" fill="#ffffff"></path><path d="M25 0 M25 0 C59.74 0, 94.49 0, 175 0 M25 0 C57.07 0, 89.15 0, 175 0 M175 0 C191.67 0, 200 8.33, 200 25 M175 0 C191.67 0, 200 8.33, 200 25 M200 25 C200 37.66, 200 50.33, 200 75 M200 25 C200 36.99, 200 48.99, 200 75 M200 75 C200 91.67, 191.67 100, 175 100 M200 75 C200 91.67, 191.67 100, 175 100 M175 100 C139.5 100, 104 100, 25 100 M175 100 C142.07 100, 109.13 100, 25 100 M25 100 C8.33 100, 0 91.67, 0 75 M25 100 C8.33 100, 0 91.67, 0 75 M0 75 C0 62.58, 0 50.16, 0 25 M0 75 C0 60.66, 0 46.31, 0 25 M0 25 C0 8.33, 8.33 0, 25 0 M0 25 C0 8.33, 8.33 0, 25 0" stroke="#000000" stroke-width="2" fill="none"></path></g><g stroke-linecap="round"><g transform="translate(1095.5045544431175 440.32170803025764) rotate(0 54.298239272262435 0.00003610664964526222)"><path d="M0 0 C18.1 0, 90.5 0, 108.6 0 M0 0 C18.1 0, 90.5 0, 108.6 0" stroke="#000000" stroke-width="2" fill="none"></path></g><g transform="translate(1095.5045544431175 440.32170803025764) rotate(0 54.298239272262435 0.00003610664964526222)"><path d="M108.6 0 L95 6.34 L95 -6.34 L108.6 0" stroke="none" stroke-width="0" fill="#000000" fill-rule="evenodd"></path><path d="M108.6 0 C105.45 1.47, 102.31 2.93, 95 6.34 M108.6 0 C105.63 1.38, 102.66 2.77, 95 6.34 M95 6.34 C95 3.11, 95 -0.13, 95 -6.34 M95 6.34 C95 2.61, 95 -1.13, 95 -6.34 M95 -6.34 C98.31 -4.8, 101.62 -3.25, 108.6 0 M95 -6.34 C97.94 -4.97, 100.89 -3.6, 108.6 0 M108.6 0 C108.6 0, 108.6 0, 108.6 0 M108.6 0 C108.6 0, 108.6 0, 108.6 0" stroke="#000000" stroke-width="2" fill="none"></path></g></g><mask></mask><g stroke-linecap="round" transform="translate(242.66843799541834 442.8789909801897) rotate(0 30 30)"><path d="M60 30 C60 31.74, 59.85 33.5, 59.54 35.21 C59.24 36.92, 58.78 38.63, 58.19 40.26 C57.6 41.89, 56.85 43.5, 55.98 45 C55.11 46.5, 54.1 47.95, 52.98 49.28 C51.87 50.61, 50.61 51.87, 49.28 52.98 C47.95 54.1, 46.5 55.11, 45 55.98 C43.5 56.85, 41.89 57.6, 40.26 58.19 C38.63 58.78, 36.92 59.24, 35.21 59.54 C33.5 59.85, 31.74 60, 30 60 C28.26 60, 26.5 59.85, 24.79 59.54 C23.08 59.24, 21.37 58.78, 19.74 58.19 C18.11 57.6, 16.5 56.85, 15 55.98 C13.5 55.11, 12.05 54.1, 10.72 52.98 C9.39 51.87, 8.13 50.61, 7.02 49.28 C5.9 47.95, 4.89 46.5, 4.02 45 C3.15 43.5, 2.4 41.89, 1.81 40.26 C1.22 38.63, 0.76 36.92, 0.46 35.21 C0.15 33.5, 0 31.74, 0 30 C0 28.26, 0.15 26.5, 0.46 24.79 C0.76 23.08, 1.22 21.37, 1.81 19.74 C2.4 18.11, 3.15 16.5, 4.02 15 C4.89 13.5, 5.9 12.05, 7.02 10.72 C8.13 9.39, 9.39 8.13, 10.72 7.02 C12.05 5.9, 13.5 4.89, 15 4.02 C16.5 3.15, 18.11 2.4, 19.74 1.81 C21.37 1.22, 23.08 0.76, 24.79 0.46 C26.5 0.15, 28.26 0, 30 0 C31.74 0, 33.5 0.15, 35.21 0.46 C36.92 0.76, 38.63 1.22, 40.26 1.81 C41.89 2.4, 43.5 3.15, 45 4.02 C46.5 4.89, 47.95 5.9, 49.28 7.02 C50.61 8.13, 51.87 9.39, 52.98 10.72 C54.1 12.05, 55.11 13.5, 55.98 15 C56.85 16.5, 57.6 18.11, 58.19 19.74 C58.78 21.37, 59.24 23.08, 59.54 24.79 C59.85 26.5, 59.92 29.13, 60 30 C60.08 30.87, 60.08 29.13, 60 30" stroke="none" stroke-width="0" fill="#ffffff"></path><path d="M60 30 C60 31.74, 59.85 33.5, 59.54 35.21 C59.24 36.92, 58.78 38.63, 58.19 40.26 C57.6 41.89, 56.85 43.5, 55.98 45 C55.11 46.5, 54.1 47.95, 52.98 49.28 C51.87 50.61, 50.61 51.87, 49.28 52.98 C47.95 54.1, 46.5 55.11, 45 55.98 C43.5 56.85, 41.89 57.6, 40.26 58.19 C38.63 58.78, 36.92 59.24, 35.21 59.54 C33.5 59.85, 31.74 60, 30 60 C28.26 60, 26.5 59.85, 24.79 59.54 C23.08 59.24, 21.37 58.78, 19.74 58.19 C18.11 57.6, 16.5 56.85, 15 55.98 C13.5 55.11, 12.05 54.1, 10.72 52.98 C9.39 51.87, 8.13 50.61, 7.02 49.28 C5.9 47.95, 4.89 46.5, 4.02 45 C3.15 43.5, 2.4 41.89, 1.81 40.26 C1.22 38.63, 0.76 36.92, 0.46 35.21 C0.15 33.5, 0 31.74, 0 30 C0 28.26, 0.15 26.5, 0.46 24.79 C0.76 23.08, 1.22 21.37, 1.81 19.74 C2.4 18.11, 3.15 16.5, 4.02 15 C4.89 13.5, 5.9 12.05, 7.02 10.72 C8.13 9.39, 9.39 8.13, 10.72 7.02 C12.05 5.9, 13.5 4.89, 15 4.02 C16.5 3.15, 18.11 2.4, 19.74 1.81 C21.37 1.22, 23.08 0.76, 24.79 0.46 C26.5 0.15, 28.26 0, 30 0 C31.74 0, 33.5 0.15, 35.21 0.46 C36.92 0.76, 38.63 1.22, 40.26 1.81 C41.89 2.4, 43.5 3.15, 45 4.02 C46.5 4.89, 47.95 5.9, 49.28 7.02 C50.61 8.13, 51.87 9.39, 52.98 10.72 C54.1 12.05, 55.11 13.5, 55.98 15 C56.85 16.5, 57.6 18.11, 58.19 19.74 C58.78 21.37, 59.24 23.08, 59.54 24.79 C59.85 26.5, 59.92 29.13, 60 30 C60.08 30.87, 60.08 29.13, 60 30" stroke="#000000" stroke-width="2" fill="none"></path></g><g stroke-linecap="round" transform="translate(419.7505021393695 424.87170964494686) rotate(0 100 50)"><path d="M25 0 L175 0 L180.86 0.39 L190.23 3.52 L193.75 6.25 L196.48 9.77 L199.61 19.14 L200 75 L199.61 80.86 L196.48 90.23 L193.75 93.75 L190.23 96.48 L185.94 98.44 L175 100 L25 100 L14.06 98.44 L9.77 96.48 L6.25 93.75 L3.52 90.23 L0.39 80.86 L0.39 19.14 L3.52 9.77 L6.25 6.25 L9.77 3.52 L14.06 1.56 L25 0" stroke="none" stroke-width="0" fill="#ffffff"></path><path d="M25 0 M25 0 C71.59 0, 118.19 0, 175 0 M25 0 C79.49 0, 133.97 0, 175 0 M175 0 C191.67 0, 200 8.33, 200 25 M175 0 C191.67 0, 200 8.33, 200 25 M200 25 C200 43.81, 200 62.63, 200 75 M200 25 C200 44.4, 200 63.81, 200 75 M200 75 C200 91.67, 191.67 100, 175 100 M200 75 C200 91.67, 191.67 100, 175 100 M175 100 C133.61 100, 92.22 100, 25 100 M175 100 C139.3 100, 103.61 100, 25 100 M25 100 C8.33 100, 0 91.67, 0 75 M25 100 C8.33 100, 0 91.67, 0 75 M0 75 C0 63.06, 0 51.12, 0 25 M0 75 C0 60.77, 0 46.54, 0 25 M0 25 C0 8.33, 8.33 0, 25 0 M0 25 C0 8.33, 8.33 0, 25 0" stroke="#000000" stroke-width="2" fill="none"></path></g><g transform="translate(450.2205338776507 464.87170964494686) rotate(0 63.719940185546875 12.5)"><text x="63.719940185546875" y="0" font-family="Virgil, Segoe UI Emoji" font-size="20px" fill="#000000" text-anchor="middle" style="white-space: pre;" direction="ltr" dominant-baseline="text-before-edge">send request</text></g><g stroke-linecap="round" transform="translate(736.4763140136745 441.7500227299576) rotate(0 30 30)"><path d="M60 30 C60 31.74, 59.85 33.5, 59.54 35.21 C59.24 36.92, 58.78 38.63, 58.19 40.26 C57.6 41.89, 56.85 43.5, 55.98 45 C55.11 46.5, 54.1 47.95, 52.98 49.28 C51.87 50.61, 50.61 51.87, 49.28 52.98 C47.95 54.1, 46.5 55.11, 45 55.98 C43.5 56.85, 41.89 57.6, 40.26 58.19 C38.63 58.78, 36.92 59.24, 35.21 59.54 C33.5 59.85, 31.74 60, 30 60 C28.26 60, 26.5 59.85, 24.79 59.54 C23.08 59.24, 21.37 58.78, 19.74 58.19 C18.11 57.6, 16.5 56.85, 15 55.98 C13.5 55.11, 12.05 54.1, 10.72 52.98 C9.39 51.87, 8.13 50.61, 7.02 49.28 C5.9 47.95, 4.89 46.5, 4.02 45 C3.15 43.5, 2.4 41.89, 1.81 40.26 C1.22 38.63, 0.76 36.92, 0.46 35.21 C0.15 33.5, 0 31.74, 0 30 C0 28.26, 0.15 26.5, 0.46 24.79 C0.76 23.08, 1.22 21.37, 1.81 19.74 C2.4 18.11, 3.15 16.5, 4.02 15 C4.89 13.5, 5.9 12.05, 7.02 10.72 C8.13 9.39, 9.39 8.13, 10.72 7.02 C12.05 5.9, 13.5 4.89, 15 4.02 C16.5 3.15, 18.11 2.4, 19.74 1.81 C21.37 1.22, 23.08 0.76, 24.79 0.46 C26.5 0.15, 28.26 0, 30 0 C31.74 0, 33.5 0.15, 35.21 0.46 C36.92 0.76, 38.63 1.22, 40.26 1.81 C41.89 2.4, 43.5 3.15, 45 4.02 C46.5 4.89, 47.95 5.9, 49.28 7.02 C50.61 8.13, 51.87 9.39, 52.98 10.72 C54.1 12.05, 55.11 13.5, 55.98 15 C56.85 16.5, 57.6 18.11, 58.19 19.74 C58.78 21.37, 59.24 23.08, 59.54 24.79 C59.85 26.5, 59.92 29.13, 60 30 C60.08 30.87, 60.08 29.13, 60 30" stroke="none" stroke-width="0" fill="#ffffff"></path><path d="M60 30 C60 31.74, 59.85 33.5, 59.54 35.21 C59.24 36.92, 58.78 38.63, 58.19 40.26 C57.6 41.89, 56.85 43.5, 55.98 45 C55.11 46.5, 54.1 47.95, 52.98 49.28 C51.87 50.61, 50.61 51.87, 49.28 52.98 C47.95 54.1, 46.5 55.11, 45 55.98 C43.5 56.85, 41.89 57.6, 40.26 58.19 C38.63 58.78, 36.92 59.24, 35.21 59.54 C33.5 59.85, 31.74 60, 30 60 C28.26 60, 26.5 59.85, 24.79 59.54 C23.08 59.24, 21.37 58.78, 19.74 58.19 C18.11 57.6, 16.5 56.85, 15 55.98 C13.5 55.11, 12.05 54.1, 10.72 52.98 C9.39 51.87, 8.13 50.61, 7.02 49.28 C5.9 47.95, 4.89 46.5, 4.02 45 C3.15 43.5, 2.4 41.89, 1.81 40.26 C1.22 38.63, 0.76 36.92, 0.46 35.21 C0.15 33.5, 0 31.74, 0 30 C0 28.26, 0.15 26.5, 0.46 24.79 C0.76 23.08, 1.22 21.37, 1.81 19.74 C2.4 18.11, 3.15 16.5, 4.02 15 C4.89 13.5, 5.9 12.05, 7.02 10.72 C8.13 9.39, 9.39 8.13, 10.72 7.02 C12.05 5.9, 13.5 4.89, 15 4.02 C16.5 3.15, 18.11 2.4, 19.74 1.81 C21.37 1.22, 23.08 0.76, 24.79 0.46 C26.5 0.15, 28.26 0, 30 0 C31.74 0, 33.5 0.15, 35.21 0.46 C36.92 0.76, 38.63 1.22, 40.26 1.81 C41.89 2.4, 43.5 3.15, 45 4.02 C46.5 4.89, 47.95 5.9, 49.28 7.02 C50.61 8.13, 51.87 9.39, 52.98 10.72 C54.1 12.05, 55.11 13.5, 55.98 15 C56.85 16.5, 57.6 18.11, 58.19 19.74 C58.78 21.37, 59.24 23.08, 59.54 24.79 C59.85 26.5, 59.92 29.13, 60 30 C60.08 30.87, 60.08 29.13, 60 30" stroke="#000000" stroke-width="2" fill="none"></path></g><g stroke-linecap="round" transform="translate(741.4763140136745 446.7500227299576) rotate(0 25 25)"><path d="M50 25 C50 26.45, 49.87 27.92, 49.62 29.34 C49.37 30.77, 48.99 32.19, 48.49 33.55 C48 34.91, 47.37 36.25, 46.65 37.5 C45.93 38.75, 45.08 39.96, 44.15 41.07 C43.22 42.18, 42.18 43.22, 41.07 44.15 C39.96 45.08, 38.75 45.93, 37.5 46.65 C36.25 47.37, 34.91 48, 33.55 48.49 C32.19 48.99, 30.77 49.37, 29.34 49.62 C27.92 49.87, 26.45 50, 25 50 C23.55 50, 22.08 49.87, 20.66 49.62 C19.23 49.37, 17.81 48.99, 16.45 48.49 C15.09 48, 13.75 47.37, 12.5 46.65 C11.25 45.93, 10.04 45.08, 8.93 44.15 C7.82 43.22, 6.78 42.18, 5.85 41.07 C4.92 39.96, 4.07 38.75, 3.35 37.5 C2.63 36.25, 2 34.91, 1.51 33.55 C1.01 32.19, 0.63 30.77, 0.38 29.34 C0.13 27.92, 0 26.45, 0 25 C0 23.55, 0.13 22.08, 0.38 20.66 C0.63 19.23, 1.01 17.81, 1.51 16.45 C2 15.09, 2.63 13.75, 3.35 12.5 C4.07 11.25, 4.92 10.04, 5.85 8.93 C6.78 7.82, 7.82 6.78, 8.93 5.85 C10.04 4.92, 11.25 4.07, 12.5 3.35 C13.75 2.63, 15.09 2, 16.45 1.51 C17.81 1.01, 19.23 0.63, 20.66 0.38 C22.08 0.13, 23.55 0, 25 0 C26.45 0, 27.92 0.13, 29.34 0.38 C30.77 0.63, 32.19 1.01, 33.55 1.51 C34.91 2, 36.25 2.63, 37.5 3.35 C38.75 4.07, 39.96 4.92, 41.07 5.85 C42.18 6.78, 43.22 7.82, 44.15 8.93 C45.08 10.04, 45.93 11.25, 46.65 12.5 C47.37 13.75, 48 15.09, 48.49 16.45 C48.99 17.81, 49.37 19.23, 49.62 20.66 C49.87 22.08, 49.94 24.28, 50 25 C50.06 25.72, 50.06 24.28, 50 25" stroke="none" stroke-width="0" fill="#ffffff"></path><path d="M50 25 C50 26.45, 49.87 27.92, 49.62 29.34 C49.37 30.77, 48.99 32.19, 48.49 33.55 C48 34.91, 47.37 36.25, 46.65 37.5 C45.93 38.75, 45.08 39.96, 44.15 41.07 C43.22 42.18, 42.18 43.22, 41.07 44.15 C39.96 45.08, 38.75 45.93, 37.5 46.65 C36.25 47.37, 34.91 48, 33.55 48.49 C32.19 48.99, 30.77 49.37, 29.34 49.62 C27.92 49.87, 26.45 50, 25 50 C23.55 50, 22.08 49.87, 20.66 49.62 C19.23 49.37, 17.81 48.99, 16.45 48.49 C15.09 48, 13.75 47.37, 12.5 46.65 C11.25 45.93, 10.04 45.08, 8.93 44.15 C7.82 43.22, 6.78 42.18, 5.85 41.07 C4.92 39.96, 4.07 38.75, 3.35 37.5 C2.63 36.25, 2 34.91, 1.51 33.55 C1.01 32.19, 0.63 30.77, 0.38 29.34 C0.13 27.92, 0 26.45, 0 25 C0 23.55, 0.13 22.08, 0.38 20.66 C0.63 19.23, 1.01 17.81, 1.51 16.45 C2 15.09, 2.63 13.75, 3.35 12.5 C4.07 11.25, 4.92 10.04, 5.85 8.93 C6.78 7.82, 7.82 6.78, 8.93 5.85 C10.04 4.92, 11.25 4.07, 12.5 3.35 C13.75 2.63, 15.09 2, 16.45 1.51 C17.81 1.01, 19.23 0.63, 20.66 0.38 C22.08 0.13, 23.55 0, 25 0 C26.45 0, 27.92 0.13, 29.34 0.38 C30.77 0.63, 32.19 1.01, 33.55 1.51 C34.91 2, 36.25 2.63, 37.5 3.35 C38.75 4.07, 39.96 4.92, 41.07 5.85 C42.18 6.78, 43.22 7.82, 44.15 8.93 C45.08 10.04, 45.93 11.25, 46.65 12.5 C47.37 13.75, 48 15.09, 48.49 16.45 C48.99 17.81, 49.37 19.23, 49.62 20.66 C49.87 22.08, 49.94 24.28, 50 25 C50.06 25.72, 50.06 24.28, 50 25" stroke="#000000" stroke-width="2" fill="none"></path></g><g stroke-linecap="round" transform="translate(751.4763140136745 461.7500227299576) rotate(0 15 10)"><path d="M0 0 L30 0 L30 20 L0 20" stroke="none" stroke-width="0" fill="#ffffff"></path><path d="M0 0 C10.9 0, 21.79 0, 30 0 M0 0 C10.85 0, 21.69 0, 30 0 M30 0 C30 7.76, 30 15.52, 30 20 M30 0 C30 4.57, 30 9.15, 30 20 M30 20 C22.86 20, 15.72 20, 0 20 M30 20 C21.24 20, 12.47 20, 0 20 M0 20 C0 14.31, 0 8.62, 0 0 M0 20 C0 13.07, 0 6.15, 0 0" stroke="#000000" stroke-width="2" fill="none"></path></g><g stroke-linecap="round"><g transform="translate(751.4763140136745 461.7500227299576) rotate(0 7.5 5)"><path d="M0 0 C2.5 1.67, 12.5 8.33, 15 10 M0 0 C2.5 1.67, 12.5 8.33, 15 10" stroke="#000000" stroke-width="2" fill="none"></path></g></g><mask></mask><g stroke-linecap="round"><g transform="translate(766.4763140136745 471.7500227299576) rotate(0 7.5 -5)"><path d="M0 0 C2.5 -1.67, 12.5 -8.33, 15 -10 M0 0 C2.5 -1.67, 12.5 -8.33, 15 -10" stroke="#000000" stroke-width="2" fill="none"></path></g></g><mask></mask><g stroke-linecap="round" transform="translate(1220.1089756954582 441.81125572735885) rotate(0 30 30)"><path d="M60 30 C60 31.74, 59.85 33.5, 59.54 35.21 C59.24 36.92, 58.78 38.63, 58.19 40.26 C57.6 41.89, 56.85 43.5, 55.98 45 C55.11 46.5, 54.1 47.95, 52.98 49.28 C51.87 50.61, 50.61 51.87, 49.28 52.98 C47.95 54.1, 46.5 55.11, 45 55.98 C43.5 56.85, 41.89 57.6, 40.26 58.19 C38.63 58.78, 36.92 59.24, 35.21 59.54 C33.5 59.85, 31.74 60, 30 60 C28.26 60, 26.5 59.85, 24.79 59.54 C23.08 59.24, 21.37 58.78, 19.74 58.19 C18.11 57.6, 16.5 56.85, 15 55.98 C13.5 55.11, 12.05 54.1, 10.72 52.98 C9.39 51.87, 8.13 50.61, 7.02 49.28 C5.9 47.95, 4.89 46.5, 4.02 45 C3.15 43.5, 2.4 41.89, 1.81 40.26 C1.22 38.63, 0.76 36.92, 0.46 35.21 C0.15 33.5, 0 31.74, 0 30 C0 28.26, 0.15 26.5, 0.46 24.79 C0.76 23.08, 1.22 21.37, 1.81 19.74 C2.4 18.11, 3.15 16.5, 4.02 15 C4.89 13.5, 5.9 12.05, 7.02 10.72 C8.13 9.39, 9.39 8.13, 10.72 7.02 C12.05 5.9, 13.5 4.89, 15 4.02 C16.5 3.15, 18.11 2.4, 19.74 1.81 C21.37 1.22, 23.08 0.76, 24.79 0.46 C26.5 0.15, 28.26 0, 30 0 C31.74 0, 33.5 0.15, 35.21 0.46 C36.92 0.76, 38.63 1.22, 40.26 1.81 C41.89 2.4, 43.5 3.15, 45 4.02 C46.5 4.89, 47.95 5.9, 49.28 7.02 C50.61 8.13, 51.87 9.39, 52.98 10.72 C54.1 12.05, 55.11 13.5, 55.98 15 C56.85 16.5, 57.6 18.11, 58.19 19.74 C58.78 21.37, 59.24 23.08, 59.54 24.79 C59.85 26.5, 59.92 29.13, 60 30 C60.08 30.87, 60.08 29.13, 60 30" stroke="none" stroke-width="0" fill="#ffffff"></path><path d="M60 30 C60 31.74, 59.85 33.5, 59.54 35.21 C59.24 36.92, 58.78 38.63, 58.19 40.26 C57.6 41.89, 56.85 43.5, 55.98 45 C55.11 46.5, 54.1 47.95, 52.98 49.28 C51.87 50.61, 50.61 51.87, 49.28 52.98 C47.95 54.1, 46.5 55.11, 45 55.98 C43.5 56.85, 41.89 57.6, 40.26 58.19 C38.63 58.78, 36.92 59.24, 35.21 59.54 C33.5 59.85, 31.74 60, 30 60 C28.26 60, 26.5 59.85, 24.79 59.54 C23.08 59.24, 21.37 58.78, 19.74 58.19 C18.11 57.6, 16.5 56.85, 15 55.98 C13.5 55.11, 12.05 54.1, 10.72 52.98 C9.39 51.87, 8.13 50.61, 7.02 49.28 C5.9 47.95, 4.89 46.5, 4.02 45 C3.15 43.5, 2.4 41.89, 1.81 40.26 C1.22 38.63, 0.76 36.92, 0.46 35.21 C0.15 33.5, 0 31.74, 0 30 C0 28.26, 0.15 26.5, 0.46 24.79 C0.76 23.08, 1.22 21.37, 1.81 19.74 C2.4 18.11, 3.15 16.5, 4.02 15 C4.89 13.5, 5.9 12.05, 7.02 10.72 C8.13 9.39, 9.39 8.13, 10.72 7.02 C12.05 5.9, 13.5 4.89, 15 4.02 C16.5 3.15, 18.11 2.4, 19.74 1.81 C21.37 1.22, 23.08 0.76, 24.79 0.46 C26.5 0.15, 28.26 0, 30 0 C31.74 0, 33.5 0.15, 35.21 0.46 C36.92 0.76, 38.63 1.22, 40.26 1.81 C41.89 2.4, 43.5 3.15, 45 4.02 C46.5 4.89, 47.95 5.9, 49.28 7.02 C50.61 8.13, 51.87 9.39, 52.98 10.72 C54.1 12.05, 55.11 13.5, 55.98 15 C56.85 16.5, 57.6 18.11, 58.19 19.74 C58.78 21.37, 59.24 23.08, 59.54 24.79 C59.85 26.5, 59.92 29.13, 60 30 C60.08 30.87, 60.08 29.13, 60 30" stroke="#000000" stroke-width="6" fill="none"></path></g><g stroke-linecap="round"><g transform="translate(306.4740315485353 475.81353063356386) rotate(0 55.06727297280463 0.32860234064025917)"><path d="M0 0 C18.36 0.11, 91.78 0.55, 110.13 0.66 M0 0 C18.36 0.11, 91.78 0.55, 110.13 0.66" stroke="#000000" stroke-width="2" fill="none"></path></g><g transform="translate(306.4740315485353 475.81353063356386) rotate(0 55.06727297280463 0.32860234064025917)"><path d="M110.13 0.66 L96.5 6.92 L96.58 -5.76 L110.13 0.66" stroke="none" stroke-width="0" fill="#000000" fill-rule="evenodd"></path><path d="M110.13 0.66 C106.58 2.29, 103.02 3.92, 96.5 6.92 M110.13 0.66 C107.26 1.98, 104.39 3.3, 96.5 6.92 M96.5 6.92 C96.52 3.63, 96.54 0.34, 96.58 -5.76 M96.5 6.92 C96.52 3.26, 96.55 -0.39, 96.58 -5.76 M96.58 -5.76 C100.07 -4.11, 103.56 -2.46, 110.13 0.66 M96.58 -5.76 C101.58 -3.4, 106.58 -1.03, 110.13 0.66 M110.13 0.66 C110.13 0.66, 110.13 0.66, 110.13 0.66 M110.13 0.66 C110.13 0.66, 110.13 0.66, 110.13 0.66" stroke="#000000" stroke-width="2" fill="none"></path></g></g><mask></mask><g stroke-linecap="round"><g transform="translate(623.3655637484958 472.9684153769385) rotate(0 57.109038945869315 -0.14540636083046365)"><path d="M0 0 C19.04 -0.05, 95.18 -0.24, 114.22 -0.29 M0 0 C19.04 -0.05, 95.18 -0.24, 114.22 -0.29" stroke="#000000" stroke-width="2" fill="none"></path></g><g transform="translate(623.3655637484958 472.9684153769385) rotate(0 57.109038945869315 -0.14540636083046365)"><path d="M114.22 -0.29 L100.64 6.08 L100.61 -6.6 L114.22 -0.29" stroke="none" stroke-width="0" fill="#000000" fill-rule="evenodd"></path><path d="M114.22 -0.29 C110.46 1.47, 106.7 3.24, 100.64 6.08 M114.22 -0.29 C110.85 1.29, 107.49 2.87, 100.64 6.08 M100.64 6.08 C100.63 2.17, 100.62 -1.75, 100.61 -6.6 M100.64 6.08 C100.63 2.21, 100.62 -1.66, 100.61 -6.6 M100.61 -6.6 C104.79 -4.66, 108.96 -2.72, 114.22 -0.29 M100.61 -6.6 C105.36 -4.4, 110.11 -2.2, 114.22 -0.29 M114.22 -0.29 C114.22 -0.29, 114.22 -0.29, 114.22 -0.29 M114.22 -0.29 C114.22 -0.29, 114.22 -0.29, 114.22 -0.29" stroke="#000000" stroke-width="2" fill="none"></path></g></g><mask></mask><g stroke-linecap="round"><g transform="translate(799.4252639689878 473.8558397930248) rotate(0 51.950122795888774 0.5741576570188727)"><path d="M0 0 C17.32 0.19, 86.58 0.96, 103.9 1.15 M0 0 C17.32 0.19, 86.58 0.96, 103.9 1.15" stroke="#000000" stroke-width="2" fill="none"></path></g><g transform="translate(799.4252639689878 473.8558397930248) rotate(0 51.950122795888774 0.5741576570188727)"><path d="M103.9 1.15 L90.24 7.34 L90.38 -5.34 L103.9 1.15" stroke="none" stroke-width="0" fill="#000000" fill-rule="evenodd"></path><path d="M103.9 1.15 C99.92 2.95, 95.95 4.75, 90.24 7.34 M103.9 1.15 C99.11 3.32, 94.33 5.48, 90.24 7.34 M90.24 7.34 C90.27 3.92, 90.31 0.5, 90.38 -5.34 M90.24 7.34 C90.27 4.71, 90.29 2.08, 90.38 -5.34 M90.38 -5.34 C95.29 -2.99, 100.19 -0.63, 103.9 1.15 M90.38 -5.34 C95.43 -2.92, 100.48 -0.49, 103.9 1.15 M103.9 1.15 C103.9 1.15, 103.9 1.15, 103.9 1.15 M103.9 1.15 C103.9 1.15, 103.9 1.15, 103.9 1.15" stroke="#000000" stroke-width="2" fill="none"></path></g></g><mask></mask><g stroke-linecap="round" transform="translate(907.6876886460855 421.88278367090135) rotate(0 100.00000000000011 50)"><path d="M25 0 L175 0 L180.86 0.39 L190.23 3.52 L193.75 6.25 L196.48 9.77 L199.61 19.14 L200 75 L199.61 80.86 L196.48 90.23 L193.75 93.75 L190.23 96.48 L185.94 98.44 L175 100 L25 100 L14.06 98.44 L9.77 96.48 L6.25 93.75 L3.52 90.23 L0.39 80.86 L0.39 19.14 L3.52 9.77 L6.25 6.25 L9.77 3.52 L14.06 1.56 L25 0" stroke="none" stroke-width="0" fill="#ffffff"></path><path d="M25 0 M25 0 C68.28 0, 111.55 0, 175 0 M25 0 C62.94 0, 100.88 0, 175 0 M175 0 C191.67 0, 200 8.33, 200 25 M175 0 C191.67 0, 200 8.33, 200 25 M200 25 C200 42.73, 200 60.47, 200 75 M200 25 C200 43.3, 200 61.6, 200 75 M200 75 C200 91.67, 191.67 100, 175 100 M200 75 C200 91.67, 191.67 100, 175 100 M175 100 C144.58 100, 114.17 100, 25 100 M175 100 C116.65 100, 58.3 100, 25 100 M25 100 C8.33 100, 0 91.67, 0 75 M25 100 C8.33 100, 0 91.67, 0 75 M0 75 C0 64.03, 0 53.07, 0 25 M0 75 C0 57.1, 0 39.19, 0 25 M0 25 C0 8.33, 8.33 0, 25 0 M0 25 C0 8.33, 8.33 0, 25 0" stroke="#000000" stroke-width="2" fill="none"></path></g><g transform="translate(960.6377084825115 449.38278367090135) rotate(0 41.239952087402344 25)"><text x="41.239952087402344" y="0" font-family="Virgil, Segoe UI Emoji" font-size="20px" fill="#000000" text-anchor="middle" style="white-space: pre;" direction="ltr" dominant-baseline="text-before-edge">process </text><text x="41.239952087402344" y="25" font-family="Virgil, Segoe UI Emoji" font-size="20px" fill="#000000" text-anchor="middle" style="white-space: pre;" direction="ltr" dominant-baseline="text-before-edge">response</text></g><g stroke-linecap="round"><g transform="translate(1109.5593494581838 474.08147859630304) rotate(0 53.0871070831829 -1.0456632269043098)"><path d="M0 0 C17.7 -0.35, 88.48 -1.74, 106.17 -2.09 M0 0 C17.7 -0.35, 88.48 -1.74, 106.17 -2.09" stroke="#000000" stroke-width="2" fill="none"></path></g><g transform="translate(1109.5593494581838 474.08147859630304) rotate(0 53.0871070831829 -1.0456632269043098)"><path d="M106.17 -2.09 L92.71 4.51 L92.46 -8.16 L106.17 -2.09" stroke="none" stroke-width="0" fill="#000000" fill-rule="evenodd"></path><path d="M106.17 -2.09 C100.82 0.54, 95.46 3.16, 92.71 4.51 M106.17 -2.09 C102.5 -0.29, 98.82 1.51, 92.71 4.51 M92.71 4.51 C92.61 -0.26, 92.52 -5.03, 92.46 -8.16 M92.71 4.51 C92.62 -0.07, 92.53 -4.66, 92.46 -8.16 M92.46 -8.16 C96.44 -6.4, 100.43 -4.63, 106.17 -2.09 M92.46 -8.16 C96.52 -6.36, 100.58 -4.57, 106.17 -2.09 M106.17 -2.09 C106.17 -2.09, 106.17 -2.09, 106.17 -2.09 M106.17 -2.09 C106.17 -2.09, 106.17 -2.09, 106.17 -2.09" stroke="#000000" stroke-width="2" fill="none"></path></g></g><mask></mask><g transform="translate(220.86090719085496 522.7124245216012) rotate(0 57.239967346191406 20)"><text x="0" y="0" font-family="Virgil, Segoe UI Emoji" font-size="16px" fill="#000000" text-anchor="start" style="white-space: pre;" direction="ltr" dominant-baseline="text-before-edge">message to be</text><text x="0" y="20" font-family="Virgil, Segoe UI Emoji" font-size="16px" fill="#000000" text-anchor="start" style="white-space: pre;" direction="ltr" dominant-baseline="text-before-edge"> processed</text></g><g transform="translate(1217.159316316009 515.7384412757667) rotate(0 37.82396697998047 20.000000000000057)"><text x="0" y="0" font-family="Virgil, Segoe UI Emoji" font-size="16px" fill="#000000" text-anchor="start" style="white-space: pre;" direction="ltr" dominant-baseline="text-before-edge">message</text><text x="0" y="20" font-family="Virgil, Segoe UI Emoji" font-size="16px" fill="#000000" text-anchor="start" style="white-space: pre;" direction="ltr" dominant-baseline="text-before-edge">processed</text></g><g transform="translate(702.0730862675148 522.2051051805856) rotate(0 66.91996002197266 10)"><text x="0" y="0" font-family="Virgil, Segoe UI Emoji" font-size="16px" fill="#000000" text-anchor="start" style="white-space: pre;" direction="ltr" dominant-baseline="text-before-edge">message received</text></g><g transform="translate(26.65505143145947 267.03204562332695) rotate(0 86.32794189453125 10)"><text x="0" y="0" font-family="Virgil, Segoe UI Emoji" font-size="16px" fill="#000000" text-anchor="start" style="white-space: pre;" direction="ltr" dominant-baseline="text-before-edge">BPMN Process ID = 1</text></g><g transform="translate(29.857955336018676 402.19413832742595) rotate(0 72.22396087646484 10)"><text x="0" y="0" font-family="Virgil, Segoe UI Emoji" font-size="16px" fill="#000000" text-anchor="start" style="white-space: pre;" direction="ltr" dominant-baseline="text-before-edge">Process instance 1</text></g><g transform="translate(28.417883625851573 437.6751660651101) rotate(0 75.75196075439453 10)"><text x="0" y="0" font-family="Virgil, Segoe UI Emoji" font-size="16px" fill="#000000" text-anchor="start" style="white-space: pre;" direction="ltr" dominant-baseline="text-before-edge">Process instance 2</text></g><g transform="translate(28.25770483095266 475.14898902267583) rotate(0 75.50395965576172 10)"><text x="0" y="0" font-family="Virgil, Segoe UI Emoji" font-size="16px" fill="#000000" text-anchor="start" style="white-space: pre;" direction="ltr" dominant-baseline="text-before-edge">Process instance 3</text></g><g stroke-opacity="0.3" fill-opacity="0.3" stroke-linecap="round" transform="translate(10 293.7762107544767) rotate(0 654.3507813257987 148.6141791406883)"><path d="M32 0 M32 0 C283.86 0, 535.72 0, 1276.7 0 M1276.7 0 C1298.03 0, 1308.7 10.67, 1308.7 32 M1308.7 32 C1308.7 100.68, 1308.7 169.37, 1308.7 265.23 M1308.7 265.23 C1308.7 286.56, 1298.03 297.23, 1276.7 297.23 M1276.7 297.23 C850.38 297.23, 424.06 297.23, 32 297.23 M32 297.23 C10.67 297.23, 0 286.56, 0 265.23 M0 265.23 C0 213.82, 0 162.41, 0 32 M0 32 C0 10.67, 10.67 0, 32 0" stroke="#000000" stroke-width="1.5" fill="none" stroke-dasharray="8 9"></path></g><g stroke-linecap="round" transform="translate(709.7252602929186 67.15402100692012) rotate(0 23.00722921624265 15.338152810828433)"><path d="M0 0 L46.01 0 L46.01 30.68 L0 30.68" stroke="none" stroke-width="0" fill="#ffffff"></path><path d="M0 0 C17.31 0, 34.62 0, 46.01 0 M0 0 C14.91 0, 29.81 0, 46.01 0 M46.01 0 C46.01 11.54, 46.01 23.08, 46.01 30.68 M46.01 0 C46.01 9.98, 46.01 19.97, 46.01 30.68 M46.01 30.68 C33.54 30.68, 21.06 30.68, 0 30.68 M46.01 30.68 C31.55 30.68, 17.09 30.68, 0 30.68 M0 30.68 C0 18.69, 0 6.7, 0 0 M0 30.68 C0 18.72, 0 6.77, 0 0" stroke="#000000" stroke-width="2" fill="none"></path></g><g stroke-linecap="round"><g transform="translate(709.7252602929186 67.15402100692012) rotate(0 11.503614608121325 7.669076405414216)"><path d="M0 0 C3.83 2.56, 19.17 12.78, 23.01 15.34 M0 0 C3.83 2.56, 19.17 12.78, 23.01 15.34" stroke="#000000" stroke-width="2" fill="none"></path></g></g><mask></mask><g stroke-linecap="round"><g transform="translate(732.7324895091613 82.49217381774855) rotate(0 11.503614608121325 -7.669076405414216)"><path d="M0 0 C3.83 -2.56, 19.17 -12.78, 23.01 -15.34 M0 0 C3.83 -2.56, 19.17 -12.78, 23.01 -15.34" stroke="#000000" stroke-width="2" fill="none"></path></g></g><mask></mask><g stroke-linecap="round"><g transform="translate(716.005741114772 376.1720549636114) rotate(0 -1.6387282401996117 -122.87168454636662)"><path d="M0 0 C-0.55 -40.96, -2.73 -204.79, -3.28 -245.74" stroke="#000000" stroke-width="1.5" fill="none" stroke-dasharray="8 9"></path></g><g transform="translate(716.005741114772 376.1720549636114) rotate(0 -1.6387282401996117 -122.87168454636662)"><path d="M7.36 -217.69 C3.29 -228.43, -0.79 -239.17, -3.28 -245.74" stroke="#000000" stroke-width="1.5" fill="none"></path></g><g transform="translate(716.005741114772 376.1720549636114) rotate(0 -1.6387282401996117 -122.87168454636662)"><path d="M-13.16 -217.42 C-9.38 -228.26, -5.59 -239.11, -3.28 -245.74" stroke="#000000" stroke-width="1.5" fill="none"></path></g></g><mask></mask><g transform="translate(586.5205524417195 198.9706705936374) rotate(0 57.60797119140625 20)"><text x="0" y="0" font-family="Virgil, Segoe UI Emoji" font-size="16px" fill="#000000" text-anchor="start" style="white-space: pre;" direction="ltr" dominant-baseline="text-before-edge">subscribe with</text><text x="0" y="20" font-family="Virgil, Segoe UI Emoji" font-size="16px" fill="#000000" text-anchor="start" style="white-space: pre;" direction="ltr" dominant-baseline="text-before-edge">correlation key</text></g><g stroke-opacity="0.2" fill-opacity="0.2" stroke-linecap="round" transform="translate(617.9088029993425 36.904307271862365) rotate(0 129.3968534578305 44.84048361095887)"><path d="M22.42 0 M22.42 0 C83.16 0, 143.9 0, 236.37 0 M236.37 0 C251.32 0, 258.79 7.47, 258.79 22.42 M258.79 22.42 C258.79 32.69, 258.79 42.97, 258.79 67.26 M258.79 67.26 C258.79 82.21, 251.32 89.68, 236.37 89.68 M236.37 89.68 C193.57 89.68, 150.76 89.68, 22.42 89.68 M22.42 89.68 C7.47 89.68, 0 82.21, 0 67.26 M0 67.26 C0 56.35, 0 45.44, 0 22.42 M0 22.42 C0 7.47, 7.47 0, 22.42 0" stroke="#000000" stroke-width="1.5" fill="none" stroke-dasharray="8 9"></path></g><g transform="translate(632.6421243061284 10) rotate(0 60.047950744628906 10)"><text x="0" y="0" font-family="Virgil, Segoe UI Emoji" font-size="16px" fill="#000000" text-anchor="start" style="white-space: pre;" direction="ltr" dominant-baseline="text-before-edge">message buffer</text></g><g stroke-linecap="round"><g stroke-opacity="0.4" fill-opacity="0.4" transform="translate(442.2135642437995 82.48631880086617) rotate(0 86.23658820913022 -0.49404995346810665)"><path d="M0 0 C28.75 -0.16, 143.73 -0.82, 172.47 -0.99 M0 0 C28.75 -0.16, 143.73 -0.82, 172.47 -0.99" stroke="#000000" stroke-width="1" fill="none"></path></g><g stroke-opacity="0.4" fill-opacity="0.4" transform="translate(442.2135642437995 82.48631880086617) rotate(0 86.23658820913022 -0.49404995346810665)"><path d="M144.34 9.43 C149.98 7.35, 155.62 5.26, 172.47 -0.99 M144.34 9.43 C153.28 6.12, 162.22 2.81, 172.47 -0.99" stroke="#000000" stroke-width="1" fill="none"></path></g><g stroke-opacity="0.4" fill-opacity="0.4" transform="translate(442.2135642437995 82.48631880086617) rotate(0 86.23658820913022 -0.49404995346810665)"><path d="M144.22 -11.09 C149.89 -9.06, 155.55 -7.04, 172.47 -0.99 M144.22 -11.09 C153.2 -7.88, 162.18 -4.67, 172.47 -0.99" stroke="#000000" stroke-width="1" fill="none"></path></g></g><mask></mask><g stroke-opacity="0.4" fill-opacity="0.4" transform="translate(448.15554361499835 55.64121875064535) rotate(0 63.19995880126953 10)"><text x="0" y="0" font-family="Virgil, Segoe UI Emoji" font-size="16px" fill="#000000" text-anchor="start" style="white-space: pre;" direction="ltr" dominant-baseline="text-before-edge">coming messages</text></g><g stroke-linecap="round"><g transform="translate(728.4459463249393 414.2457631901571) rotate(0 -1.6387282401996117 -120.30936142271923)"><path d="M0 0 C-0.55 -40.1, -2.73 -200.52, -3.28 -240.62" stroke="#000000" stroke-width="1.5" fill="none" stroke-dasharray="8 9"></path></g><g transform="translate(728.4459463249393 414.2457631901571) rotate(0 -1.6387282401996117 -120.30936142271923)"><path d="M7.37 -212.57 C4.31 -220.63, 1.25 -228.68, -3.28 -240.62" stroke="#000000" stroke-width="1.5" fill="none"></path></g><g transform="translate(728.4459463249393 414.2457631901571) rotate(0 -1.6387282401996117 -120.30936142271923)"><path d="M-13.15 -212.29 C-10.32 -220.43, -7.48 -228.56, -3.28 -240.62" stroke="#000000" stroke-width="1.5" fill="none"></path></g></g><mask></mask><g stroke-linecap="round"><g transform="translate(742.5386501966275 447.07535410450333) rotate(0 -1.6387282401996117 -115.82532039246064)"><path d="M0 0 C-0.55 -38.61, -2.73 -193.04, -3.28 -231.65" stroke="#000000" stroke-width="1.5" fill="none" stroke-dasharray="8 9"></path></g><g transform="translate(742.5386501966275 447.07535410450333) rotate(0 -1.6387282401996117 -115.82532039246064)"><path d="M7.38 -203.61 C3.93 -212.69, 0.48 -221.77, -3.28 -231.65" stroke="#000000" stroke-width="1.5" fill="none"></path></g><g transform="translate(742.5386501966275 447.07535410450333) rotate(0 -1.6387282401996117 -115.82532039246064)"><path d="M-13.14 -203.32 C-9.94 -212.49, -6.75 -221.67, -3.28 -231.65" stroke="#000000" stroke-width="1.5" fill="none"></path></g></g><mask></mask><g stroke-linecap="round"><g transform="translate(783.6992459326609 382.32529050078614) rotate(180.21167434594042 -1.6387282401996117 -122.87168454636662)"><path d="M0 0 C-0.55 -40.96, -2.73 -204.79, -3.28 -245.74" stroke="#000000" stroke-width="1.5" fill="none" stroke-dasharray="8 9"></path></g><g transform="translate(783.6992459326609 382.32529050078614) rotate(180.21167434594042 -1.6387282401996117 -122.87168454636662)"><path d="M7.36 -217.69 C4.3 -225.77, 1.24 -233.84, -3.28 -245.74" stroke="#000000" stroke-width="1.5" fill="none"></path></g><g transform="translate(783.6992459326609 382.32529050078614) rotate(180.21167434594042 -1.6387282401996117 -122.87168454636662)"><path d="M-13.16 -217.42 C-10.32 -225.57, -7.47 -233.72, -3.28 -245.74" stroke="#000000" stroke-width="1.5" fill="none"></path></g></g><mask></mask><g transform="translate(799.3526952349987 174.3254489250491) rotate(0 81.2559585571289 20)"><text x="0" y="0" font-family="Virgil, Segoe UI Emoji" font-size="16px" fill="#000000" text-anchor="start" style="white-space: pre;" direction="ltr" dominant-baseline="text-before-edge">correlate with only </text><text x="0" y="20" font-family="Virgil, Segoe UI Emoji" font-size="16px" fill="#000000" text-anchor="start" style="white-space: pre;" direction="ltr" dominant-baseline="text-before-edge">one process instance</text></g><g transform="translate(801.1419227447589 235.63007304404704) rotate(0 140.90391540527344 10)"><text x="0" y="0" font-family="Virgil, Segoe UI Emoji" font-size="16px" fill="#000000" text-anchor="start" style="white-space: pre;" direction="ltr" dominant-baseline="text-before-edge">other process instances are waiting</text></g></svg>